<svg version="1.2" xmlns="http://www.w3.org/2000/svg" viewBox="0 0 2475 1650" width="2475" height="1650"><defs><linearGradient id="P" gradientUnits="userSpaceOnUse"/><linearGradient id="g1" x1="2350.3" y1="1439.2" x2="122.4" y2="1439.2" href="#P"><stop stop-color="#dae3fe"/><stop offset="1" stop-color="#e9effd"/></linearGradient><linearGradient id="g2" x1="1831.5" y1="448.8" x2="1892.9" y2="1908.8" href="#P"><stop stop-color="#fe7062"/><stop offset="1" stop-color="#ff928e"/></linearGradient><linearGradient id="g3" x1="1819.4" y1="134.6" x2="1878.6" y2="1539" href="#P"><stop stop-color="#e1473d"/><stop offset="1" stop-color="#e9605a"/></linearGradient><linearGradient id="g4" x1="1450.5" y1="800.7" x2="1917.8" y2="1272.4" href="#P"><stop stop-color="#09005d"/><stop offset="1" stop-color="#1a0f91"/></linearGradient><linearGradient id="g5" x1="1599.6" y1="1461.9" x2="1567" y2="1313.9" href="#P"><stop stop-color="#ff928e"/><stop offset="1" stop-color="#feb3b1"/></linearGradient><linearGradient id="g6" x1="1533.1" y1="502.4" x2="1541.9" y2="579.2" href="#P"><stop stop-color="#4042e2"/><stop offset="1" stop-color="#4f52ff"/></linearGradient><linearGradient id="g7" x1="1730.4" y1="1117.6" x2="1654.5" y2="1302.5" href="#P"><stop stop-color="#ff928e"/><stop offset="1" stop-color="#feb3b1"/></linearGradient><linearGradient id="g8" x1="1715.4" y1="1261.8" x2="1794.9" y2="1417.2" href="#P"><stop stop-color="#09005d"/><stop offset="1" stop-color="#1a0f91"/></linearGradient><linearGradient id="g9" x1="1444" y1="588.2" x2="1452" y2="658.8" href="#P"><stop stop-color="#4042e2"/><stop offset="1" stop-color="#4f52ff"/></linearGradient><linearGradient id="g10" x1="1701.7" y1="1158.2" x2="1774.3" y2="1316.3" href="#P"><stop stop-color="#4042e2"/><stop offset="1" stop-color="#4f52ff"/></linearGradient><linearGradient id="g11" x1="1647.9" y1="1118.4" x2="1679.6" y2="1195.9" href="#P"><stop stop-color="#ff928e"/><stop offset="1" stop-color="#feb3b1"/></linearGradient><linearGradient id="g12" x1="-1474.3" y1="1455.7" x2="-1433.5" y2="1451.5" href="#P"><stop stop-color="#ff928e"/><stop offset="1" stop-color="#feb3b1"/></linearGradient><linearGradient id="g13" x1="1435.8" y1="838.8" x2="1870.8" y2="1278.1" href="#P"><stop stop-color="#09005d"/><stop offset="1" stop-color="#1a0f91"/></linearGradient><linearGradient id="g14" x1="-1263.7" y1="1441.3" x2="-1225.6" y2="1437.3" href="#P"><stop stop-color="#ff928e"/><stop offset="1" stop-color="#feb3b1"/></linearGradient><linearGradient id="g15" x1="1810.9" y1="1296.1" x2="1654.5" y2="1282.1" href="#P"><stop stop-color="#ff928e"/><stop offset="1" stop-color="#feb3b1"/></linearGradient><linearGradient id="g16" x1="1655.4" y1="1451.2" x2="1675.1" y2="1327.1" href="#P"><stop stop-color="#4042e2"/><stop offset="1" stop-color="#4f52ff"/></linearGradient><linearGradient id="g17" x1="1636" y1="1448.1" x2="1655.7" y2="1324" href="#P"><stop stop-color="#4042e2"/><stop offset="1" stop-color="#4f52ff"/></linearGradient><linearGradient id="g18" x1="1609.6" y1="1443.9" x2="1629.4" y2="1319.8" href="#P"><stop stop-color="#4042e2"/><stop offset="1" stop-color="#4f52ff"/></linearGradient><linearGradient id="g19" x1="1703.3" y1="1275.3" x2="1623.9" y2="1301.4" href="#P"><stop stop-color="#09005d"/><stop offset="1" stop-color="#1a0f91"/></linearGradient><linearGradient id="g20" x1="1454.5" y1="1207.5" x2="1544.5" y2="1145.5" href="#P"><stop stop-color="#09005d"/><stop offset="1" stop-color="#1a0f91"/></linearGradient><linearGradient id="g21" x1="1391.7" y1="1277.5" x2="1819.8" y2="1277.5" href="#P"><stop stop-color="#dae3fe"/><stop offset="1" stop-color="#e9effd"/></linearGradient><linearGradient id="g22" x1="1416.6" y1="1285.4" x2="1500.2" y2="1285.4" href="#P"><stop stop-color="#dae3fe"/><stop offset="1" stop-color="#e9effd"/></linearGradient><linearGradient id="g23" x1="1426.4" y1="1285.4" x2="1510" y2="1285.4" href="#P"><stop stop-color="#dae3fe"/><stop offset="1" stop-color="#e9effd"/></linearGradient><linearGradient id="g24" x1="1720.6" y1="1285.4" x2="1804.2" y2="1285.4" href="#P"><stop stop-color="#dae3fe"/><stop offset="1" stop-color="#e9effd"/></linearGradient><linearGradient id="g25" x1="1730.4" y1="1285.4" x2="1814" y2="1285.4" href="#P"><stop stop-color="#dae3fe"/><stop offset="1" stop-color="#e9effd"/></linearGradient><clipPath clipPathUnits="userSpaceOnUse" id="cp1"><path d="m727.54 287.42h1033.34v487.35l-522.62 314.78-554.24-334.55z"/></clipPath><linearGradient id="g26" x1="2252.3" y1="256" x2="2198.3" y2="821.8" href="#P"><stop stop-color="#ff7070"/><stop offset="1" stop-color="#ff7070"/></linearGradient><linearGradient id="g27" x1="2083.9" y1="766.9" x2="2086.5" y2="766.9" href="#P"><stop stop-color="#dae3fe"/><stop offset="1" stop-color="#e9effd"/></linearGradient><linearGradient id="g28" x1="2084.9" y1="788" x2="2087.3" y2="788" href="#P"><stop stop-color="#dae3fe"/><stop offset="1" stop-color="#e9effd"/></linearGradient><linearGradient id="g29" x1="2083.7" y1="809.1" x2="2086.7" y2="809.1" href="#P"><stop stop-color="#dae3fe"/><stop offset="1" stop-color="#e9effd"/></linearGradient><linearGradient id="g30" x1="2080.7" y1="830.1" x2="2084.3" y2="830.1" href="#P"><stop stop-color="#dae3fe"/><stop offset="1" stop-color="#e9effd"/></linearGradient><linearGradient id="g31" x1="2076" y1="850.9" x2="2080.3" y2="850.9" href="#P"><stop stop-color="#dae3fe"/><stop offset="1" stop-color="#e9effd"/></linearGradient><linearGradient id="g32" x1="2069.7" y1="871.2" x2="2074.6" y2="871.2" href="#P"><stop stop-color="#dae3fe"/><stop offset="1" stop-color="#e9effd"/></linearGradient><linearGradient id="g33" x1="2061.8" y1="891.1" x2="2067.4" y2="891.1" href="#P"><stop stop-color="#dae3fe"/><stop offset="1" stop-color="#e9effd"/></linearGradient><linearGradient id="g34" x1="2052.5" y1="910.3" x2="2058.7" y2="910.3" href="#P"><stop stop-color="#dae3fe"/><stop offset="1" stop-color="#e9effd"/></linearGradient><linearGradient id="g35" x1="2041.8" y1="928.9" x2="2048.5" y2="928.9" href="#P"><stop stop-color="#dae3fe"/><stop offset="1" stop-color="#e9effd"/></linearGradient><linearGradient id="g36" x1="2029.7" y1="946.6" x2="2037.1" y2="946.6" href="#P"><stop stop-color="#dae3fe"/><stop offset="1" stop-color="#e9effd"/></linearGradient><linearGradient id="g37" x1="2016.3" y1="963.4" x2="2024.3" y2="963.4" href="#P"><stop stop-color="#dae3fe"/><stop offset="1" stop-color="#e9effd"/></linearGradient><linearGradient id="g38" x1="2001.7" y1="979.2" x2="2010.4" y2="979.2" href="#P"><stop stop-color="#dae3fe"/><stop offset="1" stop-color="#e9effd"/></linearGradient><linearGradient id="g39" x1="1986" y1="993.8" x2="1995.1" y2="993.8" href="#P"><stop stop-color="#dae3fe"/><stop offset="1" stop-color="#e9effd"/></linearGradient><linearGradient id="g40" x1="1969.3" y1="1007.3" x2="1978.8" y2="1007.3" href="#P"><stop stop-color="#dae3fe"/><stop offset="1" stop-color="#e9effd"/></linearGradient><linearGradient id="g41" x1="1951.5" y1="1019.4" x2="1961.5" y2="1019.4" href="#P"><stop stop-color="#dae3fe"/><stop offset="1" stop-color="#e9effd"/></linearGradient><linearGradient id="g42" x1="1932.8" y1="1030" x2="1943.1" y2="1030" href="#P"><stop stop-color="#dae3fe"/><stop offset="1" stop-color="#e9effd"/></linearGradient><linearGradient id="g43" x1="1913.3" y1="1039" x2="1924" y2="1039" href="#P"><stop stop-color="#dae3fe"/><stop offset="1" stop-color="#e9effd"/></linearGradient><linearGradient id="g44" x1="1893.1" y1="1046.3" x2="1904.2" y2="1046.3" href="#P"><stop stop-color="#dae3fe"/><stop offset="1" stop-color="#e9effd"/></linearGradient><linearGradient id="g45" x1="1872.4" y1="1052" x2="1883.8" y2="1052" href="#P"><stop stop-color="#dae3fe"/><stop offset="1" stop-color="#e9effd"/></linearGradient><linearGradient id="g46" x1="1851.4" y1="1056.1" x2="1863.1" y2="1056.1" href="#P"><stop stop-color="#dae3fe"/><stop offset="1" stop-color="#e9effd"/></linearGradient><linearGradient id="g47" x1="1830.1" y1="1058.6" x2="1842.2" y2="1058.6" href="#P"><stop stop-color="#dae3fe"/><stop offset="1" stop-color="#e9effd"/></linearGradient><linearGradient id="g48" x1="1808.7" y1="1059.6" x2="1821.1" y2="1059.6" href="#P"><stop stop-color="#dae3fe"/><stop offset="1" stop-color="#e9effd"/></linearGradient><linearGradient id="g49" x1="1787.5" y1="1059" x2="1799.9" y2="1059" href="#P"><stop stop-color="#dae3fe"/><stop offset="1" stop-color="#e9effd"/></linearGradient><linearGradient id="g50" x1="1766.4" y1="1057" x2="1778.7" y2="1057" href="#P"><stop stop-color="#dae3fe"/><stop offset="1" stop-color="#e9effd"/></linearGradient><linearGradient id="g51" x1="1745.4" y1="1053.8" x2="1757.6" y2="1053.8" href="#P"><stop stop-color="#dae3fe"/><stop offset="1" stop-color="#e9effd"/></linearGradient><linearGradient id="g52" x1="1724.6" y1="1049.3" x2="1736.7" y2="1049.3" href="#P"><stop stop-color="#dae3fe"/><stop offset="1" stop-color="#e9effd"/></linearGradient><linearGradient id="g53" x1="1704" y1="1043.8" x2="1716.1" y2="1043.8" href="#P"><stop stop-color="#dae3fe"/><stop offset="1" stop-color="#e9effd"/></linearGradient><linearGradient id="g54" x1="1683.8" y1="1037.2" x2="1695.8" y2="1037.2" href="#P"><stop stop-color="#dae3fe"/><stop offset="1" stop-color="#e9effd"/></linearGradient><linearGradient id="g55" x1="1663.9" y1="1029.6" x2="1675.9" y2="1029.6" href="#P"><stop stop-color="#dae3fe"/><stop offset="1" stop-color="#e9effd"/></linearGradient><linearGradient id="g56" x1="1644.3" y1="1021.1" x2="1656.3" y2="1021.1" href="#P"><stop stop-color="#dae3fe"/><stop offset="1" stop-color="#e9effd"/></linearGradient><linearGradient id="g57" x1="1625.2" y1="1011.7" x2="1637.1" y2="1011.7" href="#P"><stop stop-color="#dae3fe"/><stop offset="1" stop-color="#e9effd"/></linearGradient><linearGradient id="g58" x1="1606.6" y1="1001.4" x2="1618.4" y2="1001.4" href="#P"><stop stop-color="#dae3fe"/><stop offset="1" stop-color="#e9effd"/></linearGradient><linearGradient id="g59" x1="1588.4" y1="990.4" x2="1600.1" y2="990.4" href="#P"><stop stop-color="#dae3fe"/><stop offset="1" stop-color="#e9effd"/></linearGradient><linearGradient id="g60" x1="1570.6" y1="978.7" x2="1582.2" y2="978.7" href="#P"><stop stop-color="#dae3fe"/><stop offset="1" stop-color="#e9effd"/></linearGradient><linearGradient id="g61" x1="1553.2" y1="966.4" x2="1564.8" y2="966.4" href="#P"><stop stop-color="#dae3fe"/><stop offset="1" stop-color="#e9effd"/></linearGradient><linearGradient id="g62" x1="1536.2" y1="953.6" x2="1547.8" y2="953.6" href="#P"><stop stop-color="#dae3fe"/><stop offset="1" stop-color="#e9effd"/></linearGradient><linearGradient id="g63" x1="1519.6" y1="940.3" x2="1531.1" y2="940.3" href="#P"><stop stop-color="#dae3fe"/><stop offset="1" stop-color="#e9effd"/></linearGradient><linearGradient id="g64" x1="1503.3" y1="926.5" x2="1514.8" y2="926.5" href="#P"><stop stop-color="#dae3fe"/><stop offset="1" stop-color="#e9effd"/></linearGradient><linearGradient id="g65" x1="1487.4" y1="912.4" x2="1498.9" y2="912.4" href="#P"><stop stop-color="#dae3fe"/><stop offset="1" stop-color="#e9effd"/></linearGradient><linearGradient id="g66" x1="1471.8" y1="897.9" x2="1483.2" y2="897.9" href="#P"><stop stop-color="#dae3fe"/><stop offset="1" stop-color="#e9effd"/></linearGradient><linearGradient id="g67" x1="1456.5" y1="883.1" x2="1467.9" y2="883.1" href="#P"><stop stop-color="#dae3fe"/><stop offset="1" stop-color="#e9effd"/></linearGradient><linearGradient id="g68" x1="1441.3" y1="868.1" x2="1452.8" y2="868.1" href="#P"><stop stop-color="#dae3fe"/><stop offset="1" stop-color="#e9effd"/></linearGradient><linearGradient id="g69" x1="1426.5" y1="852.9" x2="1437.8" y2="852.9" href="#P"><stop stop-color="#dae3fe"/><stop offset="1" stop-color="#e9effd"/></linearGradient><linearGradient id="g70" x1="1411.7" y1="837.6" x2="1423.1" y2="837.6" href="#P"><stop stop-color="#dae3fe"/><stop offset="1" stop-color="#e9effd"/></linearGradient><linearGradient id="g71" x1="1397.1" y1="822.1" x2="1408.4" y2="822.1" href="#P"><stop stop-color="#dae3fe"/><stop offset="1" stop-color="#e9effd"/></linearGradient><linearGradient id="g72" x1="1382.6" y1="806.6" x2="1393.9" y2="806.6" href="#P"><stop stop-color="#dae3fe"/><stop offset="1" stop-color="#e9effd"/></linearGradient><linearGradient id="g73" x1="1368.1" y1="790.9" x2="1379.5" y2="790.9" href="#P"><stop stop-color="#dae3fe"/><stop offset="1" stop-color="#e9effd"/></linearGradient><linearGradient id="g74" x1="1353.6" y1="775.3" x2="1365" y2="775.3" href="#P"><stop stop-color="#dae3fe"/><stop offset="1" stop-color="#e9effd"/></linearGradient><linearGradient id="g75" x1="1339.1" y1="759.8" x2="1350.6" y2="759.8" href="#P"><stop stop-color="#dae3fe"/><stop offset="1" stop-color="#e9effd"/></linearGradient><linearGradient id="g76" x1="1324.5" y1="744.3" x2="1336" y2="744.3" href="#P"><stop stop-color="#dae3fe"/><stop offset="1" stop-color="#e9effd"/></linearGradient><linearGradient id="g77" x1="1309.8" y1="728.9" x2="1321.4" y2="728.9" href="#P"><stop stop-color="#dae3fe"/><stop offset="1" stop-color="#e9effd"/></linearGradient><linearGradient id="g78" x1="1294.9" y1="713.7" x2="1306.6" y2="713.7" href="#P"><stop stop-color="#dae3fe"/><stop offset="1" stop-color="#e9effd"/></linearGradient><linearGradient id="g79" x1="1279.8" y1="698.7" x2="1291.7" y2="698.7" href="#P"><stop stop-color="#dae3fe"/><stop offset="1" stop-color="#e9effd"/></linearGradient><linearGradient id="g80" x1="1264.6" y1="683.9" x2="1276.5" y2="683.9" href="#P"><stop stop-color="#dae3fe"/><stop offset="1" stop-color="#e9effd"/></linearGradient><linearGradient id="g81" x1="1249" y1="669.4" x2="1261" y2="669.4" href="#P"><stop stop-color="#dae3fe"/><stop offset="1" stop-color="#e9effd"/></linearGradient><linearGradient id="g82" x1="1233.2" y1="655.2" x2="1245.2" y2="655.2" href="#P"><stop stop-color="#dae3fe"/><stop offset="1" stop-color="#e9effd"/></linearGradient><linearGradient id="g83" x1="1217.1" y1="641.5" x2="1229.1" y2="641.5" href="#P"><stop stop-color="#dae3fe"/><stop offset="1" stop-color="#e9effd"/></linearGradient><linearGradient id="g84" x1="1200.6" y1="628.2" x2="1212.7" y2="628.2" href="#P"><stop stop-color="#dae3fe"/><stop offset="1" stop-color="#e9effd"/></linearGradient><linearGradient id="g85" x1="1183.7" y1="615.3" x2="1195.9" y2="615.3" href="#P"><stop stop-color="#dae3fe"/><stop offset="1" stop-color="#e9effd"/></linearGradient><linearGradient id="g86" x1="1166.5" y1="603" x2="1178.7" y2="603" href="#P"><stop stop-color="#dae3fe"/><stop offset="1" stop-color="#e9effd"/></linearGradient><linearGradient id="g87" x1="1148.8" y1="591.3" x2="1161" y2="591.3" href="#P"><stop stop-color="#dae3fe"/><stop offset="1" stop-color="#e9effd"/></linearGradient><linearGradient id="g88" x1="1130.7" y1="580.2" x2="1143" y2="580.2" href="#P"><stop stop-color="#dae3fe"/><stop offset="1" stop-color="#e9effd"/></linearGradient><linearGradient id="g89" x1="1112.1" y1="569.8" x2="1124.6" y2="569.8" href="#P"><stop stop-color="#dae3fe"/><stop offset="1" stop-color="#e9effd"/></linearGradient><linearGradient id="g90" x1="1093.2" y1="560.2" x2="1105.8" y2="560.2" href="#P"><stop stop-color="#dae3fe"/><stop offset="1" stop-color="#e9effd"/></linearGradient><linearGradient id="g91" x1="1074" y1="551.1" x2="1086.6" y2="551.1" href="#P"><stop stop-color="#dae3fe"/><stop offset="1" stop-color="#e9effd"/></linearGradient><linearGradient id="g92" x1="1054.5" y1="542.8" x2="1067.2" y2="542.8" href="#P"><stop stop-color="#dae3fe"/><stop offset="1" stop-color="#e9effd"/></linearGradient><linearGradient id="g93" x1="1034.6" y1="535.2" x2="1047.4" y2="535.2" href="#P"><stop stop-color="#dae3fe"/><stop offset="1" stop-color="#e9effd"/></linearGradient><linearGradient id="g94" x1="1014.5" y1="528.3" x2="1027.4" y2="528.3" href="#P"><stop stop-color="#dae3fe"/><stop offset="1" stop-color="#e9effd"/></linearGradient><linearGradient id="g95" x1="994.2" y1="522.1" x2="1007.2" y2="522.1" href="#P"><stop stop-color="#dae3fe"/><stop offset="1" stop-color="#e9effd"/></linearGradient><linearGradient id="g96" x1="973.6" y1="516.6" x2="986.7" y2="516.6" href="#P"><stop stop-color="#dae3fe"/><stop offset="1" stop-color="#e9effd"/></linearGradient><linearGradient id="g97" x1="952.9" y1="511.9" x2="966.1" y2="511.9" href="#P"><stop stop-color="#dae3fe"/><stop offset="1" stop-color="#e9effd"/></linearGradient><linearGradient id="g98" x1="932" y1="507.8" x2="945.3" y2="507.8" href="#P"><stop stop-color="#dae3fe"/><stop offset="1" stop-color="#e9effd"/></linearGradient><linearGradient id="g99" x1="911" y1="504.6" x2="924.3" y2="504.6" href="#P"><stop stop-color="#dae3fe"/><stop offset="1" stop-color="#e9effd"/></linearGradient><linearGradient id="g100" x1="889.8" y1="502" x2="903.3" y2="502" href="#P"><stop stop-color="#dae3fe"/><stop offset="1" stop-color="#e9effd"/></linearGradient><linearGradient id="g101" x1="868.6" y1="500.2" x2="882.2" y2="500.2" href="#P"><stop stop-color="#dae3fe"/><stop offset="1" stop-color="#e9effd"/></linearGradient><linearGradient id="g102" x1="847.3" y1="499.1" x2="861" y2="499.1" href="#P"><stop stop-color="#dae3fe"/><stop offset="1" stop-color="#e9effd"/></linearGradient><linearGradient id="g103" x1="826" y1="498.8" x2="839.8" y2="498.8" href="#P"><stop stop-color="#dae3fe"/><stop offset="1" stop-color="#e9effd"/></linearGradient><linearGradient id="g104" x1="804.8" y1="499.1" x2="818.5" y2="499.1" href="#P"><stop stop-color="#dae3fe"/><stop offset="1" stop-color="#e9effd"/></linearGradient><linearGradient id="g105" x1="783.7" y1="500.2" x2="797.2" y2="500.2" href="#P"><stop stop-color="#dae3fe"/><stop offset="1" stop-color="#e9effd"/></linearGradient><linearGradient id="g106" x1="762.6" y1="502" x2="775.9" y2="502" href="#P"><stop stop-color="#dae3fe"/><stop offset="1" stop-color="#e9effd"/></linearGradient><linearGradient id="g107" x1="741.6" y1="504.6" x2="754.8" y2="504.6" href="#P"><stop stop-color="#dae3fe"/><stop offset="1" stop-color="#e9effd"/></linearGradient><linearGradient id="g108" x1="720.8" y1="508" x2="733.7" y2="508" href="#P"><stop stop-color="#dae3fe"/><stop offset="1" stop-color="#e9effd"/></linearGradient><linearGradient id="g109" x1="700.1" y1="512.3" x2="712.8" y2="512.3" href="#P"><stop stop-color="#dae3fe"/><stop offset="1" stop-color="#e9effd"/></linearGradient><linearGradient id="g110" x1="679.6" y1="517.5" x2="692.2" y2="517.5" href="#P"><stop stop-color="#dae3fe"/><stop offset="1" stop-color="#e9effd"/></linearGradient><linearGradient id="g111" x1="659.4" y1="523.7" x2="671.8" y2="523.7" href="#P"><stop stop-color="#dae3fe"/><stop offset="1" stop-color="#e9effd"/></linearGradient><linearGradient id="g112" x1="639.6" y1="530.9" x2="651.7" y2="530.9" href="#P"><stop stop-color="#dae3fe"/><stop offset="1" stop-color="#e9effd"/></linearGradient><linearGradient id="g113" x1="620.3" y1="539.3" x2="632.1" y2="539.3" href="#P"><stop stop-color="#dae3fe"/><stop offset="1" stop-color="#e9effd"/></linearGradient><linearGradient id="g114" x1="601.5" y1="548.8" x2="613" y2="548.8" href="#P"><stop stop-color="#dae3fe"/><stop offset="1" stop-color="#e9effd"/></linearGradient><linearGradient id="g115" x1="583.4" y1="559.6" x2="594.7" y2="559.6" href="#P"><stop stop-color="#dae3fe"/><stop offset="1" stop-color="#e9effd"/></linearGradient><linearGradient id="g116" x1="566.2" y1="571.6" x2="577.1" y2="571.6" href="#P"><stop stop-color="#dae3fe"/><stop offset="1" stop-color="#e9effd"/></linearGradient><linearGradient id="g117" x1="550" y1="585" x2="560.6" y2="585" href="#P"><stop stop-color="#dae3fe"/><stop offset="1" stop-color="#e9effd"/></linearGradient><linearGradient id="g118" x1="535" y1="599.7" x2="545.2" y2="599.7" href="#P"><stop stop-color="#dae3fe"/><stop offset="1" stop-color="#e9effd"/></linearGradient><linearGradient id="g119" x1="521.6" y1="615.8" x2="531.1" y2="615.8" href="#P"><stop stop-color="#dae3fe"/><stop offset="1" stop-color="#e9effd"/></linearGradient><linearGradient id="g120" x1="509.8" y1="633.1" x2="518.7" y2="633.1" href="#P"><stop stop-color="#dae3fe"/><stop offset="1" stop-color="#e9effd"/></linearGradient><linearGradient id="g121" x1="499.8" y1="651.6" x2="508.1" y2="651.6" href="#P"><stop stop-color="#dae3fe"/><stop offset="1" stop-color="#e9effd"/></linearGradient><linearGradient id="g122" x1="491.7" y1="671" x2="499.3" y2="671" href="#P"><stop stop-color="#dae3fe"/><stop offset="1" stop-color="#e9effd"/></linearGradient><linearGradient id="g123" x1="485.3" y1="691.1" x2="492.4" y2="691.1" href="#P"><stop stop-color="#dae3fe"/><stop offset="1" stop-color="#e9effd"/></linearGradient><linearGradient id="g124" x1="480.7" y1="711.7" x2="487.3" y2="711.7" href="#P"><stop stop-color="#dae3fe"/><stop offset="1" stop-color="#e9effd"/></linearGradient><linearGradient id="g125" x1="477.9" y1="732.7" x2="484.1" y2="732.7" href="#P"><stop stop-color="#dae3fe"/><stop offset="1" stop-color="#e9effd"/></linearGradient><linearGradient id="g126" x1="476.9" y1="753.9" x2="482.6" y2="753.9" href="#P"><stop stop-color="#dae3fe"/><stop offset="1" stop-color="#e9effd"/></linearGradient><linearGradient id="g127" x1="477.4" y1="775.3" x2="483.2" y2="775.3" href="#P"><stop stop-color="#dae3fe"/><stop offset="1" stop-color="#e9effd"/></linearGradient><linearGradient id="g128" x1="479.6" y1="796.5" x2="485.7" y2="796.5" href="#P"><stop stop-color="#dae3fe"/><stop offset="1" stop-color="#e9effd"/></linearGradient><linearGradient id="g129" x1="483.6" y1="817.5" x2="490" y2="817.5" href="#P"><stop stop-color="#dae3fe"/><stop offset="1" stop-color="#e9effd"/></linearGradient><linearGradient id="g130" x1="489.3" y1="838" x2="496.1" y2="838" href="#P"><stop stop-color="#dae3fe"/><stop offset="1" stop-color="#e9effd"/></linearGradient><linearGradient id="g131" x1="496.8" y1="858" x2="504" y2="858" href="#P"><stop stop-color="#dae3fe"/><stop offset="1" stop-color="#e9effd"/></linearGradient><linearGradient id="g132" x1="506" y1="877.2" x2="513.6" y2="877.2" href="#P"><stop stop-color="#dae3fe"/><stop offset="1" stop-color="#e9effd"/></linearGradient><linearGradient id="g133" x1="517.1" y1="895.4" x2="525.1" y2="895.4" href="#P"><stop stop-color="#dae3fe"/><stop offset="1" stop-color="#e9effd"/></linearGradient><linearGradient id="g134" x1="529.8" y1="912.5" x2="538.3" y2="912.5" href="#P"><stop stop-color="#dae3fe"/><stop offset="1" stop-color="#e9effd"/></linearGradient><linearGradient id="g135" x1="544.2" y1="928.2" x2="553.1" y2="928.2" href="#P"><stop stop-color="#dae3fe"/><stop offset="1" stop-color="#e9effd"/></linearGradient><linearGradient id="g136" x1="560.3" y1="942.4" x2="569.3" y2="942.4" href="#P"><stop stop-color="#dae3fe"/><stop offset="1" stop-color="#e9effd"/></linearGradient><linearGradient id="g137" x1="577.6" y1="955" x2="586.8" y2="955" href="#P"><stop stop-color="#dae3fe"/><stop offset="1" stop-color="#e9effd"/></linearGradient><linearGradient id="g138" x1="596" y1="965.9" x2="605.3" y2="965.9" href="#P"><stop stop-color="#dae3fe"/><stop offset="1" stop-color="#e9effd"/></linearGradient><linearGradient id="g139" x1="615.3" y1="975" x2="624.7" y2="975" href="#P"><stop stop-color="#dae3fe"/><stop offset="1" stop-color="#e9effd"/></linearGradient><linearGradient id="g140" x1="635.3" y1="982.4" x2="644.8" y2="982.4" href="#P"><stop stop-color="#dae3fe"/><stop offset="1" stop-color="#e9effd"/></linearGradient><linearGradient id="g141" x1="655.8" y1="988" x2="665.4" y2="988" href="#P"><stop stop-color="#dae3fe"/><stop offset="1" stop-color="#e9effd"/></linearGradient><linearGradient id="g142" x1="676.7" y1="991.8" x2="686.4" y2="991.8" href="#P"><stop stop-color="#dae3fe"/><stop offset="1" stop-color="#e9effd"/></linearGradient><linearGradient id="g143" x1="697.9" y1="993.9" x2="707.6" y2="993.9" href="#P"><stop stop-color="#dae3fe"/><stop offset="1" stop-color="#e9effd"/></linearGradient><linearGradient id="g144" x1="719.2" y1="994" x2="728.7" y2="994" href="#P"><stop stop-color="#dae3fe"/><stop offset="1" stop-color="#e9effd"/></linearGradient><linearGradient id="g145" x1="740.6" y1="992" x2="749.7" y2="992" href="#P"><stop stop-color="#dae3fe"/><stop offset="1" stop-color="#e9effd"/></linearGradient><linearGradient id="g146" x1="761.7" y1="988.2" x2="770.5" y2="988.2" href="#P"><stop stop-color="#dae3fe"/><stop offset="1" stop-color="#e9effd"/></linearGradient><linearGradient id="g147" x1="782.4" y1="982.4" x2="790.8" y2="982.4" href="#P"><stop stop-color="#dae3fe"/><stop offset="1" stop-color="#e9effd"/></linearGradient><linearGradient id="g148" x1="802.5" y1="974.8" x2="810.5" y2="974.8" href="#P"><stop stop-color="#dae3fe"/><stop offset="1" stop-color="#e9effd"/></linearGradient><linearGradient id="g149" x1="821.8" y1="965.3" x2="829.4" y2="965.3" href="#P"><stop stop-color="#dae3fe"/><stop offset="1" stop-color="#e9effd"/></linearGradient><linearGradient id="g150" x1="840.1" y1="954.8" x2="846.1" y2="954.8" href="#P"><stop stop-color="#dae3fe"/><stop offset="1" stop-color="#e9effd"/></linearGradient><linearGradient id="g151" x1="1975.9" y1="791.1" x2="2111.6" y2="1358.6" href="#P"><stop stop-color="#4042e2"/><stop offset="1" stop-color="#4f52ff"/></linearGradient><linearGradient id="g152" x1="2084.1" y1="1580.9" x2="2086.3" y2="1512.8" href="#P"><stop stop-color="#4042e2"/><stop offset="1" stop-color="#4f52ff"/></linearGradient><linearGradient id="g153" x1="2183.1" y1="1427.6" x2="2067.8" y2="1518.2" href="#P"><stop stop-color="#09005d"/><stop offset="1" stop-color="#1a0f91"/></linearGradient><linearGradient id="g154" x1="2092.1" y1="1409.7" x2="2099.8" y2="1477.1" href="#P"><stop stop-color="#ff928e"/><stop offset="1" stop-color="#feb3b1"/></linearGradient><linearGradient id="g155" x1="1958.3" y1="1456.4" x2="2096.3" y2="1564.8" href="#P"><stop stop-color="#09005d"/><stop offset="1" stop-color="#1a0f91"/></linearGradient><linearGradient id="g156" x1="2040.6" y1="1623.9" x2="2038.3" y2="1555.4" href="#P"><stop stop-color="#4042e2"/><stop offset="1" stop-color="#4f52ff"/></linearGradient><linearGradient id="g157" x1="2011" y1="1418.2" x2="2018.2" y2="1481" href="#P"><stop stop-color="#ff928e"/><stop offset="1" stop-color="#feb3b1"/></linearGradient><linearGradient id="g158" x1="2121.1" y1="1413" x2="2112.4" y2="1140.2" href="#P"><stop stop-color="#09005d"/><stop offset="1" stop-color="#1a0f91"/></linearGradient><linearGradient id="g159" x1="2087.5" y1="784.5" x2="2216" y2="1322.3" href="#P"><stop stop-color="#4042e2"/><stop offset="1" stop-color="#4f52ff"/></linearGradient><linearGradient id="g160" x1="2100.6" y1="938.1" x2="2098.7" y2="1020.6" href="#P"><stop stop-color="#ff928e"/><stop offset="1" stop-color="#feb3b1"/></linearGradient><linearGradient id="g161" x1="2107.1" y1="743.6" x2="2244.2" y2="1317.1" href="#P"><stop stop-color="#4042e2"/><stop offset="1" stop-color="#4f52ff"/></linearGradient><linearGradient id="g162" x1="2083.6" y1="1169.6" x2="2132.5" y2="1211.4" href="#P"><stop stop-color="#ff928e"/><stop offset="1" stop-color="#feb3b1"/></linearGradient><linearGradient id="g163" x1="1977.1" y1="1006.6" x2="1946.5" y2="1029.4" href="#P"><stop stop-color="#09005d"/><stop offset="1" stop-color="#1a0f91"/></linearGradient><linearGradient id="g164" x1="1935.4" y1="970.4" x2="1937.2" y2="999.8" href="#P"><stop stop-color="#ff928e"/><stop offset="1" stop-color="#feb3b1"/></linearGradient><linearGradient id="g165" x1="2139.5" y1="961" x2="2049.8" y2="984.3" href="#P"><stop stop-color="#ff928e"/><stop offset="1" stop-color="#feb3b1"/></linearGradient><linearGradient id="g166" x1="2098.8" y1="913" x2="2037.6" y2="903.1" href="#P"><stop stop-color="#09005d"/><stop offset="1" stop-color="#1a0f91"/></linearGradient><linearGradient id="g167" x1="2125.7" y1="983.5" x2="2098.5" y2="944.8" href="#P"><stop stop-color="#ff928e"/><stop offset="1" stop-color="#feb3b1"/></linearGradient><linearGradient id="g168" x1="1531.7" y1="966.9" x2="1556.9" y2="966.9" href="#P"><stop stop-color="#dae3fe"/><stop offset="1" stop-color="#e9effd"/></linearGradient><linearGradient id="g169" x1="1520.7" y1="997.5" x2="1567.8" y2="997.5" href="#P"><stop stop-color="#dae3fe"/><stop offset="1" stop-color="#e9effd"/></linearGradient><linearGradient id="g170" x1="1602.5" y1="997.4" x2="1842.7" y2="997.4" href="#P"><stop stop-color="#dae3fe"/><stop offset="1" stop-color="#e9effd"/></linearGradient><linearGradient id="g171" x1="1605" y1="1021.5" x2="1736.2" y2="1021.5" href="#P"><stop stop-color="#dae3fe"/><stop offset="1" stop-color="#e9effd"/></linearGradient><linearGradient id="g172" x1="1744.4" y1="1021.5" x2="1842.8" y2="1021.5" href="#P"><stop stop-color="#dae3fe"/><stop offset="1" stop-color="#e9effd"/></linearGradient><linearGradient id="g173" x1="839.5" y1="932.5" x2="841.4" y2="1453.2" href="#P"><stop stop-color="#09005d"/><stop offset="1" stop-color="#1a0f91"/></linearGradient><linearGradient id="g174" x1="448.9" y1="1211.2" x2="1038.8" y2="2001.1" href="#P"><stop stop-color="#4042e2"/><stop offset="1" stop-color="#4f52ff"/></linearGradient><linearGradient id="g175" x1="666" y1="981.6" x2="721.7" y2="981.6" href="#P"><stop stop-color="#4042e2"/><stop offset="1" stop-color="#4f52ff"/></linearGradient><linearGradient id="g176" x1="593.5" y1="1091.8" x2="784.3" y2="1091.8" href="#P"><stop stop-color="#dae3fe"/><stop offset="1" stop-color="#e9effd"/></linearGradient><linearGradient id="g177" x1="633.4" y1="1137.3" x2="747.4" y2="1137.3" href="#P"><stop stop-color="#4042e2"/><stop offset="1" stop-color="#4f52ff"/></linearGradient><linearGradient id="g178" x1="546" y1="1339.7" x2="576.4" y2="1339.7" href="#P"><stop stop-color="#4042e2"/><stop offset="1" stop-color="#4f52ff"/></linearGradient><linearGradient id="g179" x1="501.4" y1="1438.9" x2="313.1" y2="1643.7" href="#P"><stop stop-color="#09005d"/><stop offset="1" stop-color="#1a0f91"/></linearGradient><linearGradient id="g180" x1="413.4" y1="1419.5" x2="430.4" y2="1419.5" href="#P"><stop stop-color="#ff928e"/><stop offset="1" stop-color="#feb3b1"/></linearGradient><linearGradient id="g181" x1="328.8" y1="1407.2" x2="362" y2="1214.8" href="#P"><stop stop-color="#09005d"/><stop offset="1" stop-color="#1a0f91"/></linearGradient><linearGradient id="g182" x1="446.4" y1="1387.7" x2="256.1" y2="1594.6" href="#P"><stop stop-color="#09005d"/><stop offset="1" stop-color="#1a0f91"/></linearGradient><linearGradient id="g183" x1="352.4" y1="1415.8" x2="367.1" y2="1415.8" href="#P"><stop stop-color="#ff928e"/><stop offset="1" stop-color="#feb3b1"/></linearGradient><linearGradient id="g184" x1="311.9" y1="1400.5" x2="349.2" y2="1183.5" href="#P"><stop stop-color="#09005d"/><stop offset="1" stop-color="#1a0f91"/></linearGradient><linearGradient id="g185" x1="259" y1="1495.6" x2="119.5" y2="1753.3" href="#P"><stop stop-color="#fe7062"/><stop offset="1" stop-color="#ff928e"/></linearGradient><linearGradient id="g186" x1="483.1" y1="935.5" x2="569.6" y2="935.5" href="#P"><stop stop-color="#ff928e"/><stop offset="1" stop-color="#feb3b1"/></linearGradient><linearGradient id="g187" x1="541.2" y1="965.1" x2="485.5" y2="1091.9" href="#P"><stop stop-color="#ff928e"/><stop offset="1" stop-color="#feb3b1"/></linearGradient><linearGradient id="g188" x1="494.1" y1="1003.4" x2="612.2" y2="868.4" href="#P"><stop stop-color="#ff928e"/><stop offset="1" stop-color="#feb3b1"/></linearGradient><linearGradient id="g189" x1="148.6" y1="1457.5" x2="4.6" y2="1723.5" href="#P"><stop stop-color="#fe7062"/><stop offset="1" stop-color="#ff928e"/></linearGradient><linearGradient id="g190" x1="419.4" y1="991.8" x2="403" y2="1115.6" href="#P"><stop stop-color="#ff928e"/><stop offset="1" stop-color="#feb3b1"/></linearGradient><linearGradient id="g191" x1="3461.8" y1="2057.6" x2="3347.3" y2="2016.2" href="#P"><stop stop-color="#ff928e"/><stop offset="1" stop-color="#feb3b1"/></linearGradient><linearGradient id="g192" x1="323.1" y1="-2883.6" x2="321.5" y2="-3057.6" href="#P"><stop stop-color="#09005d"/><stop offset="1" stop-color="#1a0f91"/></linearGradient><linearGradient id="g193" x1="3425" y1="1728.6" x2="3312" y2="1687.8" href="#P"><stop stop-color="#ff928e"/><stop offset="1" stop-color="#feb3b1"/></linearGradient><linearGradient id="g194" x1="347.4" y1="1204" x2="283.9" y2="1153.2" href="#P"><stop stop-color="#ff928e"/><stop offset="1" stop-color="#feb3b1"/></linearGradient><linearGradient id="g195" x1="390.9" y1="1171.5" x2="360.3" y2="1194.4" href="#P"><stop stop-color="#09005d"/><stop offset="1" stop-color="#1a0f91"/></linearGradient><linearGradient id="g196" x1="366.2" y1="1157.3" x2="351.8" y2="1168" href="#P"><stop stop-color="#ff928e"/><stop offset="1" stop-color="#feb3b1"/></linearGradient></defs><style>.a{fill:#fff}.b{fill:url(#g1)}.c{fill:#91b3fa}.d{fill:#7d97f4}.e{fill:#bdd0fb}.f{fill:#dce5fe}.g{fill:#f0f0f0}.h{fill:url(#g2)}.i{fill:url(#g3)}.j{fill:url(#g4)}.k{fill:url(#g5)}.l{fill:url(#g6)}.m{fill:url(#g7)}.n{fill:url(#g8)}.o{fill:url(#g9)}.p{fill:url(#g10)}.q{fill:url(#g11)}.r{fill:url(#g12)}.s{fill:url(#g13)}.t{fill:url(#g14)}.u{fill:url(#g15)}.v{fill:url(#g16)}.w{fill:url(#g17)}.x{fill:url(#g18)}.y{fill:url(#g19)}.z{fill:url(#g20)}.A{fill:url(#g21)}.B{fill:url(#g22)}.C{fill:url(#g23)}.D{fill:url(#g24)}.E{fill:url(#g25)}.F{fill:url(#g26)}.G{fill:url(#g27)}.H{fill:url(#g28)}.I{fill:url(#g29)}.J{fill:url(#g30)}.K{fill:url(#g31)}.L{fill:url(#g32)}.M{fill:url(#g33)}.N{fill:url(#g34)}.O{fill:url(#g35)}.P{fill:url(#g36)}.Q{fill:url(#g37)}.R{fill:url(#g38)}.S{fill:url(#g39)}.T{fill:url(#g40)}.U{fill:url(#g41)}.V{fill:url(#g42)}.W{fill:url(#g43)}.X{fill:url(#g44)}.Y{fill:url(#g45)}.Z{fill:url(#g46)}.a0{fill:url(#g47)}.a1{fill:url(#g48)}.a2{fill:url(#g49)}.a3{fill:url(#g50)}.a4{fill:url(#g51)}.a5{fill:url(#g52)}.a6{fill:url(#g53)}.a7{fill:url(#g54)}.a8{fill:url(#g55)}.a9{fill:url(#g56)}.aa{fill:url(#g57)}.ab{fill:url(#g58)}.ac{fill:url(#g59)}.ad{fill:url(#g60)}.ae{fill:url(#g61)}.af{fill:url(#g62)}.ag{fill:url(#g63)}.ah{fill:url(#g64)}.ai{fill:url(#g65)}.aj{fill:url(#g66)}.ak{fill:url(#g67)}.al{fill:url(#g68)}.am{fill:url(#g69)}.an{fill:url(#g70)}.ao{fill:url(#g71)}.ap{fill:url(#g72)}.aq{fill:url(#g73)}.ar{fill:url(#g74)}.as{fill:url(#g75)}.at{fill:url(#g76)}.au{fill:url(#g77)}.av{fill:url(#g78)}.aw{fill:url(#g79)}.ax{fill:url(#g80)}.ay{fill:url(#g81)}.az{fill:url(#g82)}.aA{fill:url(#g83)}.aB{fill:url(#g84)}.aC{fill:url(#g85)}.aD{fill:url(#g86)}.aE{fill:url(#g87)}.aF{fill:url(#g88)}.aG{fill:url(#g89)}.aH{fill:url(#g90)}.aI{fill:url(#g91)}.aJ{fill:url(#g92)}.aK{fill:url(#g93)}.aL{fill:url(#g94)}.aM{fill:url(#g95)}.aN{fill:url(#g96)}.aO{fill:url(#g97)}.aP{fill:url(#g98)}.aQ{fill:url(#g99)}.aR{fill:url(#g100)}.aS{fill:url(#g101)}.aT{fill:url(#g102)}.aU{fill:url(#g103)}.aV{fill:url(#g104)}.aW{fill:url(#g105)}.aX{fill:url(#g106)}.aY{fill:url(#g107)}.aZ{fill:url(#g108)}.b0{fill:url(#g109)}.b1{fill:url(#g110)}.b2{fill:url(#g111)}.b3{fill:url(#g112)}.b4{fill:url(#g113)}.b5{fill:url(#g114)}.b6{fill:url(#g115)}.b7{fill:url(#g116)}.b8{fill:url(#g117)}.b9{fill:url(#g118)}.ba{fill:url(#g119)}.bb{fill:url(#g120)}.bc{fill:url(#g121)}.bd{fill:url(#g122)}.be{fill:url(#g123)}.bf{fill:url(#g124)}.bg{fill:url(#g125)}.bh{fill:url(#g126)}.bi{fill:url(#g127)}.bj{fill:url(#g128)}.bk{fill:url(#g129)}.bl{fill:url(#g130)}.bm{fill:url(#g131)}.bn{fill:url(#g132)}.bo{fill:url(#g133)}.bp{fill:url(#g134)}.bq{fill:url(#g135)}.br{fill:url(#g136)}.bs{fill:url(#g137)}.bt{fill:url(#g138)}.bu{fill:url(#g139)}.bv{fill:url(#g140)}.bw{fill:url(#g141)}.bx{fill:url(#g142)}.by{fill:url(#g143)}.bz{fill:url(#g144)}.bA{fill:url(#g145)}.bB{fill:url(#g146)}.bC{fill:url(#g147)}.bD{fill:url(#g148)}.bE{fill:url(#g149)}.bF{fill:url(#g150)}.bG{fill:url(#g151)}.bH{fill:url(#g152)}.bI{fill:url(#g153)}.bJ{fill:url(#g154)}.bK{fill:url(#g155)}.bL{fill:url(#g156)}.bM{fill:url(#g157)}.bN{fill:url(#g158)}.bO{fill:url(#g159)}.bP{fill:url(#g160)}.bQ{fill:url(#g161)}.bR{fill:url(#g162)}.bS{fill:url(#g163)}.bT{fill:url(#g164)}.bU{fill:url(#g165)}.bV{fill:url(#g166)}.bW{fill:url(#g167)}.bX{fill:url(#g168)}.bY{fill:url(#g169)}.bZ{fill:url(#g170)}.c0{fill:url(#g171)}.c1{fill:url(#g172)}.c2{fill:url(#g173)}.c3{fill:url(#g174)}.c4{fill:url(#g175)}.c5{fill:url(#g176)}.c6{fill:url(#g177)}.c7{fill:url(#g178)}.c8{fill:url(#g179)}.c9{fill:url(#g180)}.ca{fill:url(#g181)}.cb{fill:url(#g182)}.cc{fill:url(#g183)}.cd{fill:url(#g184)}.ce{fill:url(#g185)}.cf{fill:url(#g186)}.cg{fill:url(#g187)}.ch{fill:url(#g188)}.ci{fill:url(#g189)}.cj{fill:url(#g190)}.ck{fill:url(#g191)}.cl{fill:url(#g192)}.cm{fill:url(#g193)}.cn{fill:url(#g194)}.co{fill:url(#g195)}.cp{fill:url(#g196)}</style><g style="display:none"><path class="a" d="m2475 1650h-2475v-1650h2475z"/></g><path class="b" d="m116.5 673.5c-7-93.6 54.5-187 111.4-257.9 58.7-73.1 147.4-106.5 241.2-87.7 90.6 18.2 177.8 75 273.2 46.5 90.1-26.8 129-118.3 209.3-159.5 86.4-44.2 203.3-50.4 298.4-37.5 210.9 28.6 341 233.6 570.2 172.2 81.6-21.9 159.4-67.7 246.7-62.7 83.5 4.8 156.2 56.2 210.3 114.4 51.3 55.1 90.6 123.2 80.1 199.5-16.7 120.9-145.6 191.9-138.5 321.2 5.4 97.7 63.1 189.1 41.7 288.3-34.6 160.2-206.2 190.8-349.6 162.6-130.6-25.7-257.8-79.9-393-77.1-132.3 2.8-257.9 49-383.4 84.3-180.8 50.9-368.2 62.9-555.7 54.9-111.4-4.8-263.6-36.1-300.2-152.9-42.1-134.1 53.7-279.7-38.3-404.1-31.9-43.1-73.3-81.8-99.3-127.8-13.1-23.2-22.3-48.3-24.5-76.7z"/><path class="c" d="m714.8 1406.9c-55.9 11.2-127.3-49.8-150.3-116.4-23.6-68.5 19.8-97.2 19.4-192.3-0.4-108-56.6-124.3-93.7-269.9-8.4-32.9-56.9-223 3.2-258.6 55.6-33 211.8 61.6 239.2 182.6 19.5 86.3-40.8 122.6-17.8 223.1 20.3 88.2 73.4 89.4 93.8 174.5 24.8 103.6-20.3 242.3-93.8 257z"/><path class="d" d="m706 1432.5c15-115.7-14.4-294.7-41.6-424.5-29.5-140.7-63.1-255.5-63.4-256.6l4.6-1.4c0.4 1.2 34 116.1 63.5 257 27.3 130.1 56.8 309.7 41.7 426.1z"/><path class="e" d="m392.1 1234.1c0.2-48.9 50.7-72 40.3-122.5-9-43.5-50.5-45.8-77.7-92.6-41.7-71.9-16-191.5 32.9-207.6 46.6-15.4 126.5 59.7 159.8 138.9 39.1 93.2 2.5 165 52.3 203.2 38.9 29.8 79.3-0.5 107.5 28.3 41.7 42.7 16.6 173.9-56.7 212.1-97.1 50.6-258.9-71.9-258.4-159.8z"/><path class="c" d="m608.2 1425.8c-97.7-201.2-126.3-434.6-126.6-437-0.2-1.6 1-3.1 2.6-3.3 1.7-0.2 3.1 1 3.3 2.6 0.3 2.4 28.8 234.8 126.1 435.1 0.7 1.5 0.1 3.3-1.4 4q-0.7 0.3-1.3 0.3c-1.1 0-2.2-0.6-2.7-1.7z"/><path class="f" d="m410.3 1047.8c-56.3-72.3-59.9-126.5-53-159.2 7.5-35.6 28-53.8 28.9-54.5 0.6-0.5 1.5-0.5 2 0.1 0.5 0.6 0.5 1.5-0.1 2-0.2 0.2-20.8 18.3-28 53-12.3 58.2 21.7 117.4 52.4 156.8 0.5 0.6 0.4 1.5-0.2 2q-0.4 0.3-0.9 0.3c-0.4 0-0.9-0.2-1.1-0.5z"/><path class="g" d="m656.3 1376.2c-0.7-0.5-0.9-1.4-0.4-2 46.5-68 62.5-120.2 47.5-155.3-13.1-30.6-46.2-36.4-46.6-36.4-0.7-0.2-1.3-0.9-1.1-1.7 0.1-0.8 0.8-1.3 1.6-1.2 0.3 0.1 35 6.1 48.7 38.1 15.5 36.1-0.6 89.3-47.8 158.1-0.2 0.4-0.7 0.6-1.1 0.6q-0.5 0-0.8-0.2z"/><path class="c" d="m1678.4 1149.9c20.4-85.1 73.6-86.3 93.8-174.5 23-100.5-37.3-136.8-17.8-223.1 27.4-121 183.6-215.6 239.2-182.6 60.2 35.6 11.6 225.7 3.3 258.6-37.2 145.6-93.4 161.9-93.8 269.9-0.3 95.1 43.1 123.8 19.4 192.3-23 66.6-94.4 127.6-150.3 116.4-73.4-14.7-118.5-153.4-93.8-257z"/><path class="d" d="m1776.2 1433.1c-15-116.4 14.4-296 41.7-426.1 29.6-140.9 63.1-255.8 63.5-257l4.6 1.4c-0.3 1.1-33.8 115.9-63.4 256.6-27.2 129.8-56.5 308.8-41.5 424.5z"/><path class="e" d="m1836.6 1393.9c-73.4-38.2-98.5-169.4-56.8-212.1 28.2-28.8 68.6 1.5 107.6-28.3 49.7-38.2 13.1-110 52.2-203.2 33.3-79.2 113.2-154.3 159.8-138.9 48.9 16.1 74.6 135.7 32.9 207.6-27.1 46.8-68.7 49.1-77.7 92.6-10.4 50.5 40.1 73.6 40.4 122.5 0.5 87.9-161.4 210.4-258.4 159.8z"/><path class="c" d="m1876.2 1427.5q-0.7 0-1.3-0.3c-1.5-0.7-2.1-2.5-1.4-4 97.2-200.3 125.7-432.7 126-435.1 0.2-1.6 1.7-2.8 3.3-2.6 1.6 0.2 2.8 1.7 2.6 3.3-0.3 2.4-28.9 235.8-126.6 437-0.5 1.1-1.5 1.7-2.6 1.7z"/><path class="f" d="m2075.6 1048.3q-0.4 0-0.8-0.3c-0.7-0.5-0.8-1.4-0.3-2 30.7-39.4 64.7-98.6 52.5-156.8-7.3-34.7-27.8-52.8-28.1-53-0.5-0.5-0.6-1.4-0.1-2 0.5-0.6 1.4-0.6 2-0.1 0.9 0.7 21.5 18.9 29 54.5 6.9 32.7 3.2 86.9-53 159.2-0.3 0.3-0.7 0.5-1.2 0.5z"/><path class="g" d="m1830 1376.4c-0.5 0-0.9-0.2-1.2-0.6-47.2-68.8-63.3-122-47.8-158.1 13.7-32 48.4-38 48.7-38.1 0.8-0.1 1.5 0.4 1.7 1.2 0.1 0.8-0.4 1.5-1.2 1.7-0.3 0-33.5 5.8-46.6 36.4-15 35.1 1 87.3 47.5 155.3 0.5 0.6 0.3 1.5-0.3 2q-0.4 0.2-0.8 0.2z"/><path class="h" d="m1841.1 724.7v613.4c0 45.2-39.7 81.8-88.6 81.8h-1030c-48.9 0-88.6-36.6-88.6-81.8v-613.4z"/><path class="i" d="m1842.3 725l-302.4 182.2-302.4 182.7-302.4-182.5-302.4-182.4 302.4-183 261.8-158.4c25.5-15.4 55.7-15.4 81.2 0.1l261.8 158.4z"/><g style="mix-blend-mode:soft-light"><path class="a" d="m657.6 1393.4c-0.5 0-1-0.2-1.4-0.6-0.9-0.7-1-2.1-0.2-3l377.2-424.3c0.7-0.9 2.1-1 3-0.2 0.8 0.8 0.9 2.1 0.1 3l-377.2 424.4c-0.4 0.4-1 0.7-1.5 0.7z"/><path class="a" d="m1817.4 1393.4c-0.5 0-1.1-0.3-1.5-0.7l-377.2-424.4c-0.8-0.9-0.7-2.2 0.1-3 0.9-0.8 2.3-0.7 3 0.2l377.2 424.3c0.8 0.9 0.7 2.3-0.2 3-0.4 0.4-0.9 0.6-1.4 0.6z"/></g><path class="j" d="m1635.4 1103.4c0 0-12.4-14.9 4.5-24.1 16.9-9.2 43.4 0.9 46.8 20.4 3.4 19.6 20.2 8 27.5 3.7 7.3-4.3 27.8-10.1 33 12.2 2 8.8-0.6 20.1 3.2 28.3 5.3 11.3 22.5 8.4 31.9 12.7 12.2 5.7 18.5 16.5 12.2 29.2-9.8 19.6-29 32-18.6 49 10.4 17-31.5 55.2-45.8 19.8-14.4-35.5-36.7-29.5-54.7-31.7-18-2.2-27.2-17.8-22.3-33.7 4.9-15.9-1.5-25.4-8.2-32.1-6.8-6.7-29.4-35.7-9.5-53.7z"/><path class="k" d="m1641.9 1335l-32.8 1.6c0 0 11.4 12.2 10.8 29.9l0.7 39.7c0.1 4.7 3.2 8.9 7.8 10.4l5.8 1.8-13.7 37h-20.5l7.9-7.5 4.4-20c0.5-2.7 0.2-5.5-1.2-7.9-24.7-45.7-32.2-92.5-34-107-0.4-2.8 0.9-5.6 3.3-7.2 15.3-10.2 28.8-12.3 28.8-12.3z"/><path class="l" d="m1602.4 1452.2c0 0 9.8 3.2 15.3-0.3 5.5-3.6 10.7-35.3 10.7-35.3 9-0.7 10.2 2.1 10.2 2.1 0 13.8-15.4 40.7-15.4 40.7-11.1 5.3-33.1 2.1-31.3-0.4 2.8-3.6 10.5-6.8 10.5-6.8z"/><path class="m" d="m1637.7 1337.2c-0.1-0.3-35.3-4.3-35.3-4.3 0 0 1.2 10.7-2.4 25.4-3.6 14.7-55.2 78.5-55.2 78.5l5.4 17.2c-16.8 5.8-33.2 6.7-49.4 2.9l33.5-20.1c0 0 31.4-107 50.6-126.1l35.3-12.1z"/><path class="n" d="m1716.6 1274.9c0 0 20.2 30.1 21.9 43.9 1.7 13.7-5.5 19.3-26.8 20.2-21.2 0.9-78 0.9-78 0.9l-48.4-41.3c0 0 35.3-12.6 44.5-16.2 9.1-3.6 86.8-7.5 86.8-7.5z"/><path class="o" d="m1548.1 1448.2c0 0 5.9 5.6 1.9 11.9 0 0-46.1 8.2-58.7 4.5 0 0 2.6-6 16.7-12.7l-1 0.8c-1.3 1-0.5 3.1 1.1 3 9.3-0.5 28.6-2.2 40-7.5z"/><path class="p" d="m1661.8 1270.9c0 0-23.6-22.4-35.2-37.3-6.3-8.1-8.2-18.6-5.3-28.4 5.3-17.9 14.7-36.4 15.6-39.3 1.3-4.4 27.7-4.2 27.7-4.2 0 0 52.1 33.8 72.5 91l-23 7.2c0 0-13.5-22.8-27-37.3 0 0 23.3 30.7 24.1 43.2z"/><path class="q" d="m1651.7 1137.7l11.7 24.4c-6.9 4.7-21.5 3.9-22 3.5-0.6-0.5-7.5-23.4-7.7-24.3z"/><path class="r" d="m1662.3 1133.3c-12.6 11.6-24.5 11.8-32.4 10.7-8-1.2-14.3-9.5-5.8-27.5 8.4-18 20.9-23.3 20.9-23.3 16.2-6.2 29.8 28.5 17.3 40.1z"/><path class="s" d="m1653.8 1123.7c0 0 9.4-26.4-13.9-26.7l-5.5 3.9c0 0-8.6-14.6 5.5-21.6 14-7 35-0.8 41 18.2 6 18.9 2.5 31.2-7.5 40.2-9.9 9.1-14-1.2-14-1.2 0 0 5.4-8.5 3.2-13-2.2-4.5-7.3 0.9-7.3 0.9z"/><path class="t" d="m1651.3 1127.9c0 0 4.8-13.6 11.1-8.2 6.4 5.4-5.1 12.6-9.6 14.9z"/><path class="u" d="m1613.8 1272.6l17.3-16.7 24 10.1c0 0 23.8 3.7 37.5 0 13.6-3.7 13.6-3.7 13.6-3.7l30.9-9.6 4.9 13.7c1.2 3.5-0.1 7.3-3.1 9.5-2.6 1.9-5.8 4-7.8 4.8-4 1.8-100.1-1.2-100.1-1.2z"/><g style="mix-blend-mode:soft-light"><path class="e" d="m1739.7 1125.3l-0.9-0.1c0.7-6.6-0.3-10.9-3.3-13.4-5.9-4.8-18-1-28.7 2.3-5.4 1.7-10.6 3.3-14.1 3.5-2.8 0.1-5-0.6-6.6-2.2-2.9-2.9-2.7-7.6-2.7-7.8h0.8c0 0.1-0.2 4.6 2.5 7.2q2.1 2.2 5.9 2c3.5-0.2 8.6-1.8 14-3.5 10.9-3.4 23.2-7.2 29.4-2.1 3.2 2.6 4.4 7.2 3.7 14.1z"/></g><g style="mix-blend-mode:soft-light"><path class="e" d="m1765.2 1224c-2-8 3.2-14.7 9.3-22.4 4.3-5.6 9.2-11.9 11.9-19.5 1.2-3.7 1-7-0.8-9.9-5.7-9.2-24.3-11.9-24.5-11.9l0.1-0.8c0.8 0.1 19.2 2.7 25.1 12.2 1.9 3.2 2.2 6.8 0.9 10.6-2.7 7.8-7.7 14.1-12.1 19.8-5.9 7.6-11 14.1-9.1 21.7z"/></g><path class="v" d="m1681.2 1458h-9.2v-98.7h9.2z"/><path class="w" d="m1716.6 1459.9h-80c0-3.3 2.7-5.9 6-5.9h68c3.3 0 6 2.6 6 5.9z"/><path class="x" d="m1728.5 1355.8c0 5.4-4.5 9.9-9.9 9.9h-80.9c-5.4 0-9.8-4.5-9.8-9.9v-8.8c0-5.4 4.4-9.8 9.8-9.8h80.9c5.4 0 9.9 4.4 9.9 9.8z"/><path class="y" d="m1679.3 1280.5q-0.1 0-0.2 0l-100.5-0.1c-2.5 0-4.5-2.1-4.5-4.5 0-2.5 2-4.6 4.5-4.5l100.5 0.1c2.5 0 4.5 2 4.5 4.5 0 2.4-1.9 4.3-4.3 4.5z"/><path class="z" d="m1488.2 1189.2h83.7c6.2 0 11.8 3.6 14.5 9.1l38.7 82.1h-104.1c-4 0-7.5-2.4-9-6.1l-30-76c-1.7-4.4 1.5-9.1 6.2-9.1z"/><path class="A" d="m1817.6 1294.9c-0.4 2.1-2.4 3.7-4.7 3.7h-410.6c-2.5 0-4.8-1.4-5.8-3.5l-4.6-9.2c-0.6-1.4-0.5-3 0.4-4.3 0.8-1.3 2.3-2.1 4-2.1h419.5c1.2 0 2.4 0.5 3.2 1.4 0.8 0.9 1.1 2.1 0.8 3.2z"/><path class="B" d="m1419.8 1478.5q-0.7 0-1.5-0.3c-1.8-0.8-2.7-3-1.9-4.9l77.2-183.7c0.8-1.9 3-2.8 4.9-1.9 1.8 0.8 2.7 3 1.9 4.9l-77.2 183.6c-0.6 1.5-2 2.3-3.4 2.3z"/><path class="C" d="m1506.8 1478.5c-1.5 0-2.8-0.8-3.4-2.3l-77.2-183.6c-0.8-1.9 0-4.1 1.9-4.9 1.9-0.9 4 0 4.8 1.9l77.2 183.7c0.9 1.9 0 4.1-1.9 4.9q-0.7 0.3-1.4 0.3z"/><path class="D" d="m1723.8 1478.5q-0.7 0-1.4-0.3c-1.9-0.8-2.8-3-2-4.9l77.3-183.7c0.8-1.9 2.9-2.8 4.8-1.9 1.9 0.8 2.7 3 1.9 4.9l-77.2 183.6c-0.6 1.5-1.9 2.3-3.4 2.3z"/><path class="E" d="m1810.8 1478.5c-1.4 0-2.8-0.8-3.4-2.3l-77.2-183.6c-0.8-1.9 0.1-4.1 1.9-4.9 1.9-0.9 4.1 0 4.9 1.9l77.2 183.7c0.8 1.9-0.1 4.1-1.9 4.9q-0.8 0.3-1.5 0.3z"/><g clip-path="url(#cp1)"><path class="e" d="m1734.2 551v590.4h-993.4v-685.7c0-14.9 12.3-27.8 27.2-27.8h845z"/><path class="c" d="m1733.7 551l-110.8 1c-3 0-5.3-1.2-7.4-3.2-2-2.1-2.3-4.9-2.3-7.8v-112.3z"/></g><path fill-rule="evenodd" class="F" d="m2227.9 487.8q0 19.9-6.4 36.5-6.4 16.5-18 25.9-11.6 9.4-27 9.4-10.2 0-18.1-4.9-7.9-4.9-11.3-12.9h-2.2q-15 17.8-38.1 17.8-24.4 0-38.6-14.7-14.1-14.8-14.1-40.3 0-29.2 18.6-47.1 18.5-17.8 48.4-17.8 11.9 0 26.2 2.3 14.3 2.3 23.6 5.4l-3.2 67.7q0 19.2 10.5 19.2 8.9 0 14.1-12.9 5.3-13 5.3-33.9 0-22.2-9.3-39.3-9.3-17.1-26.1-26.1-16.8-9-38.4-9-27.9 0-48.5 11.5-20.6 11.5-31.6 33.1-11 21.7-11 50 0 38.2 20.4 58.6 20.4 20.4 59.1 20.4 14.7 0 32.3-3.2 17.5-3.3 34.5-9.5v26.5q-29.6 12.6-65.7 12.6-52.5 0-81.9-27.6-29.4-27.7-29.4-76.9 0-34.2 15-62.1 15-27.8 42.7-43.7 27.8-15.8 63.9-15.8 30.4 0 54.3 12.4 24 12.5 37 35.5 13 22.9 13 52.9zm-141.7 17.3q0 29.2 23.8 29.2 12.5 0 19-8.8 6.5-8.8 7.8-28.5l1.8-30.6q-7-1.5-15.9-1.5-17.2 0-26.9 10.8-9.6 10.7-9.6 29.4z"/><g style="display:none"><path fill-rule="evenodd" class="d" d="m1796.9 423.5c-1.2-104.2 82.5-189.9 186.7-191.1 38.4-0.5 75.5 10.6 107.3 31.9l10.7-10.9c1.4-1.4 3.4-2 5.3-1.5 1.9 0.5 3.4 2 4 3.9l18.8 68.3c0.5 1.9-0.1 3.9-1.4 5.3-1.4 1.4-3.5 2-5.4 1.5l-68.5-17.9c-1.9-0.5-3.4-1.9-3.9-3.9-0.6-1.9 0-3.9 1.4-5.3l12.1-12.3c-24.1-14.6-51.7-22.1-80-21.7-83.5 0.9-150.6 69.6-149.7 153.1 1 83.4 69.7 150.5 153.2 149.5 39.8-0.4 77.3-16.3 105.5-44.7 28.1-28.3 43.8-65.8 44.2-105.5 0.1-2.9 2.3-6.1 5.5-6.1l26.4-0.3c1.7-0.1 2.9 1.2 3.7 2l0.3 0.3c1.2 1.2 1.6 3.4 1.6 4.6-0.4 49.6-19.9 96.4-55 131.8-35.2 35.3-82 55.1-131.7 55.7-104.2 1.2-189.9-82.6-191.1-186.7zm328.9-98q0-0.1-0.1-0.3l-18.8-68.3c-0.1-0.5-0.5-0.9-1-1-0.5-0.1-1 0-1.4 0.4l-13.1 13.3-1.4-1c-31.4-21.4-68.2-32.6-106.4-32.1-101.9 1.2-183.8 85-182.6 186.9 1.1 101.9 85 183.9 186.9 182.7 48.7-0.6 94.5-19.9 128.9-54.5 34.3-34.6 53.5-80.4 53.8-128.9 0-0.6-0.3-1.5-0.4-1.8l-0.3-0.2c-0.2-0.2-0.7-0.7-0.9-0.8l-26.3 0.3c-0.5 0-1.4 1.1-1.4 2.1-0.4 40.8-16.5 79.2-45.4 108.3-29 29.1-67.5 45.4-108.3 45.9-85.8 1-156.4-67.9-157.4-153.6-1-85.7 68-156.2 153.8-157.2 29.9-0.4 59 7.8 84.3 23.7l2.2 1.3-15.7 16c-0.4 0.3-0.5 0.9-0.4 1.4 0.2 0.5 0.5 0.9 1 1l68.6 17.8c0.5 0.2 1 0 1.3-0.3 0.3-0.3 0.5-0.7 0.5-1.1z"/><path class="d" d="m1928.1 458.5h-54.5v-11.5l19.6-19.7q8.7-8.9 11.3-12.4 2.7-3.4 3.9-6.3 1.1-3 1.1-6.1 0-4.7-2.5-7-2.6-2.3-6.9-2.3-4.6 0-8.8 2.1-4.3 2.1-8.9 5.9l-9-10.6q5.8-4.9 9.6-6.9 3.7-2 8.2-3.1 4.5-1.1 10-1.1 7.3 0 12.9 2.6 5.6 2.7 8.7 7.5 3.1 4.8 3.1 11 0 5.3-1.9 10.1-1.9 4.7-5.9 9.6-3.9 5-13.9 14.1l-10.1 9.5v0.7h34z"/><path fill-rule="evenodd" class="d" d="m1992.1 442.3h-9.4v16.2h-16.1v-16.2h-33.2v-11.4l34.1-50.3h15.2v48.9h9.4zm-25.5-12.7v-13.3q0-3.3 0.3-9.5 0.3-6.3 0.4-7.3h-0.4q-2 4.3-4.7 8.5l-14.3 21.6z"/><path class="d" d="m2038.3 380.6l-29 77.9h-14.8l29.1-77.9z"/><path class="d" d="m2050.9 458.5l29.3-64h-38.4v-13.8h55.9v10.3l-29.5 67.5z"/></g><path class="G" d="m2083.8 770c0-0.6 0.4-1.1 1-1.1 0.6-0.1 1.1 0.3 1.2 0.9l0.5 6.4c0.1 0.6-0.4 1.1-1 1.2-0.6 0-1.1-0.4-1.1-1l-0.6-6.4z"/><path class="H" d="m2084.9 791.1c0-0.6 0.5-1.1 1.2-1.1 0.6-0.1 1.2 0.5 1.2 1.1v6.4c0 0.7-0.5 1.2-1.2 1.2-0.7 0-1.2-0.5-1.2-1.2v-6.4z"/><path class="I" d="m2084.2 812.2c0-0.7 0.7-1.2 1.4-1.1 0.7 0 1.2 0.7 1.1 1.4l-0.5 6.3v0.1c0 0.7-0.7 1.2-1.4 1.2-0.7-0.1-1.3-0.8-1.2-1.5l0.6-6.3z"/><path class="J" d="m2081.7 833.2c0.1-0.7 0.8-1.2 1.6-1.1 0.7 0.1 1.2 0.8 1.1 1.6l-1 6.3c-0.2 0.8-0.9 1.3-1.7 1.2-0.7-0.1-1.3-0.9-1.1-1.7l1.1-6.2z"/><path class="K" d="m2077.5 853.9c0.2-0.8 1-1.2 1.8-1 0.8 0.2 1.3 1 1.1 1.8l-1.6 6.2c-0.2 0.8-1 1.3-1.8 1.1-0.8-0.2-1.3-1-1.1-1.9l1.6-6.1z"/><path class="L" d="m2071.7 874.2c0.2-0.8 1.1-1.2 2-1 0.8 0.3 1.3 1.2 1 2.1l-2 6.1c-0.3 0.8-1.2 1.3-2.1 1-0.9-0.3-1.3-1.2-1-2.1l2-6z"/><path class="M" d="m2064.3 894c0.4-0.8 1.4-1.2 2.2-0.9 0.9 0.4 1.3 1.4 1 2.3l-2.5 5.9c-0.4 0.9-1.4 1.3-2.3 0.9-0.9-0.3-1.3-1.4-0.9-2.3l2.5-5.8z"/><path class="N" d="m2055.4 913.2c0.5-0.9 1.6-1.2 2.5-0.8 0.9 0.5 1.3 1.6 0.8 2.5l-2.9 5.7c-0.5 0.9-1.6 1.3-2.5 0.8-0.9-0.5-1.3-1.6-0.8-2.5l2.9-5.6z"/><path class="O" d="m2045.2 931.7c0.6-0.9 1.7-1.2 2.7-0.7 0.9 0.6 1.2 1.8 0.6 2.7l-3.3 5.5c-0.6 0.9-1.8 1.2-2.7 0.6-1-0.5-1.2-1.7-0.7-2.7l3.4-5.4z"/><path class="P" d="m2033.6 949.3c0.7-0.9 2-1.1 2.9-0.4 0.9 0.6 1.1 1.9 0.4 2.8l-3.7 5.2v0.1c-0.7 0.9-2 1.1-2.9 0.4-0.9-0.7-1.1-2-0.5-2.9h0.1l3.7-5.1z"/><path class="Q" d="m2020.8 966c0.7-0.9 2.1-1 3-0.2 0.9 0.7 1 2.1 0.3 3l-4.1 4.9-0.1 0.1c-0.7 0.9-2.1 1-3 0.2-1-0.8-1.1-2.1-0.3-3.1l4.1-4.8z"/><path class="R" d="m2006.7 981.7c0.9-0.8 2.3-0.9 3.2 0 0.9 0.9 0.9 2.3 0 3.2l-4.4 4.6h-0.1c-0.8 0.9-2.3 0.9-3.2 0.1-0.9-0.9-0.9-2.4 0-3.3l4.5-4.5z"/><path class="S" d="m1991.5 996.3c1-0.8 2.4-0.7 3.3 0.2 0.9 1 0.8 2.5-0.2 3.4l-4.8 4.2v0.1c-1 0.8-2.6 0.7-3.4-0.3-0.9-1-0.8-2.5 0.2-3.4h0.1l4.7-4.2z"/><path class="T" d="m1975.2 1009.6c1.1-0.8 2.6-0.6 3.4 0.5 0.9 1.1 0.6 2.7-0.5 3.5l-5.1 3.9c-1.2 0.8-2.7 0.6-3.5-0.6-0.9-1.1-0.6-2.7 0.5-3.5l5.1-3.7z"/><path class="U" d="m1957.9 1021.6c1.2-0.8 2.8-0.4 3.5 0.8 0.8 1.2 0.4 2.8-0.8 3.6l-5.5 3.4c-1.2 0.7-2.8 0.4-3.5-0.9-0.8-1.2-0.4-2.8 0.8-3.5l0.1-0.1 5.3-3.3z"/><path class="V" d="m1939.7 1032.1c1.3-0.7 2.8-0.1 3.5 1.1 0.7 1.3 0.2 2.9-1.1 3.6l-5.8 2.9c-1.3 0.7-2.9 0.2-3.5-1.1-0.7-1.4-0.2-2.9 1.1-3.6h0.1l5.6-2.9z"/><path class="W" d="m1920.7 1041c1.3-0.6 2.9 0.1 3.5 1.5 0.5 1.4-0.2 2.9-1.5 3.5l-6 2.4c-1.4 0.6-3-0.1-3.5-1.5-0.6-1.4 0.1-3 1.5-3.5l5.9-2.4z"/><path class="X" d="m1900.9 1048.2c1.5-0.4 3 0.4 3.5 1.8 0.4 1.5-0.4 3-1.8 3.5l-6.2 1.9c-1.5 0.5-3-0.3-3.5-1.8-0.4-1.5 0.4-3 1.9-3.5l6-1.8z"/><path class="Y" d="m1880.7 1053.9c1.5-0.3 3 0.6 3.3 2.1 0.4 1.5-0.6 3-2.1 3.4l-6.3 1.4c-1.5 0.4-3-0.6-3.4-2.1-0.3-1.5 0.6-3 2.2-3.4l6.2-1.4z"/><path class="Z" d="m1860 1058c1.6-0.3 3.1 0.8 3.3 2.4 0.2 1.6-0.8 3-2.4 3.3l-6.4 1c-1.6 0.2-3.1-0.9-3.3-2.5-0.2-1.6 0.9-3 2.5-3.3l6.3-0.9z"/><path class="a0" d="m1839.1 1060.5c1.7-0.1 3.1 1.1 3.2 2.7 0.1 1.7-1.1 3.1-2.7 3.2l-6.4 0.5c-1.7 0.2-3.1-1.1-3.2-2.7-0.1-1.6 1.1-3 2.7-3.2h0.1l6.3-0.5z"/><path class="a1" d="m1818.1 1061.6c1.7 0 3 1.3 3.1 3 0 1.7-1.4 3-3 3l-6.4 0.1h-0.1c-1.6 0-3-1.3-3-3 0-1.6 1.3-3 3-3l6.4-0.1z"/><path class="a2" d="m1797.1 1061.3c1.7 0.1 2.9 1.6 2.9 3.2-0.1 1.7-1.6 3-3.3 2.9l-6.4-0.3c-1.7-0.1-3-1.5-2.9-3.2 0.1-1.7 1.5-3 3.3-2.9l6.3 0.3z"/><path class="a3" d="m1776.1 1059.7c1.7 0.2 2.9 1.7 2.7 3.4-0.2 1.8-1.7 3-3.4 2.8l-6.4-0.7c-1.8-0.2-3-1.8-2.8-3.5 0.2-1.7 1.8-3 3.5-2.8l6.3 0.8z"/><path class="a4" d="m1755.2 1056.8c1.7 0.3 2.9 1.9 2.6 3.7-0.3 1.7-1.9 2.9-3.7 2.6l-6.3-1.1c-1.8-0.3-3-2-2.6-3.7 0.3-1.8 1.9-2.9 3.7-2.6l6.3 1.1z"/><path class="a5" d="m1734.5 1052.7c1.8 0.4 2.9 2.2 2.5 3.9-0.4 1.8-2.2 2.9-3.9 2.5l-6.3-1.5c-1.8-0.4-2.9-2.1-2.5-3.9 0.5-1.7 2.2-2.8 4-2.4l6.2 1.4z"/><path class="a6" d="m1714.1 1047.6c1.7 0.5 2.8 2.3 2.3 4-0.5 1.8-2.4 2.8-4.1 2.3l-6.2-1.7c-1.8-0.5-2.8-2.4-2.3-4.2 0.5-1.7 2.4-2.7 4.1-2.2h0.1l6.1 1.7z"/><path class="a7" d="m1694 1041.3c1.7 0.6 2.6 2.5 2 4.3-0.6 1.8-2.5 2.7-4.2 2.1l-6.1-2.1c-1.8-0.6-2.7-2.5-2.1-4.3 0.6-1.7 2.5-2.7 4.3-2.1l6 2.1z"/><path class="a8" d="m1674.1 1034.1c1.8 0.7 2.7 2.7 2 4.5-0.7 1.7-2.7 2.6-4.5 1.9l-6-2.4c-1.8-0.7-2.6-2.7-1.9-4.5 0.7-1.7 2.7-2.6 4.5-1.9l5.9 2.4z"/><path class="a9" d="m1654.7 1025.9c1.8 0.8 2.5 2.9 1.7 4.6-0.8 1.8-2.8 2.6-4.6 1.8l-5.8-2.6-0.1-0.1c-1.7-0.8-2.5-2.8-1.7-4.6 0.8-1.8 2.9-2.6 4.7-1.7l5.8 2.6z"/><path class="aa" d="m1635.7 1016.8c1.7 0.9 2.4 3.1 1.5 4.8-0.9 1.8-3 2.5-4.8 1.6l-5.7-2.9v-0.1c-1.8-0.9-2.5-3-1.6-4.8 0.9-1.7 3.1-2.4 4.9-1.5l5.6 2.9z"/><path class="ab" d="m1617.1 1006.9c1.7 1 2.3 3.2 1.3 4.9-1 1.7-3.2 2.3-4.9 1.3l-5.6-3.1c-1.7-1-2.3-3.2-1.3-4.9 1-1.8 3.2-2.4 4.9-1.4l5.5 3.2z"/><path class="ac" d="m1598.9 996.2c1.7 1 2.2 3.3 1.1 5-1 1.6-3.2 2.2-4.9 1.1l-5.5-3.4c-1.7-1-2.2-3.3-1.1-5 1-1.7 3.2-2.2 4.9-1.1h0.1l5.4 3.4z"/><path class="ad" d="m1581.1 984.8c1.7 1.1 2.1 3.3 1 5-1.1 1.7-3.4 2.1-5.1 1l-5.3-3.6c-1.6-1.1-2.1-3.4-1-5 1.2-1.7 3.4-2.1 5.1-1l5.3 3.6z"/><path class="ae" d="m1563.7 972.7c1.7 1.2 2 3.5 0.9 5.1-1.2 1.7-3.5 2-5.1 0.9l-5.2-3.8c-1.7-1.2-2.1-3.5-0.9-5.1 1.2-1.6 3.5-2 5.2-0.8l5.1 3.7z"/><path class="af" d="m1546.8 960.1c1.6 1.3 1.9 3.6 0.6 5.2-1.2 1.6-3.5 1.9-5.1 0.7l-5.1-4c-1.6-1.2-1.9-3.5-0.7-5.1 1.3-1.6 3.6-1.9 5.2-0.7l5 3.9z"/><path class="ag" d="m1530.2 947c1.5 1.3 1.8 3.6 0.5 5.2-1.3 1.6-3.6 1.8-5.2 0.5l-5-4c-1.6-1.3-1.8-3.6-0.5-5.2 1.3-1.6 3.6-1.8 5.2-0.5l5 4z"/><path class="ah" d="m1513.9 933.5c1.6 1.3 1.8 3.6 0.4 5.2-1.3 1.6-3.7 1.7-5.2 0.4l-4.9-4.2c-1.5-1.3-1.7-3.7-0.4-5.2 1.4-1.6 3.7-1.8 5.3-0.4l4.8 4.1z"/><path class="ai" d="m1498 919.5c1.6 1.4 1.7 3.7 0.3 5.3-1.4 1.5-3.7 1.6-5.3 0.2l-4.7-4.2v-0.1c-1.6-1.3-1.7-3.7-0.3-5.2 1.4-1.6 3.8-1.7 5.3-0.3l4.7 4.3z"/><path class="aj" d="m1482.4 905.2c1.5 1.4 1.6 3.8 0.2 5.3-1.4 1.5-3.8 1.6-5.3 0.1l-4.7-4.3c-1.5-1.5-1.6-3.8-0.1-5.4 1.4-1.5 3.8-1.5 5.3-0.1l4.6 4.4z"/><path class="ak" d="m1467.1 890.6c1.5 1.4 1.5 3.8 0.1 5.3-1.5 1.5-3.9 1.5-5.4 0.1l-4.5-4.5h-0.1c-1.4-1.5-1.5-3.8 0-5.3 1.4-1.5 3.8-1.6 5.3-0.1l4.6 4.4z"/><path class="al" d="m1452 875.7c1.5 1.4 1.5 3.9 0 5.3-1.5 1.5-3.9 1.5-5.4 0l-4.5-4.5c-1.5-1.5-1.5-3.9 0-5.4 1.5-1.5 3.9-1.5 5.4 0l4.5 4.6z"/><path class="am" d="m1437.1 860.6c1.5 1.5 1.4 3.9-0.1 5.4-1.5 1.4-3.9 1.4-5.4-0.1l-4.4-4.6c-1.5-1.5-1.5-3.9 0.1-5.4 1.5-1.5 3.9-1.4 5.4 0.1l4.4 4.6z"/><path class="an" d="m1422.3 850.7c-1.6 1.5-4 1.4-5.5-0.1l-4.4-4.6v-0.1c-1.5-1.5-1.4-3.9 0.1-5.4 1.6-1.4 4-1.4 5.5 0.2l4.4 4.6c1.4 1.5 1.4 3.9-0.1 5.4z"/><path class="ao" d="m1407.6 835.3c-1.5 1.5-4 1.4-5.4-0.2l-4.4-4.6c-1.5-1.6-1.4-4 0.2-5.5 1.5-1.4 4-1.4 5.4 0.2l4.4 4.7c1.4 1.5 1.4 4-0.2 5.4z"/><path class="ap" d="m1393.1 819.8c-1.6 1.5-4 1.4-5.5-0.2l-4.4-4.6v-0.1c-1.4-1.5-1.3-4 0.2-5.4 1.6-1.5 4.1-1.4 5.5 0.2l4.4 4.6c1.4 1.6 1.3 4.1-0.2 5.5z"/><path class="aq" d="m1378.6 804.3c-1.6 1.4-4 1.3-5.5-0.2l-4.3-4.7c-1.5-1.6-1.4-4.1 0.2-5.5 1.6-1.5 4-1.4 5.5 0.2l4.3 4.7c1.5 1.5 1.4 4-0.2 5.5z"/><path class="ar" d="m1364.2 788.7c-1.6 1.5-4.1 1.4-5.6-0.2l-4.3-4.7c-1.5-1.6-1.4-4.1 0.2-5.5 1.6-1.5 4.1-1.4 5.5 0.2l4.4 4.7c1.5 1.5 1.4 4-0.2 5.5z"/><path class="as" d="m1349.7 773.1c-1.6 1.5-4.1 1.4-5.6-0.1l-4.3-4.7c-1.5-1.6-1.4-4.1 0.2-5.6 1.6-1.5 4.1-1.4 5.5 0.2l4.4 4.7c1.5 1.6 1.4 4.1-0.2 5.5z"/><path class="at" d="m1335.2 757.6c-1.6 1.6-4.1 1.5-5.6-0.1l-4.4-4.6c-1.5-1.6-1.4-4.1 0.2-5.6 1.6-1.6 4.1-1.5 5.6 0.1l4.4 4.7c1.5 1.5 1.4 4-0.2 5.5z"/><path class="au" d="m1320.6 742.2c-1.6 1.6-4.1 1.5-5.6-0.1l-4.5-4.5v-0.1c-1.5-1.5-1.5-4.1 0.1-5.6 1.6-1.5 4.1-1.5 5.7 0.1l4.4 4.6c1.5 1.6 1.5 4.1-0.1 5.6z"/><path class="av" d="m1305.8 727c-1.5 1.5-4.1 1.5-5.6-0.1l-4.5-4.5c-1.6-1.6-1.5-4.1 0-5.7 1.6-1.5 4.1-1.5 5.7 0.1l4.5 4.5c1.5 1.6 1.5 4.1-0.1 5.7z"/><path class="aw" d="m1290.9 711.9c-1.6 1.6-4.1 1.6-5.7 0l-4.5-4.5c-1.6-1.5-1.6-4.1-0.1-5.7 1.6-1.5 4.1-1.6 5.7 0l4.6 4.5c1.5 1.6 1.6 4.1 0 5.7z"/><path class="ax" d="m1275.8 697c-1.6 1.6-4.1 1.7-5.8 0.1l-4.6-4.4c-1.6-1.5-1.7-4.1-0.1-5.7 1.5-1.6 4.1-1.7 5.7-0.1l4.6 4.4c1.6 1.5 1.7 4.1 0.2 5.7z"/><path class="ay" d="m1260.1 676.7c1.7 1.5 1.8 4 0.3 5.7-1.6 1.6-4.1 1.7-5.8 0.2l-4.6-4.3h-0.1c-1.6-1.5-1.7-4.1-0.2-5.7 1.5-1.7 4.1-1.8 5.7-0.3l4.7 4.4z"/><path class="az" d="m1244.3 662.3c1.7 1.5 1.8 4.1 0.3 5.7-1.4 1.7-4 1.8-5.6 0.4h-0.1l-4.7-4.2v-0.1c-1.7-1.4-1.9-4-0.4-5.6 1.5-1.7 4-1.9 5.7-0.4l4.8 4.2z"/><path class="aA" d="m1228.1 648.4c1.7 1.4 2 3.9 0.5 5.6-1.4 1.7-3.9 1.9-5.6 0.5l-4.9-4.1c-1.7-1.4-1.9-3.9-0.5-5.6 1.4-1.7 3.9-2 5.6-0.5l4.9 4.1z"/><path class="aB" d="m1211.6 634.8c1.8 1.4 2.1 3.9 0.7 5.6-1.4 1.8-3.9 2.1-5.6 0.7h-0.1l-4.9-4c-1.8-1.3-2.1-3.9-0.7-5.6 1.4-1.7 3.9-2 5.6-0.6l5 3.9z"/><path class="aC" d="m1194.7 621.8c1.8 1.3 2.2 3.8 0.9 5.5-1.4 1.8-3.8 2.1-5.6 0.8l-5.1-3.8c-1.8-1.3-2.2-3.8-0.9-5.6 1.4-1.7 3.8-2.1 5.6-0.8l5.1 3.9z"/><path class="aD" d="m1177.5 609.2c1.7 1.2 2.2 3.7 0.9 5.5-1.2 1.8-3.7 2.2-5.5 1l-5.2-3.6v-0.1c-1.8-1.2-2.3-3.7-1-5.5 1.2-1.8 3.7-2.2 5.5-1l5.2 3.7z"/><path class="aE" d="m1159.7 597.2c1.9 1.2 2.4 3.6 1.2 5.5-1.2 1.8-3.6 2.3-5.4 1.1h-0.1l-5.3-3.4c-1.9-1.2-2.4-3.7-1.2-5.5 1.2-1.8 3.6-2.3 5.4-1.2l5.4 3.5z"/><path class="aF" d="m1141.6 585.9c1.9 1.1 2.5 3.5 1.4 5.4-1.1 1.8-3.6 2.4-5.4 1.3h-0.1l-5.4-3.2v-0.1c-1.9-1.1-2.5-3.5-1.4-5.3 1.1-1.9 3.5-2.5 5.4-1.4l5.5 3.3z"/><path class="aG" d="m1123 575.2c1.9 1 2.6 3.4 1.6 5.3-1 1.9-3.4 2.6-5.3 1.6l-5.6-3.1c-1.9-1-2.6-3.4-1.6-5.3 1-1.9 3.4-2.6 5.3-1.6l5.6 3.1z"/><path class="aH" d="m1104.1 565.2c1.9 1 2.7 3.3 1.8 5.3-1 1.9-3.3 2.7-5.3 1.7l-5.7-2.8v-0.1c-1.9-0.9-2.7-3.2-1.8-5.2 1-1.9 3.3-2.7 5.3-1.7l5.7 2.8z"/><path class="aI" d="m1084.8 556c2 0.8 2.9 3.1 2 5.1-0.9 1.9-3.2 2.8-5.2 1.9l-5.8-2.6c-2-0.9-2.8-3.2-1.9-5.2 0.8-1.9 3.1-2.8 5.1-1.9l5.8 2.7z"/><path class="aJ" d="m1065.3 547.4c1.9 0.8 2.9 3 2.1 5-0.9 2-3.1 2.9-5.1 2.1l-5.9-2.4c-2-0.8-2.9-3.1-2.1-5.1 0.8-1.9 3-2.9 5-2.1l6 2.5z"/><path class="aK" d="m1045.4 539.5c2 0.7 3 3 2.2 5-0.7 1.9-2.9 3-4.9 2.2l-6-2.2c-2-0.7-3-3-2.3-4.9 0.7-2 3-3.1 4.9-2.3l6.1 2.2z"/><path class="aL" d="m1025.2 532.3c2 0.7 3.1 2.9 2.5 4.9-0.7 2-2.9 3.1-4.9 2.4l-6-2h-0.1c-2-0.7-3.1-2.8-2.4-4.8 0.6-2 2.8-3.1 4.8-2.5l6.1 2z"/><path class="aM" d="m1004.8 525.9c2 0.6 3.2 2.7 2.6 4.7-0.6 2.1-2.7 3.2-4.7 2.6h-0.1l-6-1.8h-0.1c-2-0.6-3.2-2.7-2.6-4.7 0.6-2 2.7-3.2 4.8-2.6l6.1 1.8z"/><path class="aN" d="m984.2 520.2c2 0.5 3.3 2.6 2.8 4.6-0.6 2-2.6 3.3-4.7 2.7l-6.2-1.5c-2-0.6-3.3-2.6-2.7-4.7 0.5-2 2.5-3.2 4.6-2.7l6.2 1.6z"/><path class="aO" d="m963.4 515.2c2.1 0.4 3.4 2.4 2.9 4.5-0.4 2-2.5 3.3-4.5 2.9l-6.2-1.4h-0.1c-2-0.4-3.3-2.4-2.9-4.5 0.5-2 2.5-3.3 4.5-2.9l6.3 1.4z"/><path class="aP" d="m942.4 510.9c2.1 0.4 3.5 2.3 3.1 4.4-0.4 2-2.3 3.4-4.4 3l-6.3-1.1c-2.1-0.4-3.4-2.3-3.1-4.4 0.4-2 2.4-3.4 4.4-3l6.3 1.1z"/><path class="aQ" d="m921.3 507.4c2.1 0.3 3.5 2.2 3.2 4.2-0.3 2.1-2.2 3.5-4.2 3.2h-0.1l-6.2-0.9h-0.1c-2-0.3-3.5-2.2-3.2-4.2 0.3-2.1 2.2-3.5 4.3-3.2l6.3 0.9z"/><path class="aR" d="m900.1 504.6c2.1 0.2 3.6 2.1 3.4 4.1-0.3 2.1-2.1 3.6-4.2 3.4v-0.1l-6.3-0.6c-2.1-0.3-3.6-2.1-3.4-4.2 0.3-2 2.1-3.5 4.2-3.3l6.3 0.7z"/><path class="aS" d="m878.9 502.6c2 0.1 3.5 1.9 3.4 4-0.2 2-1.9 3.6-4 3.4l-6.4-0.5c-2-0.1-3.6-1.9-3.4-3.9 0.1-2.1 1.9-3.6 3.9-3.5l6.4 0.5z"/><path class="aT" d="m857.5 501.3c2.1 0.1 3.6 1.8 3.6 3.9-0.1 2-1.8 3.6-3.9 3.5l-6.4-0.2c-2-0.1-3.6-1.8-3.6-3.9 0.1-2 1.8-3.6 3.9-3.5l6.4 0.2z"/><path class="aU" d="m836.1 500.8c2.1 0 3.7 1.7 3.7 3.7 0 2-1.6 3.7-3.7 3.7h-6.4c-2 0-3.7-1.7-3.7-3.7 0-2.1 1.7-3.7 3.7-3.7h6.4z"/><path class="aV" d="m814.7 501.1c2.1-0.1 3.8 1.5 3.8 3.5 0.1 2-1.5 3.8-3.5 3.8l-6.4 0.2c-2 0.1-3.7-1.5-3.8-3.5-0.1-2 1.5-3.7 3.5-3.8l6.4-0.2z"/><path class="aW" d="m793.4 502.1c2-0.1 3.8 1.4 3.9 3.4 0.1 2-1.4 3.8-3.4 3.9l-6.4 0.5c-2 0.1-3.8-1.4-3.9-3.4-0.2-2 1.4-3.8 3.4-3.9l6.4-0.5z"/><path class="aX" d="m772.1 503.9c2-0.2 3.8 1.2 4 3.2 0.2 2.1-1.2 3.9-3.2 4.1h-0.1l-6.3 0.6v0.1c-2 0.2-3.8-1.3-4-3.3-0.3-2 1.2-3.8 3.2-4l6.4-0.7z"/><path class="aY" d="m750.8 506.5c2-0.3 3.9 1.1 4.2 3.1 0.3 2-1.1 3.8-3.1 4.1l-6.3 0.9c-2 0.3-3.9-1.1-4.2-3-0.3-2 1.1-3.9 3.1-4.2l6.3-0.9z"/><path class="aZ" d="m729.7 509.9c2-0.4 3.9 0.9 4.2 2.9 0.4 2-0.9 3.9-2.8 4.2h-0.1l-6.2 1.2c-2 0.4-3.9-0.9-4.3-2.9-0.3-1.9 0.9-3.8 2.9-4.2l6.3-1.2z"/><path class="b0" d="m708.8 514.2c1.9-0.4 3.8 0.8 4.3 2.7 0.4 1.9-0.8 3.9-2.7 4.3h-0.1l-6.1 1.5h-0.1c-1.9 0.4-3.8-0.8-4.3-2.7-0.4-1.9 0.8-3.9 2.7-4.3l6.2-1.5z"/><path class="b1" d="m688 519.4c1.9-0.5 3.9 0.6 4.4 2.5 0.6 1.9-0.6 3.9-2.5 4.4v0.1l-6.1 1.7c-1.9 0.5-3.9-0.6-4.5-2.5-0.5-1.9 0.6-3.9 2.5-4.4l6.2-1.8z"/><path class="b2" d="m667.5 525.7c1.9-0.7 3.9 0.3 4.5 2.2 0.6 1.9-0.4 3.9-2.2 4.5h-0.1l-6 2v0.1c-1.9 0.6-3.9-0.4-4.5-2.3-0.7-1.8 0.3-3.8 2.2-4.5l6.1-2z"/><path class="b3" d="m647.3 533c1.8-0.7 3.9 0.1 4.6 1.9 0.7 1.8-0.2 3.9-2 4.6l-5.9 2.4c-1.8 0.7-3.9-0.2-4.6-2-0.7-1.8 0.2-3.8 2-4.5l5.9-2.4z"/><path class="b4" d="m627.6 541.4c1.7-0.8 3.8-0.1 4.6 1.7 0.8 1.7 0.1 3.8-1.7 4.6l-5.7 2.7h-0.1c-1.7 0.8-3.7 0.1-4.6-1.6-0.8-1.8 0-3.8 1.7-4.6l5.8-2.8z"/><path class="b5" d="m608.4 551c1.7-0.9 3.7-0.3 4.7 1.4 0.9 1.6 0.3 3.7-1.4 4.6v0.1l-5.6 3c-1.7 0.9-3.7 0.3-4.6-1.3-1-1.6-0.4-3.7 1.3-4.6l5.6-3.2z"/><path class="b6" d="m589.9 561.9c1.6-1 3.6-0.5 4.7 1 1 1.6 0.5 3.7-1 4.7h-0.1l-5.3 3.5h-0.1c-1.5 1-3.6 0.6-4.6-1-1-1.5-0.6-3.6 1-4.6l5.4-3.6z"/><path class="b7" d="m572.2 574.1c1.5-1.1 3.5-0.8 4.7 0.7 1.1 1.4 0.8 3.5-0.7 4.6v0.1l-5.1 3.8c-1.5 1.1-3.5 0.9-4.6-0.6-1.2-1.4-0.9-3.5 0.6-4.6l5.1-3.9z"/><path class="b8" d="m555.5 587.7c1.3-1.2 3.4-1.1 4.6 0.3 1.2 1.3 1.1 3.4-0.2 4.6h-0.1l-4.7 4.2v0.1c-1.4 1.2-3.4 1.1-4.6-0.2-1.2-1.4-1.1-3.4 0.2-4.6l4.8-4.4z"/><path class="b9" d="m540 602.6c1.2-1.3 3.2-1.3 4.5-0.1 1.3 1.2 1.4 3.2 0.2 4.5l-0.1 0.1-4.3 4.6v0.1c-1.2 1.3-3.3 1.3-4.6 0.1-1.3-1.2-1.3-3.2-0.1-4.5l4.4-4.8z"/><path class="ba" d="m525.8 618.9c1.1-1.4 3.1-1.7 4.5-0.6 1.4 1.1 1.6 3.1 0.6 4.5h-0.1l-3.9 5v0.1c-1.1 1.4-3.1 1.6-4.4 0.6-1.4-1.1-1.7-3.1-0.6-4.5l3.9-5.1z"/><path class="bb" d="m513.3 636.4c0.9-1.4 2.9-1.9 4.3-1 1.5 1 1.9 2.9 1 4.4l-3.3 5.4h-0.1c-0.9 1.5-2.8 1.9-4.3 1-1.5-0.9-1.9-2.8-1-4.2l3.4-5.5z"/><path class="bc" d="m502.6 655.1c0.8-1.5 2.6-2.1 4.2-1.3 1.5 0.7 2.1 2.6 1.4 4.1l-0.1 0.1-2.8 5.6v0.1c-0.8 1.5-2.6 2.1-4.1 1.4-1.6-0.8-2.2-2.6-1.4-4.1l2.8-5.8z"/><path class="bd" d="m493.8 674.8c0.6-1.6 2.3-2.4 3.9-1.8 1.6 0.6 2.4 2.4 1.8 4h-0.1l-2.2 5.9v0.1c-0.6 1.6-2.4 2.3-3.9 1.7-1.6-0.5-2.4-2.3-1.8-3.9l2.3-6z"/><path class="be" d="m486.8 695.2c0.5-1.6 2.1-2.6 3.7-2.1 1.6 0.4 2.5 2.1 2.1 3.7v0.1l-1.8 6v0.1c-0.4 1.6-2.1 2.5-3.6 2-1.6-0.4-2.6-2-2.1-3.6l1.7-6.2z"/><path class="bf" d="m481.7 716c0.3-1.6 1.8-2.6 3.4-2.3 1.6 0.3 2.7 1.8 2.4 3.4v0.1l-1.2 6.2v0.1c-0.3 1.6-1.8 2.6-3.4 2.3-1.6-0.3-2.7-1.8-2.4-3.4l1.2-6.3z"/><path class="bg" d="m478.4 737.3c0.2-1.6 1.6-2.8 3.2-2.6 1.6 0.2 2.8 1.6 2.6 3.2v0.1l-0.7 6.2v0.1c-0.1 1.6-1.5 2.7-3.1 2.6-1.6-0.2-2.8-1.6-2.6-3.2l0.6-6.4z"/><path class="bh" d="m477 758.7c0-1.5 1.3-2.8 2.9-2.8 1.5 0.1 2.8 1.4 2.8 2.9v0.1l-0.1 6.3v0.1c-0.1 1.5-1.4 2.8-2.9 2.8-1.6-0.1-2.8-1.3-2.8-2.9l0.1-6.5z"/><path class="bi" d="m477.3 780.2c-0.1-1.5 1.1-2.9 2.6-3 1.6-0.1 2.9 1.1 3 2.6v0.1l0.4 6.3v0.1c0.1 1.5-1 2.8-2.6 2.9-1.5 0.2-2.8-1-2.9-2.5l-0.5-6.5z"/><path class="bj" d="m479.5 801.6c-0.3-1.5 0.8-2.9 2.3-3.2 1.5-0.2 2.9 0.9 3.1 2.4l1 6.3c0.2 1.5-0.8 2.9-2.3 3.2-1.5 0.2-2.9-0.8-3.2-2.3l-0.9-6.4z"/><path class="bk" d="m483.4 822.7c-0.4-1.4 0.5-2.9 2-3.3 1.5-0.3 2.9 0.6 3.3 2v0.1l1.5 6.1v0.1c0.3 1.4-0.6 2.9-2 3.3-1.5 0.3-2.9-0.6-3.3-2l-1.5-6.3z"/><path class="bl" d="m489.1 843.4c-0.4-1.4 0.3-2.9 1.7-3.4 1.4-0.4 2.9 0.3 3.4 1.7v0.1l2 6c0.5 1.4-0.2 2.9-1.6 3.4-1.4 0.5-2.9-0.3-3.4-1.7l-2.1-6.1z"/><path class="bm" d="m496.7 863.5c-0.6-1.3 0-2.8 1.3-3.4 1.3-0.6 2.9 0 3.5 1.3v0.1l2.5 5.7 0.1 0.1c0.5 1.3-0.1 2.9-1.4 3.4-1.3 0.6-2.8 0-3.4-1.3l-2.6-5.9z"/><path class="bn" d="m506 882.9c-0.7-1.3-0.2-2.8 1-3.5 1.3-0.7 2.8-0.3 3.5 1h0.1l3 5.5 0.1 0.1c0.6 1.2 0.2 2.8-1 3.5-1.3 0.7-2.8 0.2-3.5-1l-3.2-5.6z"/><path class="bo" d="m517.2 901.2c-0.8-1.1-0.5-2.7 0.6-3.5 1.2-0.7 2.7-0.5 3.5 0.7h0.1l3.5 5.2 0.1 0.1c0.7 1.1 0.5 2.6-0.7 3.4-1.1 0.8-2.6 0.5-3.4-0.6l-3.7-5.3z"/><path class="bp" d="m530.1 918.4c-0.8-1-0.7-2.6 0.3-3.4 1-0.9 2.5-0.8 3.4 0.3h0.1l4 4.8 0.1 0.1c0.8 1 0.7 2.5-0.3 3.3-1 0.9-2.5 0.8-3.4-0.2l-4.2-4.9z"/><path class="bq" d="m544.7 934.1c-0.9-0.8-0.9-2.3 0-3.3 0.8-0.9 2.3-0.9 3.3 0l4.6 4.4c0.9 0.9 1 2.4 0.1 3.3-0.9 0.9-2.3 1-3.3 0.1l-4.7-4.4z"/><path class="br" d="m560.9 948.3c-1-0.7-1.2-2.1-0.4-3.1 0.7-1 2.2-1.2 3.1-0.4h0.1l5 3.9v0.1c1 0.7 1.1 2.1 0.4 3.1-0.8 0.9-2.2 1.1-3.1 0.4l-5.1-4z"/><path class="bs" d="m578.3 960.9c-1-0.7-1.3-2-0.7-3 0.7-1 2-1.3 3-0.7h0.1l5.3 3.4 0.1 0.1c0.9 0.6 1.2 1.9 0.6 2.9-0.6 1-1.9 1.3-2.9 0.7l-5.5-3.4z"/><path class="bt" d="m596.8 971.6c-1-0.5-1.4-1.7-0.9-2.8 0.6-1 1.8-1.4 2.8-0.9l0.1 0.1 5.6 2.8 0.1 0.1c1 0.5 1.4 1.7 0.9 2.7-0.6 1-1.8 1.5-2.8 0.9l-5.8-2.9z"/><path class="bu" d="m616.3 980.7c-1.1-0.4-1.6-1.6-1.1-2.6 0.4-1 1.5-1.5 2.6-1.1l5.9 2.4c1 0.4 1.5 1.5 1.1 2.5-0.4 1.1-1.5 1.6-2.6 1.2l-5.9-2.4z"/><path class="bv" d="m636.4 988c-1-0.4-1.6-1.4-1.3-2.4 0.3-1.1 1.4-1.6 2.4-1.3h0.1l6 1.9h0.1c1 0.3 1.5 1.3 1.2 2.3-0.3 1-1.3 1.6-2.3 1.3l-6.2-1.8z"/><path class="bw" d="m657.1 993.5c-1-0.2-1.6-1.2-1.4-2.2 0.2-1 1.2-1.6 2.2-1.4l6.2 1.3c1 0.3 1.6 1.2 1.4 2.2-0.2 1-1.1 1.6-2.1 1.4l-6.3-1.3z"/><path class="bx" d="m678.2 997.2c-1-0.1-1.7-1-1.5-2 0.1-0.9 1-1.6 1.9-1.5h0.1l6.2 0.9h0.1c0.9 0.1 1.6 0.9 1.5 1.9-0.1 0.9-1 1.6-1.9 1.5l-6.4-0.8z"/><path class="by" d="m699.5 999.2c-1-0.1-1.7-0.9-1.6-1.8 0-0.9 0.8-1.6 1.7-1.6h0.1l6.3 0.3c0.9 0.1 1.6 0.8 1.6 1.7 0 0.9-0.8 1.6-1.7 1.6l-6.4-0.2z"/><path class="bz" d="m720.9 999.3c-0.9 0.1-1.7-0.6-1.7-1.5 0-0.9 0.7-1.6 1.5-1.6h0.1l6.3-0.3c0.9 0 1.6 0.6 1.7 1.5 0 0.9-0.7 1.6-1.5 1.6l-6.4 0.3z"/><path class="bA" d="m742.2 997.7c-0.9 0.1-1.6-0.5-1.7-1.3-0.1-0.8 0.5-1.6 1.3-1.7l6.3-0.8h0.1c0.8-0.1 1.5 0.5 1.6 1.3 0.1 0.8-0.4 1.5-1.3 1.6l-6.3 0.9z"/><path class="bB" d="m763.3 994.2c-0.8 0.2-1.5-0.3-1.7-1.1-0.2-0.8 0.3-1.5 1.1-1.7l6.2-1.3c0.8-0.2 1.5 0.3 1.7 1 0.2 0.8-0.3 1.5-1.1 1.7l-6.2 1.4z"/><path class="bC" d="m784 988.8c-0.7 0.3-1.5-0.1-1.7-0.8-0.2-0.7 0.2-1.5 0.9-1.7l6-1.9h0.1c0.7-0.2 1.4 0.1 1.6 0.8 0.2 0.7-0.1 1.4-0.8 1.7l-6.1 1.9z"/><path class="bD" d="m804.1 981.6c-0.7 0.3-1.4 0-1.7-0.7-0.2-0.6 0.1-1.3 0.7-1.6l5.9-2.5c0.6-0.3 1.3 0 1.6 0.6 0.3 0.7 0 1.4-0.6 1.6l-5.9 2.6z"/><path class="bE" d="m823.4 972.5c-0.6 0.3-1.3 0.1-1.6-0.5-0.3-0.6-0.1-1.3 0.5-1.6l5.6-3v-0.1c0.5-0.3 1.2-0.1 1.5 0.5 0.3 0.5 0.1 1.2-0.4 1.5l-5.6 3.2z"/><path class="bF" d="m841.7 961.4c-0.5 0.4-1.2 0.3-1.5-0.2-0.4-0.5-0.2-1.2 0.3-1.5v-0.1l4.1-2.7v-0.1c0.5-0.3 1.2-0.2 1.5 0.3 0.3 0.5 0.2 1.2-0.3 1.5l-4.1 2.8z"/><path fill-rule="evenodd" class="d" d="m581.7 542.5c-2.8 0-5.2-1.8-6.1-4.4l-9.1-25.7c-12.6-3-24.6-7.9-35.7-14.4l-24.5 12.1c-2.5 1.2-5.5 0.8-7.5-1.2l-25.2-24.8c-2-2-2.5-5-1.3-7.5l11.7-24.6c-6.7-11.1-11.7-23-15-35.5l-25.8-8.6c-2.7-0.9-4.5-3.4-4.5-6.2l-0.3-35.4c0-2.7 1.7-5.2 4.4-6.2l25.7-9.1c3-12.5 7.9-24.5 14.4-35.7l-12.1-24.4c-1.3-2.5-0.8-5.5 1.2-7.5l24.8-25.2c1.9-2 4.9-2.5 7.4-1.3l24.7 11.7c11-6.7 22.9-11.8 35.4-15l8.7-25.9c0.9-2.6 3.4-4.4 6.1-4.4l35.4-0.3q0.1 0 0.1 0c2.8 0 5.2 1.7 6.1 4.3l9.1 25.8c12.6 3 24.6 7.9 35.7 14.4l24.5-12.1c2.5-1.3 5.5-0.8 7.4 1.1l25.3 24.9c2 1.9 2.5 4.9 1.3 7.4l-11.8 24.7c6.8 11 11.8 22.9 15.1 35.4l25.8 8.7c2.7 0.9 4.5 3.3 4.5 6.1l0.3 35.4c0 2.8-1.7 5.3-4.4 6.2l-25.7 9.1c-3 12.6-7.9 24.6-14.4 35.7l12.1 24.5c1.3 2.4 0.8 5.4-1.2 7.4l-24.8 25.3c-2 2-4.9 2.5-7.5 1.3l-24.6-11.8c-11 6.8-22.9 11.8-35.4 15.1l-8.7 25.8c-0.9 2.7-3.4 4.4-6.1 4.5l-35.5 0.3q0 0 0 0zm-50.6-53.9l2 1.2c11.6 7.1 24.2 12.2 37.4 15.1l2.2 0.5 10.2 28.9 33-0.3 9.7-29 2.2-0.5c13.2-3.2 25.7-8.5 37.2-15.8l1.9-1.2 27.6 13.2 23.2-23.6-13.7-27.4 1.2-1.9c7.1-11.6 12.2-24.2 15.2-37.4l0.5-2.2 28.8-10.2-0.3-33-29-9.8-0.5-2.2c-3.2-13.1-8.5-25.6-15.8-37.1l-1.2-1.9 13.2-27.6-23.5-23.2-27.4 13.6-2-1.1c-11.6-7.1-24.2-12.2-37.4-15.2l-2.2-0.5-10.2-28.8-33 0.3-9.7 29-2.2 0.5c-13.2 3.2-25.7 8.5-37.2 15.7l-1.9 1.2-27.6-13.1-23.2 23.5 13.7 27.4-1.2 2c-7.1 11.6-12.2 24.1-15.2 37.3l-0.5 2.2-28.8 10.3 0.3 33 29 9.7 0.5 2.2c3.2 13.2 8.5 25.7 15.8 37.2l1.2 1.9-13.2 27.6 23.5 23.2zm66.6-15.8c-23.7 0-46-9.1-62.8-25.7-17.1-16.8-26.6-39.2-26.8-63.1-0.2-23.9 9-46.5 25.7-63.6 16.8-17 39.2-26.5 63.1-26.7 6.4-0.1 12.8 0.6 19 1.8 2.2 0.5 3.6 2.7 3.2 4.9-0.5 2.2-2.6 3.6-4.8 3.2-5.7-1.2-11.5-1.8-17.3-1.7-21.7 0.2-42.1 8.8-57.3 24.3-15.3 15.5-23.6 36-23.4 57.7 0.2 21.7 8.8 42.1 24.3 57.3 15.5 15.3 36 23.6 57.7 23.4 21.8-0.2 42.1-8.8 57.4-24.3 15.2-15.5 23.5-36 23.3-57.7-0.1-14.8-4.2-29.2-11.8-41.7-1.2-1.9-0.6-4.5 1.3-5.6 2-1.2 4.5-0.6 5.6 1.3 8.5 13.8 13 29.7 13.1 45.9 0.2 23.9-8.9 46.5-25.7 63.5-16.8 17.1-39.2 26.6-63.1 26.8q-0.4 0-0.7 0zm-30.2-215.9z"/><path fill-rule="evenodd" class="d" d="m598.1 418.3c-6.2 0-12.4-1.7-17.9-4.9-8.2-4.8-14-12.5-16.4-21.7-2.4-9.2-1.1-18.7 3.7-26.9 4.8-8.2 12.5-14.1 21.7-16.5 18.9-4.9 38.4 6.5 43.3 25.5 2.4 9.1 1.1 18.7-3.7 26.9-4.8 8.2-12.5 14-21.7 16.4q-4.5 1.2-9 1.2zm-6.9-62c-7 1.8-13 6.3-16.7 12.6-3.6 6.3-4.7 13.7-2.8 20.7 1.8 7.1 6.3 13 12.6 16.7 6.3 3.7 13.7 4.7 20.8 2.9 7-1.8 13-6.3 16.7-12.6 3.6-6.3 4.7-13.7 2.8-20.8-3.8-14.6-18.8-23.3-33.4-19.5z"/><path fill-rule="evenodd" class="d" d="m443.6 675.5c-1.3 0-2.6-0.7-3.4-1.8l-7.4-10.1c-6 0.3-11.9-0.2-17.6-1.5l-9.2 8.6c-1.3 1.2-3.2 1.5-4.8 0.6l-15.1-7.9c-1.6-0.8-2.5-2.6-2.2-4.4l1.8-12.3c-4.3-4-8.1-8.6-11.3-13.6l-12.5-0.4c-1.8 0-3.4-1.2-3.9-2.9l-5.1-16.3c-0.5-1.7 0.1-3.6 1.5-4.7l10.1-7.4c-0.3-5.9 0.3-11.8 1.6-17.6l-8.6-9.1c-1.2-1.3-1.5-3.3-0.7-4.9l7.9-15.1c0.9-1.6 2.6-2.5 4.4-2.2l12.4 1.9c4-4.4 8.6-8.2 13.6-11.3l0.3-12.5c0.1-1.8 1.3-3.4 3-4l16.3-5c1.7-0.6 3.6 0 4.6 1.5l7.5 10.1c5.9-0.3 11.8 0.2 17.5 1.6l9.2-8.6c1.3-1.3 3.2-1.5 4.8-0.7l15.1 7.9c1.6 0.8 2.5 2.6 2.2 4.4l-1.8 12.4c4.4 4 8.2 8.5 11.3 13.5l12.5 0.4c1.8 0 3.4 1.2 3.9 3l5.1 16.2c0.5 1.7-0.1 3.6-1.5 4.7l-10.1 7.4c0.3 5.9-0.3 11.8-1.6 17.6l8.6 9.1c1.2 1.3 1.5 3.3 0.7 4.9l-7.9 15.1c-0.9 1.6-2.6 2.5-4.4 2.2l-12.4-1.9c-4 4.4-8.5 8.2-13.6 11.3l-0.3 12.6c-0.1 1.8-1.3 3.3-3 3.9l-16.2 5.1q-0.7 0.2-1.3 0.2zm-7.9-18.2l8.6 11.7 13.7-4.3 0.4-14.5 1.5-0.9c5.5-3.2 10.4-7.3 14.6-12.2l1.1-1.2 14.4 2.1 6.6-12.7-10-10.5 0.5-1.7c1.6-6.2 2.1-12.6 1.7-18.9l-0.2-1.7 11.7-8.6-4.2-13.7-14.5-0.4-0.9-1.5c-3.3-5.5-7.4-10.4-12.2-14.6l-1.3-1.1 2.2-14.4-12.7-6.6-10.6 9.9-1.6-0.4c-6.2-1.6-12.6-2.2-19-1.7l-1.7 0.1-8.6-11.7-13.7 4.3-0.4 14.5-1.5 0.9c-5.5 3.2-10.4 7.3-14.6 12.2l-1.1 1.3-14.4-2.2-6.6 12.7 10 10.6-0.4 1.6c-1.6 6.2-2.2 12.6-1.8 19l0.2 1.7-11.7 8.6 4.2 13.6 14.6 0.5 0.8 1.4c3.3 5.5 7.4 10.4 12.2 14.6l1.3 1.1-2.2 14.4 12.7 6.7 10.6-10 1.6 0.4c6.3 1.6 12.6 2.2 19 1.7zm-6-14.4c-18.9 0-36.3-12.1-42.2-31-7.3-23.2 5.7-48 28.9-55.3 3.1-0.9 6.2-1.5 9.3-1.8 1.6-0.2 3.1 1.1 3.3 2.7 0.2 1.7-1.1 3.2-2.8 3.4-2.7 0.2-5.3 0.8-7.9 1.6-20 6.2-31.2 27.6-25 47.6 6.3 20 27.7 31.2 47.7 25 20-6.3 31.2-27.7 24.9-47.7-2-6.6-5.8-12.4-10.9-17-1.3-1.1-1.4-3.1-0.3-4.3 1.1-1.3 3.1-1.4 4.3-0.3 6 5.3 10.4 12.1 12.8 19.8 7.2 23.2-5.8 48.1-29 55.3-4.4 1.4-8.8 2-13.1 2zm13.3 26.5q0 0 0 0zm-39-3.5q0 0 0 0zm-15.1-7.9q0 0 0 0zm108.6-31.6q0 0 0 0zm-1.8-57.5q0 0 0 0zm-127.5-10.3q0 0 0 0zm102.4-19.7q0 0 0 0zm-69-8.1q0 0 0 0zm-3.1-0.1zm18-3.2q0 0 0 0z"/><path class="bG" d="m2033.1 1056.4c-3.6 20.8-18.6 42.6-28.3 54.8-6.3 8-16.4 12-26.5 10.5-52.8-7.8-45.7-106.7-45.7-106.7h18.7c0 0 18.5 96 26.3 56.2 7.8-39.8 31.4-62.2 31.4-62.2 0 0 21 14.7 24.1 47.4z"/><path class="bH" d="m2090.2 1467.9q-0.1-0.2-0.1-0.4c-0.8-4.2 2.4-11.8 7.4-27.2l8.7-0.7c0 0 18.1 9 22.5 26.5q0.2 0.5 0.1 0.9c-16.7 1.9-31.4 1.5-38.6 0.9z"/><path class="bI" d="m2128.8 1467c0 1.6-1.1 3-2.6 3.2-6.8 0.9-23 2.6-33.3 0.4-1.3-0.2-2.3-1.3-2.7-2.7 7.2 0.6 21.9 1 38.6-0.9z"/><path class="bJ" d="m2113.4 1426l-3.8 18.4c-0.3 1.3-1.3 2.3-2.6 2.5-1.5 0.1-3.7 0.2-5.9-0.1-2-0.3-3.3-2.3-3-4.5l2.7-16.3z"/><path class="bK" d="m2016.2 1467.7c9.3-0.3 14.1-1.4 16.6-2.4q0 1.4 0 2.9c0 1-0.8 1.8-1.8 1.8l-51-0.3c-1.6 0-2.6-1.9-1.9-3.4 6.7 0.6 23.8 1.8 38.1 1.4z"/><path class="bL" d="m1978.1 1466.3q0.1-0.2 0.2-0.4c4.5-6.3 16-18.8 38.7-24.3l10.9-0.3c0 0 4.8 8.4 4.9 24-2.5 1-7.3 2.1-16.6 2.4-14.3 0.4-31.4-0.8-38.1-1.4z"/><path class="bM" d="m2029.9 1424.8c-0.1 0.8-1.6 13.1-2.2 17.9-0.1 1.2-1 2-2 2.2-1.8 0.2-4.8 0.4-7.5-0.1-1.4-0.3-2.4-1.7-2.4-3.3v-19.3z"/><path class="bN" d="m2106.1 1185.1c0 0 17.4 154.8 7.8 251.6 0 0-11.7 0-17.5-2 0 0-18.1-151.3-23.9-194.6-0.2-1.7-2.6-1.7-2.9-0.1-7.2 36.4-35.6 179.3-38.9 192.8 0 0-9.7 3.9-17.5 0 0 0 15.5-207 27.1-243.8z"/><path class="bO" d="m2133.2 1065.2c-9.7 15.4-27.1 119.9-27.1 119.9-21.3 11.6-65.8 3.9-65.8 3.9-11.6-36.8-27.1-120-27.1-120l-3.8-60c58-15.4 131.6-3.8 131.6-3.8 1.9 19.3-7.8 60-7.8 60z"/><path class="bP" d="m2089.4 942l7.8 59.8c0 0-20.5 9.4-34.8-0.4l3.1-34.9z"/><path class="bQ" d="m2140.9 1005.2c0 0 114.2 123.8-20.3 171.2v-9.7c0 0 50.3-42.5 11.6-100.6 0 0 4.9-55.1 8.7-60.9z"/><path class="bR" d="m2121.6 1175.5c-5.8 1.9-19.4-2-25.2 0-5.8 1.9-9.6-5.8-9.6-5.8 0 0 0-5.9 7.7-9.7 7.7-3.9 25.2 7.7 25.2 7.7 3.8 0 1.9 7.8 1.9 7.8z"/><path class="bS" d="m1931.4 952.4l24.6 8.3c3 0.9 5 3.9 5.2 7.7l-1.2 41c0.4 6.4-4.9 12.1-9.9 10.6l-19.7-6.7c-1.9-0.6-3.2-2.6-3.2-5.1l-0.5-51.1c0-2.9 2.4-5.4 4.7-4.7z"/><path class="bT" d="m1926.7 1005.2c0 0-7.7-24.7-3.8-28.8 4-4.2 11.7-15.6 12.3-6.2 0.5 9.3 5.2 49.7-8.5 35z"/><path class="bU" d="m2077.9 928.3l1.7 45.5-26.6 5.6c0 0-8.8-46.8-8.7-47.5 2-11.9 33.6-3.6 33.6-3.6z"/><path class="bV" d="m2056.3 933.8c-6.5 3.8-19.3 6.5-22.3-1.2-3-7.8-1.4-20.9 10.5-22.8 6.5-1 9.8 2.4 11.4 5.7 1 1.9 3.2 2.6 5.2 1.7 1-0.5 1.8-0.4 2.5 0 1.6 0.9 3.6 0.5 4.8-0.7 2.9-2.9 7.9-6 14.4-3 6.5 3.1 6.1 8.2 4.9 11.8-0.7 2 0.3 4.2 2.3 4.9 7.9 3 6.6 9.3 5.4 12.4-0.4 1-1.2 1.8-2.2 2.2-2.7 1.1-8.4 3.8-9 8.5-0.7 5-0.3 22.8-0.1 29.2 0 1.4-0.8 2.7-2 3.4-7.6 4.4-17.6 7.5-22.8 8.9-1.9 0.6-4-0.5-4.7-2.4-2.7-7.6-4.6-16.4-5.4-20.8-0.4-2.1 1-4.2 3.1-4.6 3.6-0.6 8.6 0.8 14 2.4 6.3 1.9 7.8-4.2 8.2-6.2q0.1-0.5 0-1.1l-2.7-23.5c-0.2-1.2-0.9-2.3-1.9-2.9-2.8-1.8-8.8-4.7-13.6-1.9z"/><path class="bW" d="m2083.8 961.2c0 0-3.3-12.9 1.7-16.2 5.1-3.3 12.5-1.4 10.7 8.5-2.2 12.3-12.4 7.7-12.4 7.7z"/><path class="a" d="m2031.8 924.7c-0.1 0-0.3-0.1-0.4-0.2-4.3-9.3 5.8-16.7 5.9-16.8 0.2-0.1 0.4 0 0.6 0.1 0.1 0.2 0.1 0.5-0.1 0.6-0.1 0.1-9.7 7.1-5.6 15.7 0.1 0.2 0 0.5-0.2 0.6q-0.1 0-0.2 0z"/><path class="e" d="m1872.1 953.7v84.6c0 6.9-4.2 12.5-9.4 12.5h-308.1c-4.3 0-8.1 3.9-9.1 9.5l-5.5 29.4c-0.8 3.9-4.8 4.2-5.9 0.5l-7.1-24.9c-1.4-4.9-4.9-8.1-8.8-8.1h-13.3c-5.1 0-9.3-5.5-9.3-12.4v-87c0-6.8 4.1-12.4 9.3-12.5l357.7-4c5.3-0.1 9.5 5.5 9.5 12.4z"/><path class="d" d="m1543.3 957.8c20.8 0 37.7 17.3 37.7 38.8 0 21.4-16.9 38.7-37.7 38.7-20.9 0-37.8-17.3-37.8-38.7 0-21.5 16.9-38.8 37.8-38.8z"/><path class="bX" d="m1556.9 980.8c0 7-5.6 14.5-12.6 14.5-6.9 0-12.6-7.5-12.6-14.5 0-6.9 5.7-11.9 12.6-11.9 7 0 12.6 5 12.6 11.9z"/><path class="bY" d="m1521.5 1016.7l-1.3-4.8c-1-3.7 1-7.7 4.8-9 13.2-4.4 26.2-5 38.7-0.4 3.8 1.4 5.7 5.5 4.5 9.3l-1.6 5.2c-1 3.1-3.9 5.2-7.1 5.2h-30.8c-3.4 0-6.3-2.3-7.2-5.5z"/><path class="bZ" d="m1842.7 1006.7c0 4-3.4 7.3-7.7 7.3h-224.9c-4.2 0-7.6-3.3-7.6-7.3 0-4.1 3.4-7.3 7.6-7.3h224.9c4.3 0 7.7 3.2 7.7 7.3z"/><path class="c0" d="m1736.2 1030.2c0 3.7-3 6.7-6.7 6.7h-117.9c-3.7 0-6.6-3-6.6-6.7 0-3.7 2.9-6.7 6.6-6.7h117.9c3.7 0 6.7 3 6.7 6.7z"/><path class="c1" d="m1842.8 1030.2c0 3.7-3 6.7-6.7 6.7h-85c-3.7 0-6.7-3-6.7-6.7 0-3.7 3-6.7 6.7-6.7h85c3.7 0 6.7 3 6.7 6.7z"/><path class="d" d="m1734.1 971.1c0 5.2-4.2 9.4-9.3 9.4h-113.6c-5.1 0-9.3-4.2-9.3-9.4v-0.7c0-5.2 4.2-9.4 9.3-9.4h113.6c5.1 0 9.3 4.2 9.3 9.4z"/><path class="c2" d="m837.7 999.4c-0.1 74.3-0.7 330.8-5.1 421.6-0.5 9.6-7.2 17.2-15.5 17.3-40.7 0.6-189.9 1.3-256.4-3.5-13.9-0.9-24.6-14.3-24.5-30.6 0.3-78 2.1-297.5 11.6-397.8 1.1-12 9.4-21.4 19.7-22.4 44.5-4.2 194.5-13.6 251.9-7.9 10.4 1 18.3 11.1 18.3 23.3z"/><path class="c3" d="m819 1021.8c0.9 60 3.4 259.7-0.5 333.4-0.5 10.8-8 19.4-17.2 19.8-38 1.8-167.5 4.6-223-1.8-10-1.2-17.6-10.8-17.9-22.6-1.5-61.2-5.4-247.2-1.7-320.1 0.6-11.7 8.5-21 18.4-21.8 41.1-3.4 178.8-10.6 226-6.6 8.9 0.8 15.8 9.3 15.9 19.7z"/><path class="c4" d="m721.8 988.1c-0.1 2.3-1.7 4.2-3.6 4.2-9.6 0.4-36.7 1.5-48.8 2-2.4 0.1-4.3-2.4-3.7-5.1v-0.5c0.4-1.9 1.8-3.3 3.4-3.4 8.2-0.7 32.9-2.6 49.2-1.5 2 0.1 3.5 2 3.5 4.3z"/><path class="c5" d="m784.3 1189.2c0 52.7-42.7 95.4-95.4 95.4-52.7 0-95.4-42.7-95.4-95.4 0-52.7 42.7-95.4 95.4-95.4 52.7 0 95.4 42.7 95.4 95.4z"/><path class="c6" d="m744.8 1228.9c-1.6 2.2-3.7 4.1-6.1 5.6-15.7 9.9-45.7 3.7-72.2-16.2-26.6-19.9-41-46.9-35.9-64.8 0.7-2.7 1.9-5.2 3.6-7.4 3.2-4.3 8.2-6.8 13.5-6.9 5.3-0.1 10.4 2.3 13.7 6.5l4.6 5.7c4.2 5.4 4.3 12.9 0.2 18.4l-5.5 7.4c-0.1-0.1-0.2-0.1-0.3 0-0.1 0-0.2 0.2-0.1 0.3 2.7 8.7 9.1 17.7 18.3 24.6 9.8 7.3 20.9 10.9 30.5 10.6l6.1-8.2c3.6-4.7 9.9-6.5 15.4-4.3l6.9 2.7c4.9 2 8.6 6.1 10.1 11.2 1.4 5.1 0.4 10.6-2.8 14.8z"/><path class="c7" d="m575.3 1421.6c-16 0-29.3-13-29.3-29.1v-49.8c0-0.5 0.4-1 1-1 0.6 0 1 0.5 1 1v49.8c0 14.9 12.4 27 27.3 27 0.6 0 1.1 0.5 1.1 1.1 0 0.6-0.5 1-1.1 1z"/><path class="c8" d="m424.3 1431.3l52 23.9c1.3 0.6 2.3 1.7 2.8 3 0.7 1.6-0.5 3.3-2.2 3.4-11.3 0.5-42.8-0.7-57.5-1.3-4.3-0.2-7.7-3.9-7.3-8.2 1-11.1 3-22.3 3-22.3z"/><path class="c9" d="m426.6 1421.2l3.8 14.9c-6.3 4.8-15.4 0.5-15.4 0.5l-1.6-13.3z"/><path class="ca" d="m414.6 1172c-0.6 3.5-3.6 174.2 14.6 250.7 0.3 1.2-0.3 2.5-1.5 3-2.8 1.1-8.3 2.8-14.9 3-2 0.1-3.8-1.3-4.4-3.2-5.2-17.8-30.2-106.7-33.5-191.6-3.6-94.9 0-3.2 0-3.2l2.2-58.7z"/><path class="cb" d="m366.9 1436.3c6.4 7 8.5 16 9.1 21.4 0.4 2.8-1.8 5.2-4.5 5.2-6 0.1-13.5-0.6-18.4-1-2.7-0.3-4.6-2.9-4.1-5.6 3.1-15 6.2-20.6 6.2-20.6z"/><path class="cc" d="m365.3 1417.7l1.8 21.7c-7.3 2-10.9-0.7-10.9-0.7l-3.8-20.2z"/><path class="cd" d="m416.1 1167.8l-2 31-27 19.2c-2.2 1.6-3.8 3.8-4.5 6.4-13.9 50.9-12.4 179.6-13.2 200.5-0.1 1.6-1.1 3-2.7 3.5-4.4 1.2-8.9 0.9-11.6 0.4-1.6-0.2-2.9-1.5-3.3-3-6.1-26-24.3-158.5-9.4-248.5z"/><path class="ce" d="m483.1 999.4c2.3 9.8 7.6 26.5 18.9 39.6-14.8 8.3-32.8 14.6-54.6 17.3 0 0-26.9 91.5-32.6 124 0 0-39.1 14.7-73.7 5.6 0 0-11-89.7 2.4-167.5 0 0 49.3-12.5 94-11.7 13.8 0.2 29.8-2.4 45.6-7.3z"/><path class="cf" d="m502 1039c-11.3-13.1-16.6-29.8-18.9-39.6 35.4-11 69.9-33.6 76.5-61.4 0 0 5.6-2.5 10 2.8 0 0-8.7 65.1-67.6 98.2z"/><path class="cg" d="m568.5 942.2c0.5 1.4-4.9 3.7-8-2.3-0.1-2.9-1.8-15.1-0.1-17.5 9.1-12.4 26.8-28 26.8-28 2.9 3 0.5 5.9 0.5 5.9l-8.6 8.9c1.8 3.2 4 6 5 9.9 0.8 2.9 0.3 6.1-1.2 8.8-1.5 2.7-3.5 6.3-5.5 9-3.7 5.2-8.9 5.3-8.9 5.3z"/><path class="ch" d="m576.1 920c-1.7 2.8-4 15.9-4 15.9l-7-7.7 2.4-6.6 7.9-6.6c1.6 0.8 2.5 2.2 0.7 5z"/><path class="ci" d="m330 1092.6c-14-7.1-27.3-9.2-35.2-9.8 6.9-36 48.7-64.4 48.7-64.4l17.1 43.3c0 0-24.2 16.7-30.6 30.9z"/><path class="cj" d="m421.2 970.4l-4.6 35.6c-0.3 2-1.5 3.9-3.2 5-16.9 10.6-30.9 4.5-34.7 2.3-0.7-0.3-0.9-1.1-0.7-1.8l14.2-41.1z"/><path class="ck" d="m423.2 932.3c0 0 15.6 29.4 13.6 41.3-2 11.8-21.4 11-38.3 1.3l-11.8-31.7z"/><path class="cl" d="m397.1 960.3c-0.6 0.3-0.9 0.9-0.7 1.5l4.4 12.9c0.3 0.8-0.4 1.7-1.2 1.6-10.3-1.2-19.7-11-21.8-13.3-0.3-0.3-0.7-0.5-1.1-0.4-2.4 0.3-11 1-11.5-6.7-0.3-5.5 2.8-7.6 5.2-8.3 0.8-0.3 1.1-1.3 0.5-2-2-2-4.1-6.2-0.8-13.5 4-8.9 12.7-8.3 16.3-7.6 0.8 0.2 1.5-0.5 1.4-1.2-0.1-2.7 0.7-7.9 7.9-11.1 7.6-3.4 13.1 2.2 15.2 4.9 0.5 0.7 1.4 0.7 1.9 0 12.8-16.5 20.8 4.3 17.7 12.5-3.1 8.5-17.9 12.2-27.9 14.6-10 2.4-7.1 4.2-7.1 4.2 0.7 3.4 3 7.3 4.3 9.2 0.4 0.6 0.2 1.4-0.5 1.8z"/><path class="cm" d="m404.5 966.9c-5.4 2.4-16.2-0.5-15.4-6.9 0.8-6.5 11.9 1.2 11.9 1.2z"/><path class="cn" d="m330 1092.6c-19 38.1 15.9 57.1 15.9 57.1l-9.5 7.9c-69.8-9.5-41.3-74.5-41.3-74.5 14.3-7.9 34.9 9.5 34.9 9.5z"/><path class="co" d="m345.2 1117.3l24.6 8.3c3 0.9 5 3.9 5.3 7.7l-1.3 41c0.4 6.4-4.9 12.1-9.9 10.6l-19.7-6.7c-1.9-0.6-3.2-2.6-3.2-5.1l-0.5-51c0-3 2.5-5.4 4.7-4.8z"/><path class="cp" d="m338.9 1165.9c-0.7-0.7-5.3-9.1-4.1-20.3 1.2-11.3-1-16.3 4.2-15.9 5.3 0.4 9.6 1.3 9 6.8-0.6 5.6 1.1 40.7-9.1 29.4z"/></svg>