<svg version="1.2" xmlns="http://www.w3.org/2000/svg" viewBox="0 0 180 180" width="60" height="60">
	<title>2279-ai</title>
	<style>
		.s0 { fill: #ffaa4e } 
		.s1 { opacity: .4;fill: #ffffff } 
		.s2 { opacity: .3;fill: #000000 } 
		.s3 { fill: #18a2b5 } 
		.s4 { opacity: .3;fill: #ffffff } 
		.s5 { fill: #e04240 } 
		.s6 { fill: #ee7e50 } 
		.s7 { fill: #ffc664 } 
		.s8 { fill: #2ebcee } 
		.s9 { fill: #e92334 } 
	</style>
	<g id="Icons">
		<g id="&lt;Group&gt;">
			<g id="&lt;Group&gt;">
				<path id="&lt;Path&gt;" class="s0" d="m50 125.5c0-2.2 1.8-4 4-4h70.5c2.2 0 4 1.8 4 4v0.4c0 2.2-1.8 4-4 4h-70.5c-2.2 0-4-1.8-4-4z"/>
				<path id="&lt;Path&gt;" class="s1" d="m54.3 122.6c0.3-0.5 0.9-0.8 1.5-0.8h66.8c0.7 0 1.3 0.3 1.5 0.8q-0.2-0.1-0.5-0.1h-68.7q-0.3 0-0.6 0.1z"/>
				<path id="&lt;Path&gt;" class="s2" d="m54.9 128.4h68.7q0.3 0 0.5-0.1c-0.2 0.7-0.8 1.2-1.5 1.2h-66.8c-0.6 0-1.2-0.5-1.5-1.2q0.3 0.1 0.6 0.1z"/>
			</g>
			<g id="&lt;Group&gt;">
				<path id="&lt;Path&gt;" class="s2" d="m125.1 121.5h0.5v8.4h-0.5z"/>
				<path id="&lt;Path&gt;" class="s2" d="m104.6 121.5h0.5v8.4h-0.5z"/>
				<g id="&lt;Group&gt;">
					<path id="&lt;Path&gt;" class="s3" d="m111.8 111.9v27.6c0 0.8-0.4 1.4-1.1 1.7q-0.4 0.2-0.8 0.2h-2.9q-0.5 0-0.9-0.2c-0.6-0.3-1-0.9-1-1.7v-27.6c0-0.7 0.4-1.4 1-1.7q0.4-0.2 0.9-0.2h2.9q0.4 0 0.8 0.2c0.7 0.3 1.1 1 1.1 1.7z"/>
					<path id="&lt;Path&gt;" class="s2" d="m111.8 111.9v27.6c0 0.8-0.4 1.4-1.1 1.7v-31c0.7 0.3 1.1 1 1.1 1.7z"/>
					<path id="&lt;Path&gt;" class="s4" d="m106.1 110.2v31c-0.6-0.3-1-0.9-1-1.7v-27.6c0-0.7 0.4-1.4 1-1.7z"/>
				</g>
				<g id="&lt;Group&gt;">
					<path id="&lt;Path&gt;" class="s3" d="m118.4 114.4v22.7c0 0.6-0.4 1.1-1 1.4q-0.4 0.1-0.9 0.1h-2.8q-0.5 0-0.9-0.1c-0.6-0.3-1-0.8-1-1.4v-22.7c0-0.6 0.4-1.2 1-1.4q0.4-0.2 0.9-0.2h2.8q0.5 0 0.9 0.2c0.6 0.2 1 0.8 1 1.4z"/>
					<path id="&lt;Path&gt;" class="s2" d="m118.4 114.4v22.7c0 0.6-0.4 1.1-1 1.4v-25.5c0.6 0.2 1 0.8 1 1.4z"/>
					<path id="&lt;Path&gt;" class="s4" d="m112.8 113v25.5c-0.6-0.3-1-0.8-1-1.4v-22.7c0-0.6 0.4-1.2 1-1.4z"/>
				</g>
				<g id="&lt;Group&gt;">
					<path id="&lt;Path&gt;" class="s3" d="m125.1 117.3v16.8c0 0.5-0.4 0.9-1 1.1q-0.4 0.1-0.9 0.1h-2.9q-0.4 0-0.8-0.1c-0.7-0.2-1.1-0.6-1.1-1.1v-16.8c0-0.4 0.4-0.8 1.1-1q0.4-0.1 0.8-0.1h2.9q0.5 0 0.9 0.1c0.6 0.2 1 0.6 1 1z"/>
					<path id="&lt;Path&gt;" class="s2" d="m125.1 117.3v16.8c0 0.5-0.4 0.9-1 1.1v-18.9c0.6 0.2 1 0.6 1 1z"/>
					<path id="&lt;Path&gt;" class="s4" d="m119.5 116.3v18.9c-0.7-0.2-1.1-0.6-1.1-1.1v-16.8c0-0.4 0.4-0.8 1.1-1z"/>
				</g>
			</g>
			<g id="&lt;Group&gt;">
				<path id="&lt;Path&gt;" class="s2" d="m52.8 121.5h0.6v8.4h-0.6z"/>
				<path id="&lt;Path&gt;" class="s2" d="m73.3 121.5h0.6v8.4h-0.6z"/>
				<g id="&lt;Group&gt;">
					<path id="&lt;Path&gt;" class="s3" d="m73.3 111.9v27.6c0 0.8-0.4 1.4-1 1.7q-0.4 0.2-0.9 0.3h-2.8q-0.5-0.1-0.9-0.3c-0.6-0.3-1-0.9-1-1.7v-27.6c0-0.7 0.4-1.4 1-1.7q0.4-0.2 0.9-0.2h2.8q0.5 0 0.9 0.2c0.6 0.3 1 1 1 1.7z"/>
					<path id="&lt;Path&gt;" class="s2" d="m73.3 111.9v27.6c0 0.8-0.4 1.4-1 1.7v-31c0.6 0.3 1 1 1 1.7z"/>
					<path id="&lt;Path&gt;" class="s4" d="m67.7 110.2v31c-0.6-0.3-1-0.9-1-1.7v-27.6c0-0.7 0.4-1.4 1-1.7z"/>
				</g>
				<g id="&lt;Group&gt;">
					<path id="&lt;Path&gt;" class="s3" d="m66.7 114.4v22.7c0 0.6-0.4 1.1-1 1.4q-0.4 0.1-0.9 0.1h-2.9q-0.4 0-0.8-0.1c-0.7-0.3-1.1-0.8-1.1-1.4v-22.7c0-0.6 0.4-1.1 1.1-1.4q0.4-0.2 0.8-0.2h2.9q0.5 0 0.9 0.2c0.6 0.3 1 0.8 1 1.4z"/>
					<path id="&lt;Path&gt;" class="s2" d="m66.7 114.4v22.7c0 0.6-0.4 1.1-1 1.4v-25.5c0.6 0.3 1 0.8 1 1.4z"/>
					<path id="&lt;Path&gt;" class="s4" d="m61.1 113v25.5c-0.7-0.3-1.1-0.8-1.1-1.4v-22.7c0-0.6 0.4-1.1 1.1-1.4z"/>
				</g>
				<g id="&lt;Group&gt;">
					<path id="&lt;Path&gt;" class="s3" d="m60 117.3v16.8c0 0.5-0.4 0.9-1 1.1q-0.4 0.1-0.9 0.1h-2.8q-0.5 0-0.9-0.1c-0.6-0.2-1-0.6-1-1.1v-16.8c0-0.4 0.4-0.8 1-1q0.4-0.1 0.9-0.1h2.8q0.5 0 0.9 0.1c0.6 0.2 1 0.6 1 1z"/>
					<path id="&lt;Path&gt;" class="s2" d="m60 117.3v16.8c0 0.5-0.4 0.9-1 1.1v-18.9c0.6 0.2 1 0.6 1 1z"/>
					<path id="&lt;Path&gt;" class="s4" d="m54.4 116.3v18.9c-0.6-0.2-1-0.6-1-1.1v-16.8c0-0.4 0.4-0.8 1-1z"/>
				</g>
			</g>
		</g>
		<g id="&lt;Group&gt;">
			<g id="&lt;Group&gt;">
				<path id="&lt;Path&gt;" class="s5" d="m106.9 82.7c-2.5 5.2-8.3 11.6-11.8 14.4 1.3-6.4 5.4-12.5 4.6-19.2-0.9-7.5-7.3-9.3-9.4-15.9-0.6 13.3-13.4 15.8-7.8 28.1 2.1 4.4 6.5 6.1 10.2 6.7-3.5-0.3-9.5-0.9-12.1-1.9-8.8-3.4-16.6-12.9-10.4-25.2 1.6-3.3 3.6-5 7-8.9-1.3 5.7 2.2 9.1 5.6 10.5-2-5.6-1.2-12.4 1.7-17.5 2.9-5.3 5.9-10 6.7-16.7 1.4 10.8 5.7 20.6 11.7 28.6 3.5 4.7 6.8 11.1 4 17z"/>
				<path id="&lt;Path&gt;" class="s6" d="m95.1 97.1c0 0-2.3-0.3-2.4-0.3-3.7-0.6-8.1-2.3-10.2-6.7-5.6-12.3 7.2-14.8 7.8-28.1 2.1 6.6 8.5 8.4 9.4 15.9 0.8 6.7-1.8 13.9-4.6 19.2z"/>
				<path id="&lt;Path&gt;" class="s7" d="m96.1 87.9c-0.3 2.8-1.2 5.2-1 9.2-1.7-0.9-7.7-4.5-6.6-9.2 1.1-4.6 3.4-6 3.8-9.2 0.1 0 4.2 4.4 3.8 9.2z"/>
			</g>
			<g id="&lt;Group&gt;">
				<path id="&lt;Path&gt;" class="s3" d="m126.7 113.9l-10.1-13.1c10.5-8.1 16.5-20.4 16.5-33.7 0-13-5.8-25.2-16-33.3l10.4-13c14.1 11.3 22.2 28.2 22.2 46.3 0 18.5-8.4 35.5-23 46.8z"/>
				<path id="&lt;Path&gt;" class="s5" d="m54.2 113.9c-14.6-11.2-23-28.3-23-46.8 0-32.7 26.6-59.3 59.3-59.3 13.4 0 26.5 4.6 37 13l-10.4 12.9c-7.6-6.1-16.8-9.3-26.6-9.3-23.6 0-42.7 19.1-42.7 42.7 0 13.3 6 25.6 16.5 33.7z"/>
			</g>
		</g>
		<path id="CountCalorie" class="s8" aria-label="CountCalorie"  d="m22.8 154.2q0 0.2-0.1 0.3 0 0.2-0.1 0.5-0.2 0.2-0.3 0.3 0 0.1 0 0.1l-0.2 0.1q-0.1 0-0.2 0 0 0-0.1 0-0.3 0.2-0.4 0.2-0.2 0-0.3 0.1 0 0-0.1 0 0 0.1-0.2 0.2-0.3 0-0.3 0-0.1 0-0.2 0.1-0.1 0-0.2 0-0.1 0-0.2 0-0.3 0.1-0.5 0.1-0.1 0-0.1 0.1-0.2 0.1-0.3 0.1-0.1 0-0.3 0-0.3 0.2-0.7 0.3-0.2 0.1-0.3 0.1 0 0-0.1 0-0.1 0.1-0.2 0.1 0 0-0.2 0.1-0.1 0-0.2 0 0 0-0.1 0-0.1 0-0.1 0-0.1 0.1-0.4 0.3-0.1 0-0.4 0-0.3 0-0.4 0-0.2 0-0.2 0-0.1-0.1-0.1-0.1 0 0-0.2 0-0.1-0.1-0.2-0.1l-0.5-0.4v-0.3q-0.1-0.2-0.1-0.3 0-0.1 0-0.2 0-0.4 0.2-0.6 0.1-0.2 0.1-0.3 0.1 0 0.1-0.1 0.3-0.1 0.4-0.1 0.1-0.1 0.2-0.2 1 0 1.3-0.5 0-0.2 0-0.3 0 0 0-0.1-0.2-0.3-0.3-0.4-0.3-0.2-0.4-0.3-0.1-0.1-0.2-0.3-0.3-0.1-0.4-0.2 0 0-0.1-0.1-0.1 0-0.2 0-0.1-0.1-0.1-0.1-0.3-0.1-0.4-0.1-0.1 0-0.2 0-0.2 0-0.3 0-0.1 0-0.2 0-0.3 0-0.4-0.1l-0.4 0.2q-0.3 0-0.4 0-0.1 0-0.3 0-0.2 0.1-0.3 0.1-0.1 0.1-0.2 0.2-0.3 0-0.5 0-0.1 0.1-0.1 0.1l-0.3 0.2q-0.3 0.1-0.3 0.1-0.2 0.1-0.3 0.2-0.5 0.2-0.6 0.3-0.1 0-0.2 0.2-0.3 0.1-0.4 0.2-0.1 0.1-0.2 0.2-0.2 0.1-0.3 0.2-0.1 0.2-0.4 0.3 0 0-0.1 0.1l-0.1 0.1-0.3 0.2q-0.1 0.2-0.2 0.3-0.1 0-0.1 0.1-0.1 0.3-0.4 0.4-0.1 0.3-0.2 0.4l-0.1 0.3q-0.2 0.3-0.3 0.5-0.1 0.1-0.1 0.2-0.1 0.1-0.1 0.2-0.1 0.1-0.1 0.4-0.3 0.2-0.3 0.2 0 0.1-0.1 0.2-0.1 0.4-0.2 0.6 0 0.1-0.1 0.3 0 0.4-0.1 0.6 0 0.1 0 0.1-0.1 0.2-0.1 0.3 0 0.1-0.1 0.1-0.1 0.5-0.1 0.5-0.1 0.2-0.1 0.3 0 0.1 0 0.3 0 0.2 0 0.3 0 0.2-0.1 0.3 0 0.2 0 0.3 0 0.1 0.1 0.4-0.2 0.2-0.2 0.3 0.1 0.2 0.1 0.2v1q0 0.1 0 0.2 0 0.1 0.1 0.3 0 0.2 0 0.2 0 0.1 0.1 0.1 0 0.3 0.1 0.4 0 0 0.1 0.1 0 0.4 0.1 0.5 0 0.1 0.2 0.2 0 0.3 0.1 0.4 0 0.1 0.1 0.2 0.1 0.4 0.1 0.5 0.1 0.1 0.1 0.2 0.1 0.2 0.1 0.3 0.1 0.1 0.2 0.2 0.1 0.3 0.3 0.3 0 0.1 0 0.2 0.1 0.1 0.2 0.2 0 0.1 0 0.1l0.2 0.1q0.1 0.1 0.1 0.1 0.2 0.1 0.3 0.1 0.1 0.1 0.3 0.2 0 0.2 0.1 0.3 0 0 0.3 0 0.2 0.1 0.4 0.3 0.2 0.1 0.3 0.1 0.3 0.2 0.6 0.2 0.1 0.1 0.2 0.1 0 0 0.1 0 0.3 0.1 0.4 0.1 0.4 0.1 0.6 0.1 0.1 0 0.2 0.1 0.3 0 0.4 0 0.1 0 0.2 0.1 0.2-0.1 0.2-0.1 0.1 0 0.2 0l0.9 0.1q0.3 0 0.5 0 0.1 0 0.2 0 0.1-0.1 0.2-0.1 0.3-0.1 0.4-0.1 0.1 0 0.2 0 0.3-0.1 0.4-0.1 0.2 0 0.3 0 0.1-0.1 0.2-0.1 0.1-0.1 0.2-0.1l0.3-0.2q0.3-0.1 0.3-0.1 0.2-0.1 0.2-0.1 0.1-0.1 0.2-0.1 0.3-0.1 0.3-0.1 0.4-0.2 0.5-0.3 0.1 0 0.2-0.2 0.3-0.1 0.4-0.2 0-0.1 0.1-0.2 0-0.1 0.3-0.3 0.2-0.2 0.2-0.2 0.1-0.1 0.1-0.1 0.1-0.1 0.3-0.3 0.1-0.2 0.2-0.3 0 0 0.1-0.1 0.2-0.3 0.3-0.4 0.1 0 0.2 0 0.1-0.1 0.2-0.1 0.1 0 0.2-0.1 0.2 0 0.4 0.1 0.1 0 0.2 0.1 0.1 0.1 0.2 0.2 0.1 0 0.2 0.1 0 0 0.1 0.1 0 0 0.1 0.1 0 0.1 0 0.3 0.1 0.3 0.1 0.4 0 0.1 0 0.2l-0.4 0.9q-0.1 0.3-0.2 0.4-0.1 0-0.1 0.1-0.1 0.1-0.1 0.2-0.2 0.3-0.4 0.4-0.1 0.1-0.1 0.1-0.2 0.2-0.2 0.3-0.1 0-0.1 0.1-0.2 0.1-0.2 0.1 0 0-0.1 0.1l-0.1 0.1-0.1 0.2q-0.2 0-0.3 0-0.3 0.2-0.3 0.3-0.2 0-0.3 0.1 0 0 0 0.1-0.2 0-0.3 0.1-0.1 0.1-0.1 0.1-0.1 0.1-0.2 0.1-0.2 0.1-0.3 0.1-0.2 0-0.4 0.1l-0.5 0.2q-0.1 0-0.1 0.1-0.1 0-0.2 0.1-0.2 0-0.3 0-0.1 0-0.2 0-0.2 0.2-0.4 0.3-0.2 0-0.4 0h-0.4q-0.3 0.2-0.4 0.2-0.3 0.1-0.4 0.1 0 0.1-0.1 0.1-0.2 0-0.3 0-0.1 0-0.2 0-0.2 0.1-0.3 0.1 0 0-0.1 0h-0.1l-0.2-0.1q-0.2-0.1-0.2-0.1-0.5 0.1-0.6 0-0.4 0-0.6 0-0.2 0-0.3-0.1-0.2 0-0.3 0 0 0-0.1 0-0.3-0.1-0.4-0.1-0.2-0.1-0.3-0.2-0.2 0-0.3 0-0.1 0-0.2 0l-0.4-0.2q-0.3 0-0.4-0.1-0.2-0.1-0.4-0.2-0.2-0.1-0.3-0.2-0.2 0-0.3 0-0.1-0.1-0.3-0.2-0.1 0-0.2 0l-0.3-0.1q0 0-0.1-0.1-0.1-0.1-0.1-0.1-0.1-0.1-0.1-0.1-0.2-0.1-0.4-0.2 0 0 0 0-0.1-0.1-0.2-0.1-0.1 0-0.2-0.1l-0.1-0.2q-0.1-0.2-0.2-0.2-0.2-0.2-0.3-0.2 0-0.1-0.1-0.2l-0.3-0.3q-0.1 0-0.1-0.2l-0.1-0.1q-0.1 0-0.1-0.1-0.1-0.1-0.1-0.1-0.1-0.3-0.2-0.4-0.1-0.2-0.1-0.3-0.3-0.3-0.3-0.4 0-0.1-0.1-0.1 0-0.1 0-0.3-0.1-0.1-0.1-0.1-0.1-0.1-0.1-0.2l-0.2-0.3q-0.3-0.3-0.2-0.7-0.1-0.3-0.2-0.4-0.1-0.2-0.1-0.3-0.1-0.1-0.1-0.2-0.2-0.3-0.2-0.4 0-0.3 0-0.3 0-0.1 0-0.2-0.2-0.6-0.1-0.9 0-0.2-0.1-0.5 0-0.4 0-0.6 0.2-0.4 0.2-0.6 0-0.2 0-0.3 0-0.2 0-0.3 0-0.3 0-0.4 0-0.1 0-0.1 0-0.2 0-0.4 0-0.1 0.1-0.3 0.1-0.3 0.1-0.3 0-0.1 0-0.1 0-0.6 0-0.8 0.1-0.1 0.1-0.4 0.2-0.2 0.2-0.2 0.1-0.1 0.1-0.1 0-0.3 0-0.5 0.1-0.2 0.2-0.3 0.1-0.1 0.2-0.2 0-0.5 0.3-0.8 0-0.4 0.1-0.6 0.3-0.3 0.4-0.5 0.1-0.2 0.2-0.4 0.1-0.1 0.2-0.3 0.1-0.2 0.2-0.5 0.2-0.3 0.3-0.4 0.1-0.2 0.2-0.3 0.1-0.1 0.1-0.2 0 0 0.2-0.2l0.1-0.1q0-0.1 0.1-0.2 0.1 0 0.2-0.1 0 0 0.1-0.1 0.2-0.2 0.4-0.3 0.1 0 0.2-0.1 0.2-0.2 0.2-0.2 0-0.1 0.1-0.1 0.2-0.2 0.3-0.2 0.1-0.1 0.1-0.1 0.1-0.1 0.2-0.2 0.1-0.1 0.2-0.1 0.3-0.1 0.3-0.2 0 0 0.1-0.1l0.4-0.3q0.4-0.3 0.5-0.4 0.2-0.1 0.2-0.1 0.3-0.1 0.4-0.1 0 0 0.2-0.1 0.2-0.1 0.3-0.1 0.1 0 0.1-0.1 0.1 0 0.2 0 0-0.1 0.1-0.1 0.1 0 0.1-0.1 0.1 0 0.2 0 0-0.1 0.1-0.1 0 0 0 0 0.3-0.1 0.4-0.1 0.1 0 0.2-0.1 0.5-0.2 0.8-0.3 0.3 0 0.5 0.1 0.3-0.1 0.5-0.1 0.3 0 0.3 0 0.3 0 0.4 0 0.1 0 0.1 0h0.5q0.1 0 0.4 0.1 0.3 0 0.4 0.1 0.1 0 0.2 0 0 0 0.2 0.1 0.1 0 0.2 0.1l0.3 0.1q0 0 0.1 0.1 0 0 0.2-0.1 0.2 0.2 0.2 0.3 0 0 0.1 0 0.1 0 0.3 0.2 0.2 0.1 0.3 0.1 0.1 0 0.2 0.1 0.1 0 0.1 0 0.1 0.1 0.2 0.3l0.2 0.2q0.4 0.4 0.5 0.6 0.2 0.2 0.3 0.4 0.1 0.1 0.2 0.2 0.1 0.2 0.2 0.4 0.1 0.2 0.1 0.3 0 0.1 0.1 0.1 0.1 0.2 0.2 0.2 0 0 0.1-0.1 0.4-0.1 0.5-0.1 0.1 0 0.2 0 0.3-0.2 0.5-0.2 0.1-0.1 0.3-0.1 0.1 0 0.2 0 0.1 0 0.4-0.1 0.3 0.2 0.4 0.3 0 0 0 0 0.1 0.1 0.1 0.1 0.1 0 0.2 0 0 0.1 0.1 0.2 0.1 0.2 0.1 0.2 0 0.1 0.1 0.2 0 0.1 0 0.2 0.1 0.2 0.1 0.3zm13.8 12.9l-0.2 0.4q-0.1 0.2-0.3 0.5-0.1 0.2-0.2 0.3-0.1 0.1-0.2 0.2-0.1 0-0.1 0.1-0.1 0.1-0.1 0.2 0 0-0.2 0.1-0.1 0.2-0.2 0.3 0 0.1-0.2 0.1-0.1 0.2-0.1 0.3-0.3 0.1-0.4 0.2-0.1 0-0.2 0.1-0.3 0.1-0.5 0.2-0.1 0.1-0.2 0.1-0.3 0.1-0.4 0.2-0.1 0-0.3 0.1-0.2 0.1-0.2 0.1 0 0-0.1 0.1-0.2 0.1-0.3 0.1-0.1 0-0.1 0-0.2 0-0.5 0.1-0.3 0.1-0.6 0.1-0.4 0.1-0.7 0.1-0.3 0-0.4-0.1-0.4 0-0.6 0-0.1 0.1-0.2 0.1-0.2 0-0.6 0-0.4-0.1-0.6-0.1-0.5-0.1-1.2-0.3-0.2 0-0.4-0.1-0.2 0-0.4-0.2-0.3-0.1-0.6-0.2-0.3-0.2-0.5-0.4-0.1-0.1-0.2-0.3-0.3-0.3-0.3-0.3-0.3-0.3-0.3-0.4-0.1-0.1-0.1-0.2-0.1-0.2-0.2-0.3-0.1 0-0.1-0.1-0.1-0.1-0.1-0.2-0.1-0.1-0.1-0.2-0.1-0.1-0.2-0.4-0.1-0.2-0.1-0.4 0-0.1 0-0.2 0-0.1 0-0.2-0.1 0-0.1-0.1 0-0.2 0-0.2-0.1-0.2-0.1-0.3-0.1-0.1-0.1-0.2 0 0 0-0.1 0-0.1 0-0.1 0-0.2-0.1-0.3 0-0.1 0-0.2 0-0.3 0-0.4 0-0.1 0-0.1 0-0.2 0-0.3 0-0.2 0-0.4 0-0.1 0-0.4 0.1-0.2 0.3-0.4 0 0 0.1-0.2 0-0.1 0.1-0.2 0.2-0.4 0.2-0.5 0.1-0.1 0.2-0.3 0-0.1 0-0.1 0.1-0.2 0.1-0.4 0.2-0.1 0.2-0.2 0.1-0.1 0.2-0.2 0.1-0.1 0.1-0.2 0.1-0.1 0.1-0.1 0.2-0.2 0.3-0.3 0.1-0.2 0.3-0.3 0.1-0.1 0.3-0.3 0.4-0.4 0.5-0.5 0.1 0 0.2 0 0.1 0 0.2-0.1 0 0 0.1 0 0.1-0.1 0.2-0.1 0.2-0.1 0.4-0.2 0.2-0.1 0.4-0.2 0.3-0.1 0.5-0.2 0.3-0.1 0.6-0.2l1-0.2q0.2 0 0.3 0 0.1 0 0.2 0 0.1 0 0.2 0 0.1 0 0.2-0.1 0.2 0 0.5 0 0.3 0 0.6 0 0.3 0.1 0.6 0.1 0.3 0 0.5 0.1 0.1 0 0.2 0.1 0.1 0 0.2 0.1 0.3 0.1 0.3 0.1 0.1 0 0.1 0 0.3 0.2 0.4 0.3 0.2 0 0.2 0.1 0.4 0.3 0.6 0.4 0.2 0.1 0.3 0.2 0.1 0.1 0.3 0.3 0.1 0.1 0.2 0.3l0.3 0.3q0.1 0.1 0.2 0.3 0.1 0.1 0.1 0.2 0.1 0.1 0.1 0.2 0.1 0.1 0.3 0.3 0 0.2 0.1 0.4 0.1 0 0.1 0.1 0.1 0.1 0.1 0.2 0 0.2 0 0.2 0 0.1 0.1 0.2 0 0.1 0 0.2 0.1 0.4 0.2 1 0.1 0.6 0.1 1.2 0.1 0.6 0 1.2-0.1 0.6-0.3 1zm-2.5-1.4q-0.1-0.3-0.1-0.4 0-0.1 0-0.2 0-0.2 0-0.3 0.1-0.1 0.1-0.3 0-0.1-0.1-0.4 0-0.3-0.1-0.5-0.1-0.3-0.2-0.6-0.1-0.3-0.1-0.5-0.2-0.2-0.3-0.4 0-0.1-0.1-0.2 0-0.1-0.2-0.2-0.3-0.2-0.5-0.4-0.3-0.1-0.6-0.3-0.3-0.1-0.5-0.2-0.3-0.1-0.7-0.1-0.2 0-0.5 0-0.1 0-0.4-0.1-0.2 0.1-0.3 0.1-0.2 0-0.4 0-0.4 0.1-1 0.4-0.7 0.3-1 0.4-0.2 0.3-0.3 0.4-0.1 0.1-0.2 0.2-0.1 0.2-0.2 0.3-0.1 0.1-0.2 0.4l-0.3 0.2q0 0.1-0.1 0.3-0.2 0.3-0.2 0.5-0.1 0.1-0.1 0.2-0.2 0.3-0.2 0.4-0.1 0.2-0.1 0.3 0 0.2 0 0.3 0 0.2 0 0.3 0 0.2 0 0.4 0 0.1 0.1 0.3 0.1 0.2 0.1 0.4 0.2 0.3 0.2 0.5 0 0.1 0 0.2 0.1 0.2 0.1 0.3 0.1 0.1 0.1 0.2 0.2 0.2 0.3 0.3 0.3 0.2 0.4 0.3 0.1 0 0.1 0.1 0.3 0.1 0.4 0.1 0.4 0 0.6 0 0.5 0.1 1.1 0.1 0.6 0 1.1 0 0.5 0 0.8 0 0.4-0.1 0.5-0.1 0.3-0.1 0.3-0.1 0.1 0 0.1 0 0.1-0.1 0.2-0.1 0.1-0.1 0.3-0.1 0.2-0.1 0.4-0.2 0.1-0.1 0.2-0.1 0.1-0.1 0.2-0.2 0.2-0.1 0.3-0.2 0.1-0.1 0.2-0.1 0.1-0.1 0.1-0.2 0.3-0.5 0.4-0.8 0.2-0.4 0.3-0.6zm23.4 4.4l0.2 0.6q-0.1 0.4-0.2 0.6 0 0.1-0.1 0.2 0 0.1-0.1 0.3-0.2 0.1-0.3 0.1-0.1 0.1-0.2 0.1-0.2 0.1-0.5 0.1-0.3 0-0.4 0.1-0.2 0.1-0.4 0-0.2 0-0.4 0-0.5 0-0.6 0-0.1 0.1-0.4 0.1-0.2-0.1-0.4 0-0.2-0.1-0.3-0.1-0.1 0-0.2 0l-0.3-0.2q-0.2-0.1-0.3-0.2 0 0 0-0.1l-0.2-0.1q-0.2-0.2-0.1-0.2-0.2-0.1-0.2-0.2 0-0.2 0-0.4l-0.1-0.6-0.1 0.1q-0.1 0.1-0.1 0.1-0.1 0-0.1 0-0.1 0.1-0.1 0.1 0 0.1-0.2 0.2-0.2 0-0.3 0.1 0 0 0 0-0.1 0.1-0.2 0.2-0.1 0-0.2 0-0.3 0.2-0.5 0.2-0.1 0-0.2 0-0.1 0.1-0.3 0.1-0.1 0.1-0.4 0-0.2 0.2-0.5 0.2-0.2 0-0.4 0-0.3 0-0.3 0.1-0.1 0-0.1 0h-0.3q0 0-0.1 0 0 0 0 0h-0.1q-0.5 0.1-0.9 0-0.1 0.1-0.2 0.1-0.1 0-0.1 0-0.1 0-0.2 0-0.1 0-0.2 0-0.3-0.1-0.3-0.1h-0.4q-0.1 0-0.2 0-0.1 0-0.3 0-0.2-0.2-0.3-0.2-0.1 0-0.4-0.1-0.3 0-0.5-0.2-0.3 0-0.4-0.2-0.4-0.1-0.5-0.2-0.2 0-0.2-0.1-0.4-0.2-0.6-0.3-0.1-0.2-0.2-0.2-0.2-0.1-0.3-0.3-0.1-0.1-0.2-0.3 0-0.1-0.1-0.1-0.1-0.1-0.3-0.1 0-0.3-0.1-0.3 0-0.1-0.1-0.2-0.1-0.1-0.2-0.2-0.1-0.1-0.2-0.2-0.1-0.4-0.1-0.5-0.2-0.2-0.2-0.4 0-0.2-0.1-0.4 0-0.2 0-0.2 0-0.1 0-0.1l-0.1-0.7q0-0.2 0-0.3 0-0.1 0-0.2 0-0.1 0-0.3 0-0.2 0-0.3 0-0.2 0-0.2 0-0.2 0-0.3 0-0.1 0-0.1 0-0.2 0-0.4 0-0.2 0.1-0.4 0.1-0.4 0.1-0.5 0.1-0.2 0.1-0.2 0-0.3 0-0.4 0-0.1 0.1-0.2-0.1-0.3 0-0.5 0-0.2 0.1-0.5-0.2-0.1-0.4 0-0.1 0-0.2 0-0.1 0-0.3 0-0.1-0.1-0.1-0.1-0.1 0.1-0.2 0.1-0.1-0.1-0.2-0.1h-0.2q-0.1 0-0.2 0-0.2-0.1-0.3-0.1-0.1-0.1-0.2-0.1-0.1-0.1-0.2-0.2-0.2-0.2-0.2-0.3-0.2-0.2-0.3-0.4 0-0.2 0-0.3 0-0.2 0.1-0.3 0.1-0.3 0.2-0.4l0.3-0.3q0 0 0.1 0 0.1-0.1 0.1-0.1 0.3 0 0.5 0 0.2-0.1 0.4-0.1 0.7 0.1 1 0.1 0.3-0.1 0.6-0.1 0.3 0 0.5 0 0.3 0 0.4 0 0.1 0 0.2 0 0.1-0.1 0.3 0 0.3 0 0.4 0.2 0.2 0.1 0.3 0.1 0.1 0.1 0.2 0.1 0.1 0.3 0.1 0.5 0.1 0.2 0.1 0.3 0 0.2 0 0.3 0 0.4 0 0.8-0.1 0.4-0.1 0.6 0.1 0.2 0 0.4v0.4q-0.1 0.2-0.1 0.3 0 0.1-0.1 0.1 0 0.2 0 0.3 0 0.2 0 0.3 0 0.4-0.1 0.6-0.1 0.2-0.1 0.3 0 0 0 0 0 0.4-0.1 0.8 0 0.3 0 0.4 0 0.1 0 0.2 0 0.2 0 0.3 0 0 0 0 0.1 0.3 0 0.5 0 0.3 0 0.4 0.1 0.1 0.1 0.2 0 0 0.1 0.2 0 0.2 0.2 0.3 0.2 0.2 0.3 0.3 0.1 0.1 0.1 0.2 0.3 0.2 0.3 0.3 0.1 0 0.2 0.1l0.5 0.3q0.1 0 0.2 0.1 0.1 0 0.5 0.1 0.3 0.1 0.3 0.1 0.1 0 0.2 0 0.1 0.1 0.2 0.1 0.1 0 0.3 0 0.2 0 0.6-0.1 0.4 0 0.6 0 0.3 0.1 0.5 0 0.2 0 0.4-0.1 0.1 0 0.2-0.1 0.1 0 0.2 0 0.2 0 0.4 0 0.2 0 0.3-0.1 0.1 0 0.1 0 0.1-0.1 0.4-0.3 0.3 0 0.4 0 0.2-0.1 0.2-0.1 0.3-0.2 0.5-0.3 0-0.1 0.1-0.2 0.2-0.1 0.3-0.3 0.3-0.4 0.4-0.8 0.1-0.3 0.1-0.5 0-0.2 0-0.3 0-0.4 0.1-0.4 0-0.8 0-1.3 0-0.4-0.1-0.9 0-0.2 0-0.4 0-0.1 0-0.2 0-0.2 0-0.3 0 0 0-0.1-0.1-0.2-0.1-0.4 0-0.2 0-0.3-0.1-0.1-0.3-0.1h-0.1l-0.4-0.1h-0.3q-0.1-0.1-0.2-0.1-0.1 0-0.2-0.1 0 0-0.1 0-0.1-0.1-0.2-0.2l-0.2-0.2q0-0.1-0.1-0.2 0-0.1-0.1-0.2 0-0.1 0-0.2 0-0.1 0-0.2 0-0.1 0.1-0.2 0.1-0.3 0.1-0.3 0.3-0.4 0.6-0.5 0.3 0 0.4 0 0.7-0.2 1-0.2 0.3 0 0.5 0 0.2-0.1 0.4-0.1 0.1 0 0.2 0 0.1 0 0.2 0 0.3-0.1 0.6-0.1 0.2 0 0.3 0 0.2 0 0.3 0 0.1 0 0.2 0 0.1 0 0.2 0h0.2q0.1 0 0.1 0 0.1 0 0.2 0 0 0 0.1 0 0.2 0.1 0.3 0.2 0.2 0.1 0.3 0.1 0.1 0.1 0.1 0.2 0 0 0.1 0.1 0.1 0.1 0.2 0.1 0 0.2 0 0.4 0.1 0.1 0.1 0.3 0 0.1 0 0.2-0.1 0.1-0.1 0.1 0 0.1 0 0.2-0.1 0.1-0.1 0.2-0.1 0.1-0.2 0.1l-0.1 0.2q-0.4 0.1-0.6 0.2-0.3 0.1-0.6 0.1 0 0.3 0 0.4 0 0.1-0.1 0.3 0 0.3 0.1 0.5 0 0.2-0.1 0.3 0.1 0.4 0.1 0.4 0 0.3 0 0.4 0 0 0 0.1 0.1 0.1 0.1 0.2 0 0.2 0 0.2 0 0.2 0 0.2v0.1q0 0.1 0 0.3-0.1 0.2-0.1 0.4 0 0.2 0.2 0.5-0.1 0.1-0.1 0.2 0.1 0.2 0 0.2 0 0.3 0 0.4 0 0.2 0 0.3 0.1 0.1 0.1 0.2v0.2q-0.1 0.1-0.1 0.1 0 0.1 0 0.2 0.1 0 0.1 0.2 0 0.2 0 0.3 0 0.1 0 0.2 0 0.1 0 0.2 0 0 0 0v0.1q0.1 0.4 0.1 0.5 0 0.3 0 0.3 0.1 0.1 0.1 0.1 0.2 0.1 0.3 0.1 0.1 0 0.2 0 0.1-0.1 0.2-0.1 0.2 0 0.2 0 0.2 0 0.3 0 0.1 0 0.2 0 0.3 0 0.5 0.1 0.3 0.2 0.4 0.2 0.1 0 0.2 0 0.1 0.1 0.1 0.2 0.2 0.3 0.2 0.3zm18.1 0q-0.1 0.2-0.1 0.2 0 0.1-0.1 0.2 0 0.1 0 0.1-0.1 0.1-0.1 0.2-0.2 0.2-0.2 0.2-0.2 0.2-0.5 0.3-0.1 0.1-0.4 0.1-0.1 0-0.2 0.1 0 0-0.1 0-0.1 0-0.2 0-0.1 0-0.2 0-0.2 0.1-0.3 0.1 0 0-0.1 0h-0.5q-0.2 0-0.4 0-0.5 0-0.6 0-0.2 0-0.3 0-0.1 0-0.2 0-0.1 0-0.2 0.1-0.1 0-0.2 0-0.4 0-0.6 0.1-0.2 0-0.5-0.2-0.3-0.1-0.5-0.2-0.2-0.2-0.2-0.2-0.1-0.1-0.2-0.2 0-0.3 0-0.4 0-0.1 0-0.1v-0.2q0-0.1 0-0.2l0.4-0.7q0.3-0.1 0.5-0.1 0.1-0.1 0.3-0.1 0.2-0.1 0.2-0.1 0.2 0 0.3 0 0.1-0.1 0.3-0.2 0.1-0.1 0.1-0.1 0-0.1 0-0.2v-0.6q-0.1-0.2-0.1-0.3 0-0.1 0-0.2 0-0.1-0.1-0.1 0-0.1 0-0.2v-0.4q0.1-0.1 0.1-0.2 0-0.1 0-0.1 0-0.1 0-0.2 0-0.1 0-0.2 0-0.1-0.1-0.2 0-0.1 0-0.3 0-0.3 0-0.4 0-0.1 0-0.3-0.1-0.2-0.1-0.2 0-0.1 0-0.2-0.1-0.5-0.1-0.5-0.2-0.3-0.2-0.4 0.1-0.1 0-0.2l-0.3-0.9q-0.1-0.1-0.2-0.3-0.2-0.2-0.3-0.3-0.1-0.1-0.2-0.1-0.3 0-0.4 0-0.4-0.1-0.6-0.1-0.1 0-0.3 0.1h-0.4q-0.3 0.2-0.4 0.2-0.1 0.1-0.2 0.1-0.3 0.2-0.5 0.2-0.2 0.1-0.4 0.1-0.1 0.1-0.2 0.1-0.1 0.1-0.2 0.2-0.3 0.1-0.5 0.2 0 0.1-0.2 0.1-0.2 0.1-0.3 0.1-0.1 0.1-0.2 0.2-0.1 0-0.2 0.1-0.2 0.1-0.3 0.1-0.1 0.1-0.2 0.2-0.1 0.1-0.3 0.2-0.2 0.1-0.2 0.2-0.1 0-0.1 0v0.4q0 0.1 0 0.1 0.1 0.3 0 0.5 0 0.2 0 0.4 0 0.4 0 0.4 0 0.4 0 0.6 0 0.2 0 0.4 0.1 0.1 0.1 0.2l0.1 0.7q0.3 0 0.3 0 0.1 0 0.2 0 0.3 0 0.4 0 0.4 0 0.5 0.1 0.1 0 0.2 0 0 0.1 0.1 0.1 0 0 0.1 0h0.1l0.5 0.4q0.1 0.1 0.1 0.3 0.1 0.1 0.1 0.2 0 0.2 0.1 0.3-0.1 0.2-0.1 0.3-0.1 0.1-0.1 0.1l-0.1 0.2q-0.1 0.1-0.2 0.1-0.2 0.2-0.3 0.3-0.1 0.1-0.2 0.1-0.2 0.2-0.3 0.2-0.1 0-0.1 0-0.1 0.1-0.3 0.2h-0.5q-0.3 0-0.3 0 0 0-0.1 0-0.3 0.1-0.6 0.2-0.2 0-0.3 0-0.1 0-0.2 0-0.1-0.1-0.2 0l-0.4 0.1q-0.1 0-0.3 0-0.1 0-0.2 0-0.2 0.1-0.4 0.1-0.1 0.1-0.2 0.1-0.1 0-0.3 0-0.1 0-0.2 0-0.2 0-0.4 0-0.1 0-0.3 0-0.2 0-0.3-0.1-0.1 0-0.2 0l-0.3-0.1q-0.1 0-0.2-0.1-0.2 0-0.2-0.1 0-0.1 0-0.3-0.1-0.2-0.1-0.2v-0.3q0-0.2 0-0.2 0-0.2 0.1-0.2 0.1-0.3 0.2-0.5 0.1-0.2 0.3-0.3 0.2-0.2 0.4-0.2 0.3 0 0.5 0 0.2-0.1 0.4-0.1l0.4-0.1q0.2-0.1 0.2-0.1 0-0.1 0-0.2 0-0.5-0.1-0.7 0-0.3 0-0.5 0-0.2 0-0.3 0 0 0-0.1 0-0.3 0-0.7 0-0.3 0-0.5 0-0.2 0-0.4 0-0.1 0-0.1 0-0.2 0-0.3 0-0.1 0-0.2 0-0.2-0.1-0.3 0-0.1 0-0.2v-0.5q-0.1-0.4 0-0.6 0-0.4 0-0.5 0-0.1 0-0.1 0-0.5-0.1-0.8 0-0.2 0-0.5 0-0.2 0-0.5 0-0.3 0-0.6-0.1-0.1-0.2-0.1 0 0-0.2 0l-0.3-0.1q-0.4 0.1-0.6-0.1-0.2-0.1-0.3-0.1 0 0 0 0-0.1 0-0.2-0.2-0.1-0.1-0.2-0.2 0-0.1 0-0.2-0.1-0.1-0.1-0.2 0-0.1 0-0.2 0 0 0-0.2 0.1-0.2 0.1-0.3 0.2-0.2 0.3-0.3l0.4-0.3 0.2-0.2q0.2-0.1 0.2-0.1 0.2 0 0.5-0.1 0.2 0 0.3 0 0.1 0 0.3 0 0.1 0 0.2 0 0.1 0 0.2 0 0.2 0 0.3 0 0 0 0.1 0 0 0 0.2 0 0.1 0 0.3 0 0.2 0 0.2 0 0.1 0 0.1 0 0.3-0.1 0.5-0.1 0.1 0 0.3 0 0.3 0.1 0.4 0.1 0.1 0 0.2 0 0 0.1 0.2 0.1 0.1 0.1 0.2 0.1 0 0.1 0.1 0.2 0.1 0.2 0.1 0.2 0.1 0.2 0.2 0.4 0 0.1 0 0.3 0 0.1-0.1 0.2 0 0.2 0 0.3-0.1 0.1-0.1 0.1 0 0.2-0.3 0.3-0.2 0.2-0.3 0.2 0 0.1-0.1 0.1l-0.1 0.1q-0.1 0-0.2 0-0.3 0.1-0.3 0-0.1 0.3-0.1 0.3 0 0 0 0.1 0.1 0.2 0.1 0.4 0.1 0.2 0 0.3 0 0.1 0 0.2 0 0.1 0 0.1 0 0.1 0 0.3 0.3-0.3 0.5-0.3 0.3-0.1 0.3-0.1 0.2-0.2 0.4-0.2 0.3-0.2 0.4-0.2 0.1-0.1 0.2-0.1 0.2-0.2 0.4-0.2 0.1-0.1 0.2-0.1 0.2-0.2 0.4-0.3 0.2-0.1 0.5-0.1 0.2-0.1 0.3-0.1 0.1 0 0.2 0 0.2-0.2 0.3-0.2 0.1 0 0.2 0.1 0.2-0.2 0.2-0.2 0.1 0 0.3 0 0.2-0.1 0.3-0.1 0.1 0 0.1 0 0.3-0.1 0.4 0 0.2 0 0.2 0 0.3-0.1 0.5-0.1 0.1 0 0.3 0.1 0.1 0 0.4 0.2 0.2 0 0.3 0 0.1 0.1 0.3 0.1 0.1 0 0.2 0.1 0.1 0 0.2 0.1l0.3 0.1 0.2 0.2 0.2 0.2 0.3 0.3q0.1 0.1 0.2 0.1l0.4 0.5 0.2 0.3q0 0.1 0 0.2 0 0.2 0.2 0.4 0 0.1 0.1 0.2 0 0.2 0.1 0.3l0.1 0.3 0.2 0.9v0.3q0 0.2 0 0.3 0.1 0.2 0.1 0.2v0.4q0 0.4 0 1.1 0.1 0.5 0.1 1.2 0 0.7 0.1 1.2 0 0.4 0.1 0.6 0.3-0.1 0.4-0.1 0.1 0 0.2 0 0.2 0 0.3 0.1 0 0 0.1 0 0.1 0 0.2 0.1 0 0 0.1 0.1h0.1q0 0.1 0.1 0.3 0.1 0 0.1 0.1 0.1 0.1 0.1 0.1 0.2 0.4 0.2 0.6zm9.3 0q0 0.1-0.1 0.2 0 0.1 0 0.2 0 0.1-0.1 0.2-0.1 0.1-0.2 0.2-0.2 0.1-0.4 0.2-0.2 0.1-0.5 0.1-0.4 0.1-0.4 0.1-0.2 0-0.3 0-0.1 0-0.2 0-0.2 0-0.3 0-0.3 0-0.5-0.1-0.3-0.1-0.4-0.1-0.1 0-0.2-0.1l-0.3-0.2q-0.4-0.2-0.8-0.4-0.4-0.1-0.6-0.3-0.2-0.2-0.5-0.3-0.2-0.3-0.3-0.4-0.1-0.1-0.2-0.1 0-0.1 0-0.2l-0.1-0.1q0-0.1 0-0.2 0-0.1-0.1-0.2 0-0.1 0-0.2 0-0.2-0.1-0.4 0-0.2-0.1-0.4-0.1-0.3-0.2-0.5 0-0.1-0.1-0.3 0-0.1 0-0.2l-0.1-0.6q0-0.2-0.1-0.3 0-0.1 0-0.3 0-0.2-0.1-0.4 0-0.2 0-0.3 0-0.1 0-0.3v-0.5l-0.1-0.5q-0.1-0.1-0.1-0.3 0-0.2 0-0.3 0-0.1 0-0.2 0-0.2 0-0.3 0-0.1-0.1-0.2 0-0.1 0-0.2 0-0.4 0-0.5 0-0.1 0-0.3v-0.4q0.1-0.6 0.1-0.9-0.1-0.4 0-0.7 0-0.1 0-0.3 0.1-0.2 0.1-0.4 0-0.1 0.1-0.4h-0.3q-0.2-0.1-0.3-0.1h-0.4q0 0-0.1 0.1-0.1 0-0.3 0h-0.4q-0.3-0.1-0.5-0.1-0.1 0-0.2 0-0.3 0-0.5-0.1 0 0-0.2 0-0.1-0.1-0.3-0.2-0.1 0-0.2-0.2-0.1-0.1-0.3-0.5 0.1-0.1 0-0.1 0-0.1 0-0.1 0-0.1 0-0.2 0.1-0.2 0.2-0.3 0-0.2 0.1-0.3 0.1-0.1 0.3-0.2 0.2-0.3 0.5-0.3 0.3 0 0.4 0 0.1 0 0.2 0 0.5 0 0.6 0 0.2 0 0.4 0 0.2 0 0.3 0 0.1-0.1 0.3 0 0 0 0.2 0 0.1 0 0.3 0h0.4q0-0.4 0.1-0.7 0.1-0.4 0.1-0.6 0.1-0.3 0.1-0.5 0-0.3 0-0.5 0.1-0.1 0.1-0.2 0-0.1 0-0.1 0.1-0.4 0.1-0.5 0-0.1 0.1-0.2 0-0.1 0-0.2 0-0.1 0.1-0.3 0.1-0.1 0.1-0.2 0.1 0 0.1-0.3 0.2-0.1 0.3-0.2 0 0 0.1 0 0.1-0.2 0.2-0.2 0-0.1 0.1-0.1 0.6-0.1 1 0.1 0.4 0.2 0.5 0.3 0 0.2 0.1 0.3 0 0 0 0.1l0.1 1.1q-0.1 0.4-0.1 0.4l-0.1 0.4q-0.1 0.2-0.1 0.3 0 0.1 0 0.2 0 0.1 0 0.2 0 0.2-0.1 0.3-0.1 0.4-0.1 0.8 0 0.2-0.1 0.4 0.3 0.1 0.6 0.1 0.3 0 0.5 0 0.3 0 0.4 0 0.1 0 0.2 0 0.1 0 0.3 0 0.1 0.1 0.2 0.1 0.2 0 0.3 0.1 0.2 0.1 0.3 0.2 0.1 0 0.1 0.1l0.3 0.3q0.3 0.4 0.3 0.8-0.1 0.3-0.2 0.6-0.1 0-0.3 0.1-0.2 0.1-0.4 0.3-0.2 0.1-0.4 0.1-0.2 0.1-0.3 0.1-0.1 0-0.6 0-0.4-0.1-0.7-0.1-0.2 0-0.4 0-0.1 0-0.4-0.1-0.1 0.4-0.1 0.5-0.1 0.2-0.1 0.4 0 0.2 0 0.3 0 0.2 0 0.3 0 0.1-0.1 0.3 0 0.3 0 0.6 0 0.2 0 0.3 0.1 0.2 0.1 0.3 0 0.1 0 0.4 0 0.1 0 0.3 0.1 0.2 0.1 0.4 0 0.3 0 0.5 0 0.2 0 0.3l0.1 0.6q0 0.1 0 0.2 0 0.1 0 0.2 0.1 0.1 0.1 0.3 0 0.3 0 0.4 0 0 0 0.1 0.1 0.2 0.1 0.3 0 0.1 0 0.2l0.1 0.4q0 0.2 0.1 0.4l0.1 0.3q0 0.1 0 0.2 0.1 0.1 0.1 0.2 0 0.1 0 0.2 0.1 0.1 0.2 0.3 0.1 0.2 0.2 0.4 0.2 0.1 0.3 0.2 0.3 0.2 0.5 0.3 0.1 0 0.3 0 0.1 0.1 0.2 0.2 0.1 0 0.2 0.1 0.1 0 0.3 0.1 0.1 0 0.3 0 0.2 0 0.4 0.1 0.2 0 0.5 0 0.1 0.2 0.2 0.3 0.1 0 0.1 0.1 0.1 0 0.1 0.1 0.1 0 0.2 0.2 0 0.2 0 0.3 0 0.2 0 0.3z"/>
		<path id="CountCalorie" class="s9" aria-label="CountCalorie"  d="m105.9 154.2q0 0.2 0 0.3-0.1 0.2-0.2 0.5-0.2 0.2-0.2 0.3-0.1 0.1-0.1 0.1l-0.2 0.1q0 0-0.1 0-0.1 0-0.1 0-0.3 0.2-0.5 0.2-0.1 0-0.2 0.1-0.1 0-0.2 0 0 0.1-0.2 0.2-0.2 0-0.3 0 0 0-0.1 0.1-0.2 0-0.3 0-0.1 0-0.1 0-0.4 0.1-0.5 0.1-0.1 0-0.2 0.1-0.1 0.1-0.3 0.1-0.1 0-0.2 0-0.4 0.2-0.7 0.3-0.3 0.1-0.3 0.1-0.1 0-0.1 0-0.1 0.1-0.2 0.1-0.1 0-0.2 0.1-0.2 0-0.2 0-0.1 0-0.2 0 0 0 0 0-0.2 0.1-0.4 0.3-0.2 0-0.5 0-0.2 0-0.3 0-0.2 0-0.3 0 0-0.1-0.1-0.1 0 0-0.2 0-0.1-0.1-0.1-0.1l-0.5-0.4-0.1-0.3q0-0.2-0.1-0.3 0-0.1 0.1-0.2-0.1-0.4 0.1-0.6 0.2-0.2 0.2-0.3 0 0 0.1-0.1 0.2-0.1 0.3-0.1 0.1-0.1 0.2-0.2 1.1 0 1.4-0.5-0.1-0.2-0.1-0.3 0.1 0 0.1-0.1-0.3-0.3-0.4-0.4-0.2-0.2-0.4-0.3-0.1-0.1-0.2-0.3-0.3-0.1-0.3-0.2-0.1 0-0.1-0.1-0.2 0-0.3 0 0-0.1-0.1-0.1-0.2-0.1-0.3-0.1-0.1 0-0.2 0-0.3 0-0.4 0-0.1 0-0.2 0-0.2 0-0.3-0.1l-0.5 0.2q-0.2 0-0.4 0-0.1 0-0.3 0-0.2 0.1-0.2 0.1-0.1 0.1-0.3 0.2-0.2 0-0.4 0-0.1 0.1-0.2 0.1l-0.2 0.2q-0.3 0.1-0.3 0.1-0.3 0.1-0.4 0.2-0.4 0.2-0.6 0.3-0.1 0-0.2 0.2-0.2 0.1-0.4 0.2-0.1 0.1-0.1 0.2-0.2 0.1-0.4 0.2-0.1 0.2-0.3 0.3 0 0-0.1 0.1l-0.2 0.1-0.2 0.2q-0.2 0.2-0.3 0.3 0 0-0.1 0.1-0.1 0.3-0.3 0.4-0.1 0.3-0.2 0.4l-0.2 0.3q-0.1 0.3-0.2 0.5-0.1 0.1-0.2 0.2-0.1 0.1-0.1 0.2 0 0.1-0.1 0.4-0.2 0.2-0.2 0.2-0.1 0.1-0.1 0.2-0.2 0.4-0.2 0.6-0.1 0.1-0.1 0.3-0.1 0.4-0.1 0.6 0 0.1-0.1 0.1 0 0.2 0 0.3-0.1 0.1-0.1 0.1-0.1 0.5-0.2 0.5 0 0.2 0 0.3 0 0.1-0.1 0.3 0 0.2 0 0.3 0 0.2 0 0.3 0 0.2 0 0.3 0 0.1 0.1 0.4-0.2 0.2-0.2 0.3 0 0.2 0.1 0.2v1q0 0.1 0 0.2 0 0.1 0.1 0.3 0 0.2 0 0.2 0 0.1 0 0.1 0.1 0.3 0.1 0.4 0.1 0 0.2 0.1 0 0.4 0 0.5 0.1 0.1 0.2 0.2 0.1 0.3 0.1 0.4 0.1 0.1 0.1 0.2 0.2 0.4 0.2 0.5 0.1 0.1 0.1 0.2 0.1 0.2 0.1 0.3 0.1 0.1 0.1 0.2 0.1 0.3 0.3 0.3 0 0.1 0.1 0.2 0 0.1 0.1 0.2 0.1 0.1 0.1 0.1l0.1 0.1q0.2 0.1 0.2 0.1 0.1 0.1 0.2 0.1 0.1 0.1 0.3 0.2 0.1 0.2 0.1 0.3 0.1 0 0.4 0 0.2 0.1 0.3 0.3 0.2 0.1 0.4 0.1 0.2 0.2 0.5 0.2 0.1 0.1 0.2 0.1 0.1 0 0.2 0 0.3 0.1 0.3 0.1 0.5 0.1 0.6 0.1 0.2 0 0.2 0.1 0.3 0 0.4 0 0.1 0 0.2 0.1 0.2-0.1 0.3-0.1 0.1 0 0.2 0l0.9 0.1q0.3 0 0.4 0 0.2 0 0.3 0 0.1-0.1 0.1-0.1 0.4-0.1 0.4-0.1 0.1 0 0.2 0 0.4-0.1 0.5-0.1 0.1 0 0.3 0 0.1-0.1 0.1-0.1 0.1-0.1 0.2-0.1l0.3-0.2q0.3-0.1 0.4-0.1 0.1-0.1 0.2-0.1 0-0.1 0.1-0.1 0.3-0.1 0.4-0.1 0.3-0.2 0.4-0.3 0.1 0 0.2-0.2 0.3-0.1 0.4-0.2 0.1-0.1 0.1-0.2 0.1-0.1 0.3-0.3 0.2-0.2 0.3-0.2 0-0.1 0.1-0.1 0.1-0.1 0.3-0.3 0.1-0.2 0.1-0.3 0.1 0 0.1-0.1 0.3-0.3 0.4-0.4 0.1 0 0.1 0 0.2-0.1 0.3-0.1 0 0 0.1-0.1 0.3 0 0.4 0.1 0.1 0 0.3 0.1 0.1 0.1 0.2 0.2 0 0 0.1 0.1 0.1 0 0.1 0.1 0.1 0 0.1 0.1 0 0.1 0 0.3 0.1 0.3 0.1 0.4 0 0.1 0 0.2l-0.4 0.9q0 0.3-0.2 0.4 0 0-0.1 0.1 0 0.1 0 0.2-0.3 0.3-0.4 0.4-0.1 0.1-0.2 0.1-0.1 0.2-0.2 0.3 0 0 0 0.1-0.2 0.1-0.2 0.1 0 0-0.1 0.1l-0.2 0.1-0.1 0.2q-0.1 0-0.2 0-0.3 0.2-0.3 0.3-0.3 0-0.4 0.1 0 0 0 0.1-0.1 0-0.2 0.1-0.1 0.1-0.2 0.1-0.1 0.1-0.2 0.1-0.1 0.1-0.3 0.1-0.2 0-0.4 0.1l-0.4 0.2q-0.1 0-0.2 0.1-0.1 0-0.2 0.1-0.2 0-0.3 0-0.1 0-0.2 0-0.2 0.2-0.4 0.3-0.2 0-0.3 0h-0.4q-0.4 0.2-0.5 0.2-0.2 0.1-0.3 0.1-0.1 0.1-0.1 0.1-0.2 0-0.4 0-0.1 0-0.2 0-0.1 0.1-0.2 0.1-0.1 0-0.1 0h-0.1l-0.2-0.1q-0.2-0.1-0.3-0.1-0.4 0.1-0.6 0-0.4 0-0.5 0-0.2 0-0.4-0.1-0.2 0-0.2 0-0.1 0-0.2 0-0.2-0.1-0.4-0.1-0.1-0.1-0.3-0.2-0.2 0-0.3 0 0 0-0.1 0l-0.5-0.2q-0.3 0-0.4-0.1-0.1-0.1-0.3-0.2-0.2-0.1-0.4-0.2-0.1 0-0.3 0-0.1-0.1-0.2-0.2-0.1 0-0.3 0l-0.2-0.1q-0.1 0-0.2-0.1 0-0.1-0.1-0.1 0-0.1-0.1-0.1-0.1-0.1-0.3-0.2 0 0-0.1 0-0.1-0.1-0.1-0.1-0.1 0-0.2-0.1l-0.1-0.2q-0.2-0.2-0.3-0.2-0.2-0.2-0.2-0.2-0.1-0.1-0.2-0.2l-0.2-0.3q-0.1 0-0.2-0.2v-0.1q-0.1 0-0.1-0.1-0.1-0.1-0.1-0.1-0.2-0.3-0.3-0.4 0-0.2-0.1-0.3-0.2-0.3-0.3-0.4 0-0.1 0-0.1-0.1-0.1-0.1-0.3 0-0.1-0.1-0.1 0-0.1 0-0.2l-0.2-0.3q-0.3-0.3-0.3-0.7-0.1-0.3-0.1-0.4-0.1-0.2-0.2-0.3 0-0.1 0-0.2-0.2-0.3-0.2-0.4 0-0.3-0.1-0.3 0-0.1 0-0.2-0.2-0.6 0-0.9-0.1-0.2-0.1-0.5 0-0.4 0-0.6 0.1-0.4 0.1-0.6 0-0.2 0-0.3 0-0.2 0.1-0.3 0-0.3 0-0.4 0-0.1 0-0.1-0.1-0.2-0.1-0.4 0.1-0.1 0.2-0.3 0-0.3 0-0.3 0-0.1 0.1-0.1 0-0.6 0-0.8 0-0.1 0.1-0.4 0.1-0.2 0.2-0.2 0-0.1 0-0.1 0-0.3 0.1-0.5 0.1-0.2 0.1-0.3 0.1-0.1 0.2-0.2 0.1-0.5 0.3-0.8 0-0.4 0.2-0.6 0.3-0.3 0.4-0.5 0.1-0.2 0.2-0.4 0.1-0.1 0.1-0.3 0.1-0.2 0.2-0.5 0.3-0.3 0.3-0.4 0.2-0.2 0.3-0.3 0-0.1 0.1-0.2 0 0 0.1-0.2l0.1-0.1q0.1-0.1 0.2-0.2 0 0 0.1-0.1 0.1 0 0.1-0.1 0.3-0.2 0.4-0.3 0.1 0 0.2-0.1 0.2-0.2 0.2-0.2 0.1-0.1 0.1-0.1 0.3-0.2 0.4-0.2 0.1-0.1 0.1-0.1 0.1-0.1 0.1-0.2 0.1-0.1 0.2-0.1 0.3-0.1 0.3-0.2 0.1 0 0.1-0.1l0.5-0.3q0.4-0.3 0.5-0.4 0.1-0.1 0.2-0.1 0.2-0.1 0.3-0.1 0.1 0 0.2-0.1 0.3-0.1 0.3-0.1 0.1 0 0.2-0.1 0.1 0 0.1 0 0.1-0.1 0.1-0.1 0.1 0 0.1-0.1 0.1 0 0.2 0 0.1-0.1 0.1-0.1 0.1 0 0.1 0 0.3-0.1 0.4-0.1 0 0 0.1-0.1 0.6-0.2 0.9-0.3 0.2 0 0.5 0.1 0.3-0.1 0.5-0.1 0.2 0 0.3 0 0.2 0 0.3 0 0.1 0 0.2 0h0.4q0.2 0 0.4 0.1 0.4 0 0.4 0.1 0.1 0 0.2 0 0.1 0 0.3 0.1 0.1 0 0.1 0.1l0.3 0.1q0.1 0 0.1 0.1 0.1 0 0.3-0.1 0.1 0.2 0.2 0.3 0 0 0 0 0.2 0 0.4 0.2 0.1 0.1 0.2 0.1 0.2 0 0.2 0.1 0.1 0 0.2 0 0.1 0.1 0.2 0.3l0.1 0.2q0.4 0.4 0.6 0.6 0.2 0.2 0.3 0.4 0.1 0.1 0.1 0.2 0.1 0.2 0.3 0.4 0 0.2 0 0.3 0.1 0.1 0.1 0.1 0.2 0.2 0.2 0.2 0.1 0 0.2-0.1 0.3-0.1 0.4-0.1 0.1 0 0.2 0 0.4-0.2 0.5-0.2 0.2-0.1 0.3-0.1 0.2 0 0.3 0 0.1 0 0.3-0.1 0.3 0.2 0.4 0.3 0 0 0.1 0 0 0.1 0.1 0.1 0.1 0 0.2 0 0 0.1 0.1 0.2 0.1 0.2 0.1 0.2 0 0.1 0 0.2 0 0.1 0.1 0.2 0 0.2 0 0.3zm14.2 14.3l0.3 0.7q0 0.2-0.1 0.4 0 0.2 0 0.3-0.1 0.1-0.1 0.2-0.1 0.1-0.2 0.2 0 0-0.1 0.1 0 0-0.1 0.1 0 0-0.1 0 0 0-0.1 0-0.3 0.2-0.6 0.3-0.2 0-0.5 0-0.3 0-0.4 0-0.1-0.1-0.3-0.1-0.1 0-0.3 0.1-0.1 0-0.3 0-0.2-0.1-0.3 0 0 0-0.1 0-0.3-0.1-0.4-0.1-0.2-0.1-0.3-0.1 0 0-0.1-0.1 0 0 0 0-0.1-0.1-0.2-0.1-0.1-0.1-0.1-0.2 0-0.1-0.1-0.2 0-0.1 0-0.1-0.1-0.1 0-0.2 0 0 0-0.2 0-0.1 0-0.3-0.1-0.2-0.1-0.5-0.4 0.3-0.6 0.5-0.3 0.1-0.4 0.3-0.4 0.2-0.6 0.5-0.4 0-0.5 0.1-0.1 0-0.2 0.2-0.3 0-0.4 0-0.2 0.1-0.2 0.1-0.4 0.1-0.5 0.2-0.1 0-0.1 0-0.2 0.1-0.3 0.1-0.1 0-0.1 0.1-0.1 0.1-0.4 0.1-0.2 0.1-0.5 0.1h-0.4l-0.4-0.1q-0.2-0.1-0.4-0.1-0.1 0-0.1 0-0.2-0.1-0.3-0.1 0 0-0.1 0-0.2-0.1-0.3-0.1-0.1-0.1-0.3-0.1-0.2-0.1-0.3-0.2-0.1 0-0.4 0-0.2-0.3-0.2-0.3 0-0.1 0-0.1-0.5-0.4-0.7-0.6-0.2-0.3-0.3-0.5 0-0.2-0.1-0.5 0-0.1-0.2-0.3 0-0.3 0-0.5 0-0.2 0-0.3 0-0.1 0.1-0.4 0-0.3 0.1-0.4 0.1-0.1 0.2-0.4 0-0.4 0.1-0.5 0.1-0.2 0.3-0.4 0.1-0.3 0.2-0.4l0.1-0.3q0.2-0.2 0.2-0.2 0.1-0.1 0.1-0.3 0.4-0.3 0.5-0.4 0.1-0.2 0.2-0.2 0.2-0.2 0.2-0.3 0.1-0.1 0.3-0.2 0.1 0 0.2-0.1 0.3-0.2 0.4-0.3 0.1 0 0.2-0.1 0.4-0.2 0.5-0.3 0.1-0.1 0.4-0.2 0.1-0.1 0.2-0.1 0 0 0.1 0 0.4-0.1 0.6-0.2 0.1-0.1 0.3-0.3 0.6-0.1 1-0.2 0.4-0.1 0.5-0.1 0.1 0 0.2 0 0.1 0 0.1 0 0.2-0.1 0.4-0.1 0.2 0.1 0.3 0.1 0.2 0 0.3 0.1 0.1 0 0.3 0l-0.1-1.1q-0.1-0.2-0.2-0.3 0-0.1-0.1-0.2 0-0.1-0.1-0.2-0.1-0.2-0.4-0.3-0.2-0.1-0.4-0.1-0.1-0.1-0.5 0-0.3-0.1-0.4-0.1-0.1 0-0.1 0-0.3 0.1-0.4 0.1 0 0-0.1 0-0.2-0.1-0.3-0.1 0 0-0.1 0-1.1 0.3-1.1 0.3-0.1 0.1-0.3 0.2-0.1 0-0.2 0.1 0 0-0.1 0.1-0.1 0-0.2 0.1-0.1 0-0.1 0.1l-0.5 0.4q0 0-0.1 0.1 0 0 0 0h-0.1q-0.2 0.2-0.3 0.4-0.1 0-0.1 0.1-0.1 0-0.1 0.1l-0.2 0.1-0.3 0.3-0.3 0.2q-0.1 0-0.2 0h-0.4q-0.3-0.1-0.5-0.4-0.3-0.2-0.3-0.6 0-0.3 0.1-0.7 0.2-0.4 0.4-0.6 0.2-0.3 0.4-0.6 0.3-0.3 0.6-0.5 0.1 0 0.2-0.1 0.2-0.2 0.2-0.2 0.1-0.1 0.2-0.2 0.2-0.1 0.2-0.1 0.1-0.1 0.2-0.2 0.4-0.2 0.5-0.2 0.2-0.1 0.2-0.1 0.3-0.1 0.4-0.1 0.1 0 0.2-0.1 0.2-0.1 0.4-0.2 0.1 0 0.2 0 0-0.1 0.1-0.1 0.1 0 0.3 0 0.1 0 0.2 0 0.4-0.1 0.5-0.1 0.1 0 0.2-0.1 0.1 0 0.1 0 0.2 0 0.3 0 0.2 0.1 0.3 0.1 0.1 0 0.2 0 0 0 0.1 0 0.1-0.1 0.2-0.1 0.2 0 0.3 0 0 0 0.1 0 0.3 0.1 0.3 0.1 0.1 0 0.1 0 0.1 0 0.3 0 0.3 0 0.3 0.1 0.1 0 0.2 0 0.3 0.2 0.4 0.2 0.1 0 0.2 0.1 0.1 0 0.4 0.2 0.2 0.1 0.3 0.1 0 0 0.1 0.1 0.2 0.3 0.3 0.3 0.1 0 0.1 0 0.1 0 0.2 0.1 0 0.2 0.2 0.3 0.1 0.2 0.1 0.3 0 0.1 0 0.2 0.1 0.1 0.1 0.1 0.1 0.1 0.1 0.2 0.1 0.2 0.2 0.3 0 0 0.1 0.1 0.1 0.3 0.1 0.4 0.1 0.2 0.2 0.4 0 0.2 0 0.4 0.1 0.1 0.2 0.3 0 0.3 0 0.4 0 0.1 0 0.2 0.1 0.1 0.1 0.2 0 0 0 0.3 0 0.2 0.1 0.3 0 0.1 0 0.2 0 0.1 0 0.3 0 0.1 0.1 0.2 0 0.3 0 0.4 0 0.2 0 0.3 0 0.1 0 0.2 0.1 0.2 0 0.3 0 0.1 0 0.1 0 0.3 0 0.5 0 0.1 0 0.2 0 0.5 0 0.9 0.1 0.4 0.1 0.8 0 0.2 0 0.4-0.1 0.2-0.1 0.4 0 0.3 0 0.5 0 0.3 0 0.6 0.3 0 0.4 0 0.1 0 0.1 0 0.3 0 0.4 0.1 0.2 0 0.3 0 0.1 0 0.3 0 0.2 0.2 0.2 0.2 0.1 0.1 0.1 0.1zm-4.6-3.7q0 0 0-0.2 0-0.1 0-0.3v-0.3q-0.1-0.2-0.2-0.4-0.1-0.3-0.1-0.3-0.1-0.1-0.3-0.1-0.3 0-0.5 0-0.2 0-0.4 0.1-0.2 0-0.3 0-0.3 0-0.5 0-0.2 0-0.3 0l-0.6 0.3q-0.3 0.1-0.4 0.1-0.2 0.1-0.3 0.1-0.1 0.1-0.1 0.1-0.3 0.2-0.7 0.4-0.3 0.2-0.4 0.3-0.1 0.1-0.3 0.2-0.2 0.1-0.3 0.2-0.1 0.1-0.2 0.2 0 0.1-0.1 0.1-0.1 0.1-0.2 0.2-0.1 0.4-0.3 0.7-0.1 0.2-0.3 1 0 0.1 0.1 0.3 0.1 0.2 0.2 0.4 0.1 0.1 0.2 0.2 0.1 0 0.2 0.1 0.1 0.1 0.2 0.1 0.1 0 0.1 0 0.3 0.1 0.4 0.2 0.1 0 0.1 0 0 0 0 0 0.1 0.1 0.2 0.1 0.1 0 0.1 0 0.2-0.1 0.2-0.1 0.3-0.1 0.4-0.1 0.1 0 0.1 0 0.3-0.1 0.3-0.1 0.1 0 0.2 0 0.3-0.1 0.4-0.2 0.2 0 0.2-0.1 0.2 0 0.2-0.1 0.2-0.1 0.3-0.1 0.1-0.1 0.2-0.2 0.2-0.1 0.3-0.2 0.1 0 0.2 0 0-0.1 0.1-0.1 0.1 0 0.1-0.1l0.2-0.1q0.1-0.1 0.2-0.2 0.1-0.1 0.3-0.2 0.1-0.1 0.2-0.2 0.1-0.1 0.1-0.2 0.3-0.1 0.3-0.2 0.1 0 0.2-0.1l0.2-0.2q0-0.4 0-0.6 0.1-0.2 0.1-0.4zm11.2 5.7q-0.1 0.2-0.4 0.4-0.2 0.2-0.5 0.3-0.2 0.1-0.5 0.1-0.2 0-0.3 0-0.2 0-0.4 0-0.4-0.1-0.7-0.1-0.4-0.1-0.7-0.1-0.1-0.1-0.2 0-0.2 0-0.5 0-0.1 0-0.2 0-0.1 0-0.2 0-0.1 0-0.2 0-0.2 0-0.3 0-0.2-0.2-0.3-0.3-0.3-0.3-0.3-0.6-0.1-0.3-0.1-0.5 0.1-0.3 0.2-0.4 0.1-0.2 0.3-0.4 0.2-0.3 0.4-0.3 0.1 0 0.2 0 0.3-0.1 0.5-0.1 0.3-0.1 0.5-0.1 0-0.2 0-0.3 0-0.1 0-0.2 0-0.2 0-0.3 0-0.2 0-0.3v-0.3q-0.1-0.2-0.1-0.4 0-0.1 0-0.2 0.1-0.1 0.1-0.2 0-0.4 0-0.5 0-0.1 0-0.2 0-0.2 0-0.3 0-0.1 0-0.2 0.1-0.2 0.1-0.3 0-0.1 0-0.2 0-0.2 0-0.3 0-0.1 0-0.3 0-0.1 0-0.3 0.1-0.3 0.1-0.4v-0.4-0.6q0-0.4 0-0.6 0.1-0.3 0.1-0.4 0-0.1 0-0.2 0-0.1 0-0.2l0.1-0.5q0-0.1 0-0.3 0-0.2 0-0.3 0-0.1 0-0.3 0-0.1 0-0.2 0-0.2 0-0.3 0.1-0.1 0.1-0.2v-0.8q0.1-0.1 0.1-0.6 0-0.5 0-1 0.1-0.5 0.1-1 0-0.4-0.1-0.5-0.2-0.1-0.7 0-0.2 0.1-0.3 0.1-0.2 0-0.3 0.1-0.2 0-0.4 0-0.1 0-0.4-0.1-0.2-0.1-0.2-0.2 0 0-0.1-0.1-0.1-0.1-0.1-0.2-0.1-0.1-0.1-0.2-0.1-0.2 0-0.5 0-0.2 0.2-0.5 0.2-0.2 0.3-0.3 0.1-0.2 0.5-0.3 0.2 0 0.3 0 0.1 0 0.1 0 0.2-0.1 0.3-0.1 0.2-0.1 0.3-0.1 0.2 0 0.3 0 0-0.1 0.1-0.1 0.1-0.1 0.4-0.1 0.1 0 0.2 0 0 0 0.1 0 0.3 0 0.3 0 0.1-0.1 0.2-0.1 0.3-0.1 0.6 0 0.2 0.1 0.3 0.2 0.1 0.1 0.2 0.2 0.2 0.4 0.2 0.5 0 0 0 0.1 0.1 0.2 0.1 0.4 0 0.1-0.1 0.2 0 0.3 0 0.4 0.1 0.1 0 0.2 0.1 0.2 0 0.5 0 0.3 0 0.4 0 0 0 0 0 0.3 0 0.4 0 0.1 0 0.2 0 0.2 0 0.3 0 0.1 0 0.1 0 0.1 0 0.5 0 0.2 0 0.6 0 0.4 0 0.7 0 0.3-0.1 0.5 0.1 0.2 0.1 0.3 0 0.1-0.1 0.3 0 0.2 0 0.5 0 0.3 0 0.7 0 0.3-0.1 0.5 0 0.3 0 0.5-0.1 0.2-0.1 0.5 0 0.2 0 0.4 0.1 0.1 0.1 0.4 0 0.3-0.1 0.5 0 0.2 0 0.3 0 0.1 0 0.2 0 0.1 0 0.2 0 0.1 0 0.3 0 0.2 0 0.3 0 0.1 0 0.2 0 0.2 0 0.3 0 0.1-0.1 0.1 0 0.2 0 0.4 0 0.2 0 0.3 0 0.2 0 0.4 0 0.2 0 0.3 0 0.3 0 0.4 0 0 0 0.1 0.1 0.3 0.1 0.6 0 0.2 0 0.5 0 0.2 0 0.3 0 0.2 0 0.4 0.2 0.1 0.3 0.1 0.1 0 0.2 0.1l0.3 0.3q0.2 0.4 0.3 0.7 0 0.2 0 0.6zm16.1-3.4l-0.3 0.4q0 0.2-0.2 0.5-0.2 0.2-0.2 0.3-0.1 0.1-0.2 0.2-0.1 0-0.2 0.1 0 0.1-0.1 0.2 0 0-0.1 0.1-0.1 0.2-0.2 0.3-0.1 0.1-0.2 0.1-0.1 0.2-0.2 0.3-0.2 0.1-0.3 0.2-0.1 0-0.2 0.1-0.4 0.1-0.5 0.2-0.1 0.1-0.3 0.1-0.2 0.1-0.4 0.2-0.1 0-0.2 0.1-0.2 0.1-0.3 0.1 0 0-0.1 0.1-0.1 0.1-0.2 0.1-0.1 0-0.2 0-0.2 0-0.5 0.1-0.2 0.1-0.6 0.1-0.3 0.1-0.6 0.1-0.3 0-0.5-0.1-0.4 0-0.5 0-0.1 0.1-0.3 0.1-0.2 0-0.6 0-0.4-0.1-0.6-0.1-0.5-0.1-1.1-0.3-0.3 0-0.4-0.1-0.3 0-0.5-0.2-0.2-0.1-0.5-0.2-0.3-0.2-0.5-0.4-0.2-0.1-0.3-0.3-0.2-0.3-0.3-0.3-0.2-0.3-0.3-0.4 0-0.1 0-0.2-0.2-0.2-0.2-0.3-0.1 0-0.2-0.1 0-0.1-0.1-0.2 0-0.1-0.1-0.2 0-0.1-0.1-0.4-0.1-0.2-0.1-0.4-0.1-0.1-0.1-0.2 0-0.1 0-0.2 0 0-0.1-0.1 0-0.2 0-0.2 0-0.2-0.1-0.3 0-0.1 0-0.2 0 0 0-0.1 0-0.1 0-0.1-0.1-0.2-0.1-0.3 0-0.1 0-0.2 0-0.3 0-0.4 0-0.1 0-0.1 0-0.2 0-0.3 0-0.2 0-0.4 0-0.1 0-0.4 0.1-0.2 0.2-0.4 0 0 0.1-0.2 0.1-0.1 0.2-0.2 0.1-0.4 0.2-0.5 0-0.1 0.1-0.3 0-0.1 0.1-0.1 0-0.2 0.1-0.4 0.1-0.1 0.2-0.2 0-0.1 0.2-0.2 0-0.1 0.1-0.2 0-0.1 0.1-0.1 0.1-0.2 0.2-0.3 0.2-0.2 0.3-0.3 0.2-0.1 0.3-0.3 0.4-0.4 0.5-0.5 0.1 0 0.2 0 0.1 0 0.2-0.1 0.1 0 0.2 0 0.1-0.1 0.1-0.1 0.3-0.1 0.5-0.2 0.1-0.1 0.4-0.2 0.2-0.1 0.5-0.2 0.2-0.1 0.6-0.2l1-0.2q0.1 0 0.2 0 0.2 0 0.3 0 0 0 0.1 0 0.1 0 0.3-0.1 0.1 0 0.4 0 0.3 0 0.7 0 0.3 0.1 0.6 0.1 0.3 0 0.4 0.1 0.2 0 0.3 0.1 0.1 0 0.1 0.1 0.3 0.1 0.4 0.1 0 0 0.1 0 0.3 0.2 0.4 0.3 0.1 0 0.2 0.1 0.4 0.3 0.5 0.4 0.2 0.1 0.4 0.2 0.1 0.1 0.2 0.3 0.1 0.1 0.2 0.3l0.3 0.3q0.1 0.1 0.3 0.3 0.1 0.1 0.1 0.2 0 0.1 0 0.2 0.2 0.1 0.4 0.3 0 0.2 0.1 0.4 0 0 0.1 0.1 0 0.1 0 0.2 0 0.2 0 0.2 0.1 0.1 0.1 0.2 0 0.1 0.1 0.2 0.1 0.4 0.2 1 0 0.6 0.1 1.2 0 0.6-0.1 1.2 0 0.6-0.2 1zm-2.6-1.4q0-0.3-0.1-0.4 0-0.1 0-0.2 0-0.2 0.1-0.3 0-0.1 0-0.3 0-0.1-0.1-0.4 0-0.3-0.1-0.5 0-0.3-0.1-0.6-0.1-0.3-0.2-0.5-0.2-0.2-0.2-0.4-0.1-0.1-0.1-0.2-0.1-0.1-0.3-0.2-0.2-0.2-0.5-0.4-0.2-0.1-0.6-0.3-0.2-0.1-0.4-0.2-0.4-0.1-0.8-0.1-0.2 0-0.4 0-0.2 0-0.4-0.1-0.2 0.1-0.4 0.1-0.1 0-0.3 0-0.4 0.1-1.1 0.4-0.6 0.3-1 0.4-0.2 0.3-0.3 0.4-0.1 0.1-0.1 0.2-0.2 0.2-0.3 0.3-0.1 0.1-0.1 0.4l-0.3 0.2q0 0.1-0.2 0.3-0.1 0.3-0.2 0.5 0 0.1-0.1 0.2-0.1 0.3-0.2 0.4 0 0.2-0.1 0.3 0.1 0.2 0 0.3 0 0.2 0.1 0.3 0 0.2 0 0.4 0 0.1 0.1 0.3 0.1 0.2 0.1 0.4 0.1 0.3 0.2 0.5 0 0.1 0 0.2 0.1 0.2 0.1 0.3 0.1 0.1 0.1 0.2 0.2 0.2 0.2 0.3 0.3 0.2 0.4 0.3 0.1 0 0.2 0.1 0.3 0.1 0.3 0.1 0.4 0 0.7 0 0.5 0.1 1.1 0.1 0.5 0 1 0 0.5 0 0.9 0 0.3-0.1 0.5-0.1 0.2-0.1 0.2-0.1 0.1 0 0.1 0 0.2-0.1 0.3-0.1 0.1-0.1 0.2-0.1 0.3-0.1 0.4-0.2 0.1-0.1 0.2-0.1 0.2-0.1 0.3-0.2 0.1-0.1 0.2-0.2 0.1-0.1 0.2-0.1 0.1-0.1 0.2-0.2 0.3-0.5 0.4-0.8 0.1-0.4 0.2-0.6zm16.8-3.9q0 0.2 0 0.3 0 0 0 0.1-0.1 0.2-0.2 0.5-0.1 0.1-0.2 0.5-0.1 0.1-0.2 0.1 0 0.1-0.1 0.2l-0.1 0.1q-0.1 0-0.1 0.1-0.1 0-0.1 0 0 0-0.1 0-0.2 0.1-0.4 0.1-0.2 0.1-0.5 0-0.3-0.1-0.5-0.3 0 0-0.1-0.2h-0.1q0-0.1 0-0.2-0.1-0.1-0.1-0.2 0-0.2 0-0.5 0-0.2 0-0.4 0-0.1 0.1-0.3l-0.3-0.2q0 0-0.2 0-0.1 0-0.2-0.1-0.1 0-0.2 0-0.1 0-0.2 0-0.1 0-0.5 0-0.3 0.1-0.7 0.3-0.2 0.1-0.3 0.1-0.1 0-0.1 0-0.3 0.1-0.5 0.3-0.2 0.1-0.4 0.3-0.2 0.2-0.2 0.2-0.1 0-0.1 0.1-0.1 0-0.2 0.1h-0.1q0 0.1 0 0.1l-0.4 0.4q0 0.1-0.1 0.2-0.2 0.2-0.3 0.3-0.1 0.2-0.1 0.2-0.1 0.1-0.1 0.1-0.2 0.4-0.2 0.6-0.1 0.1-0.1 0.2 0 0.4-0.1 0.7 0 0.2 0 0.3 0.1 0.7 0 1.4 0.2 0.2 0.1 0.5 0.1 0.5 0 0.5 0.1 0.2 0.1 0.2 0.1 0 0.2-0.1 0.2 0.1 0.4 0.2 0.2 0 0.4 0 0.2 0 0.3 0 0.2 0.1 0.3 0.2 0.1 0 0.2 0.1 0 0.1 0.1 0.2 0.1 0.2 0.2 0.3-0.1 0.1-0.1 0.2v0.2q0 0.3-0.2 0.5-0.1 0.2-0.2 0.3-0.1 0.3-0.4 0.4-0.4 0.1-0.5 0.1-0.1 0.1-0.2 0.1-0.2 0-0.3 0-0.1 0-0.3 0-0.2-0.1-0.3-0.1 0 0 0-0.1-0.2 0-0.3 0 0 0-0.1 0-0.1 0-0.2 0.1-0.1 0-0.3 0h-0.6q-0.2 0-0.4 0-0.1 0-0.2 0l-0.4 0.1q-0.3 0-0.5 0-0.2 0-0.5-0.1-0.4-0.1-0.5-0.5 0-0.3-0.1-0.4 0-0.1 0-0.2v-0.1q0.1-0.1 0.1-0.2 0-0.3 0.1-0.3l0.3-0.2 0.3-0.2q0.1 0 0.2-0.1 0.1 0 0.1 0l0.1-0.1q0.2 0 0.3 0 0.1 0 0.1-0.1 0-0.2 0-0.5 0-0.3 0.1-0.4-0.1-0.3-0.1-0.5 0-0.3 0-0.4 0-0.1 0-0.2 0.1-0.3 0-0.5v-0.6l0.1-0.5q0-0.3 0-0.4 0-0.2 0-0.2 0.1-0.1 0.1-0.2 0-0.1 0-0.2 0.1-0.3 0.1-0.4 0 0 0-0.1 0-0.1-0.1-0.1 0-0.1 0-0.2l0.2-0.6q-0.2-0.5-0.2-0.7 0.1-0.2 0.1-0.4-0.4-0.2-0.8-0.4-0.4-0.2-0.6-0.6l-0.2-0.3 0.1-0.7 0.3-0.6q0.1 0 0.3-0.1 0.1-0.1 0.2-0.1 0.1 0 0.2-0.1 0 0 0.2 0.1 0.1 0 0.3 0 0.1 0 0.2 0 0.2 0 0.3 0 0.1 0 0.2 0 0.1 0 0.2 0h0.4q0.5 0 0.9 0.3 0.3 0.3 0.4 0.6 0.1 0.2 0.1 0.3 0 0.3 0 0.3 0 0.1 0 0.1 0.3-0.1 0.3-0.1 0.1 0 0.2-0.1 0.2-0.1 0.2-0.2 0.1 0 0.1-0.1 0.2-0.1 0.3-0.1 0.2-0.1 0.4-0.1 0.2-0.2 0.4-0.4 0.3 0 0.3 0 0.1 0 0.2-0.2 0.5 0 0.7-0.1 0.1 0 0.2 0 0.2 0 0.2 0 0.5 0 0.8-0.1 0.3 0 0.6 0 0.1 0 0.6 0.1 0.5 0 0.7 0.1 0.2 0.1 0.3 0.1h0.1q0.1 0 0.3 0.1 0.2 0.1 0.3 0.2 0.3 0.3 0.4 0.6 0.2 0.3 0.2 0.6 0.1 0.2 0.1 0.5 0.1 0.3 0.1 0.6zm5.2-8.1l0.3 0.6q-0.1 0.3-0.1 0.4 0 0.1 0 0.1-0.2 0.4-0.2 0.5 0 0.1-0.1 0.3-0.1 0.2-0.1 0.3-0.1 0.1-0.1 0.1-0.5 0.3-0.7 0.3-0.2 0-0.3-0.1-0.2 0-0.3 0-0.1 0-0.4 0-0.2-0.2-0.3-0.2 0-0.1-0.1-0.2-0.1-0.1-0.1-0.2-0.1 0-0.2-0.1-0.1-0.2-0.1-0.3 0-0.1-0.1-0.2 0 0-0.1-0.2 0-0.1-0.2-0.5 0.2-0.3 0.3-0.4 0.1-0.2 0.2-0.3 0.3-0.2 0.4-0.2 0.2-0.1 0.3-0.2 0.1 0 0.2-0.1 0.1-0.1 0.2-0.2 0.2 0.1 0.4 0 0.1 0 0.2 0 0.8 0.3 1 0.8zm2.6 16.4q0 0.2 0 0.2 0 0.1 0 0.2-0.2 0.3-0.3 0.4-0.2 0.1-0.3 0.1-0.6 0.2-0.9 0.3-0.3 0-0.6 0-0.2 0-0.4 0-0.1 0-0.3-0.1-0.3 0.1-0.4 0.1 0 0-0.1 0 0 0-0.1 0 0 0-0.1 0-0.1 0-0.1 0h-0.2q-0.1 0-0.2 0-0.1 0-0.1 0-0.3 0-0.6-0.2-0.2-0.1-0.2-0.1-0.1-0.1-0.1-0.1-0.3-0.2-0.3-0.3 0-0.1-0.1-0.1 0-0.1-0.1-0.2 0 0 0-0.1-0.2-0.4-0.1-0.6 0-0.2 0.3-0.6 0.3 0 0.4-0.1 0.1-0.1 0.1-0.1 0.1 0 0.2 0 0.2 0 0.3-0.1 0-0.3 0-0.7 0-0.5 0-0.7-0.1-0.1-0.1-0.5 0-0.2-0.1-0.5 0-0.2 0-0.3 0-0.2 0-0.3 0-0.1 0-0.1-0.1-0.3-0.1-0.6 0.1-0.3 0.1-0.6 0-0.1 0-0.1 0-0.1-0.1-0.3 0.1-0.2 0.1-0.3 0-0.1 0-0.2 0-0.2-0.1-0.3 0-0.1 0-0.3 0-0.1 0-0.2 0-0.1 0-0.2 0-0.3 0-0.4 0-0.3 0-0.5-0.1-0.3 0-0.5v-0.4q-0.2 0.1-0.4 0.1-0.2 0-0.4 0-0.3 0-0.4 0 0-0.2-0.1-0.2-0.1 0-0.1-0.1-0.1 0-0.1-0.1-0.1 0-0.1 0l-0.1-0.1q-0.2-0.2-0.2-0.2-0.1-0.3-0.1-0.3 0-0.1 0-0.2 0-0.2 0-0.3 0.1-0.2 0.2-0.4 0.1-0.1 0.2-0.1 0.1 0 0.2-0.1 0 0 0.1-0.1l0.1-0.1q0.2 0 0.3-0.1l0.7-0.2q0.1 0 0.2 0 0.1-0.1 0.2-0.1 0.1 0 0.1-0.1h0.4q0.1 0 0.2 0 0.2 0 0.4 0 0.1 0 0.3 0 0.1 0 0.2 0.1 0.2 0.1 0.2 0.1 0.1 0.1 0.2 0.1 0.1 0.4 0.1 0.7 0.1 0.2 0 0.4 0 0.3 0 0.4 0 0.5 0 0.6 0 0.2 0.1 0.4 0 0.1 0 0.5v0.4q0 0.3 0 0.4 0 0.2 0 0.2 0 0.1 0.1 0.2 0 0.1 0 0.2 0 0.3 0 0.5-0.1 0.3-0.1 0.4 0 0 0.1 0.2 0 0.1 0 0.2 0.1 0.2 0.1 0.3-0.1 0.4-0.1 0.3v0.1q-0.1 0.4 0 0.6 0 0.2 0 0.3 0.1 0.1 0.1 0.2 0 0.2 0 0.4 0.1 0.4 0.1 0.5 0 0.1 0 0.2v0.4q0.2 0.4 0.1 0.7 0.1 0.4 0.1 0.7 0 0 0.1 0 0.2 0 0.3 0.1 0.1 0 0.3 0 0.1 0 0.3 0.1 0.1 0 0.3 0.1 0.1 0 0.1 0.2 0.1 0.1 0.2 0.2 0 0.1 0.1 0.1 0.1 0.2 0.1 0.4 0 0.1-0.1 0.2zm14.1-3.1v0.4q-0.1 0.4-0.1 0.5 0 0.1-0.1 0.1-0.1 0.4-0.3 0.6-0.1 0.1-0.2 0.2-0.1 0.1-0.2 0.2 0 0.1-0.1 0.2 0 0.1-0.1 0.1-0.1 0.1-0.2 0.2-0.3 0.2-0.5 0.3-0.2 0.2-0.3 0.2-0.1 0-0.1 0-0.2 0.2-0.3 0.3 0 0-0.1 0-0.1 0-0.2 0.1 0 0-0.2 0.1-0.3 0-0.4 0.1 0 0-0.1 0 0 0-0.1 0 0 0.1-0.2 0.2-0.4 0-0.5 0 0 0-0.1 0-0.2 0.1-0.3 0.2-0.6 0.1-0.8 0.1-0.2 0-0.5 0-0.2 0-0.3 0 0 0-0.1 0h-1.3q-0.3-0.1-0.4-0.1-0.2-0.1-0.3-0.1 0 0-0.1-0.1-0.2 0-0.6-0.2-0.4-0.2-0.6-0.3-0.1-0.1-0.3-0.3-0.1 0-0.2-0.1-0.1-0.1-0.2-0.1-0.1-0.1-0.2-0.2l-0.4-0.6q-0.1-0.1-0.1-0.2-0.1-0.2-0.3-0.4 0-0.3-0.1-0.4 0-0.1-0.1-0.1-0.1-0.1-0.2-0.2 0-0.3-0.1-0.3-0.1-0.6-0.2-0.8 0-0.3-0.1-0.4 0-0.2-0.1-0.3 0-0.1 0-0.1-0.1-0.4-0.1-0.6 0-0.2 0-0.3 0-0.2 0-0.2 0-0.1 0-0.2 0-0.2 0-0.3 0 0 0-0.1 0-0.1 0-0.2 0-0.1 0-0.2 0-0.3 0-0.4 0-0.4 0.1-0.5l0.3-0.7q0-0.2 0-0.3 0.1-0.1 0.1-0.2 0-0.2 0-0.3 0-0.2 0.1-0.4 0.1-0.3 0.3-0.5 0-0.1 0.1-0.2 0-0.1 0.1-0.2 0-0.1 0.1-0.2 0.1-0.1 0.2-0.2l0.2-0.3q0.2-0.3 0.3-0.4 0.1-0.1 0.2-0.1 0.1-0.2 0.2-0.3 0.1-0.1 0.2-0.1 0.2-0.3 0.4-0.4 0.1-0.1 0.2-0.2 0.2-0.1 0.3-0.2 0.1-0.1 0.4-0.2 0.2-0.1 0.2-0.2 0 0 0.1 0 0.1-0.2 0.3-0.3 0.4-0.1 0.5-0.2 0.2 0 0.5 0 0.2 0 0.5 0 0.2 0 0.4 0 0.2 0 0.5 0 0.2 0.1 0.3 0.1 0.1-0.1 0.1-0.1 0.2 0 0.3 0.1 0.1 0 0.2 0l0.4 0.2q0.3 0 0.3 0.1 0.1 0 0.1 0 0 0 0.2 0 0.1 0.1 0.2 0.1 0.1 0 0.1 0.1 0.2 0 0.2 0 0.5 0.2 0.8 0.4 0.2 0.2 0.4 0.3 0.2 0.3 0.2 0.4 0.1 0.1 0.1 0.2 0.2 0.2 0.2 0.3 0 0.1 0 0.1 0.2 0.3 0.3 0.5 0.1 0.2 0.1 0.4 0.3 0.5 0.3 0.7 0.1 0.2 0.2 0.3 0 0.2 0 0.3 0 0.1 0 0.1 0.1 0.3 0.1 0.4 0.1 0.1 0.1 0.3 0 0.2 0.1 0.4 0.1 0.3 0.1 0.4 0 0.1 0 0.3-0.1 0.2-0.1 0.4 0 0.2-0.1 0.3l-0.3 0.5-0.5 0.4q-0.2 0-0.3 0h-0.4q-0.3 0.1-0.4 0.1-0.1 0-0.1 0 0 0-0.1 0h-0.1-0.5q-0.1 0-0.2 0-0.1 0-0.2-0.1-0.1 0-0.2 0.1-0.1 0-0.3 0-0.6-0.1-0.6-0.1-0.3 0-0.5 0-0.2 0.1-0.3 0.1-0.3 0-0.5-0.1-0.2 0-0.5-0.1-0.4-0.1-0.7-0.1-0.1 0-0.2 0-0.1 0-0.2 0-0.2 0-0.2 0-0.1 0-0.2 0 0 0-0.1 0-0.1 0-0.2 0-0.2 0-0.3 0-0.1 0-0.1 0-0.2 0-0.3 0-0.1 0-0.1 0-0.3 0-0.4 0-0.2 0-0.3 0 0 0.2 0 0.3 0 0 0 0 0.1 0.3 0.1 0.4 0 0 0 0.1 0 0.1 0 0.2 0.1 0.1 0.1 0.2 0 0.4 0.2 0.9 0.2 0.4 0.3 0.6 0.1 0.2 0.1 0.3 0 0 0 0 0.1 0.1 0.2 0.2 0 0.1 0.1 0.1 0.1 0.2 0.2 0.3 0 0 0.1 0.1 0.1 0 0.2 0.1 0.2 0 0.2 0.2 0.3 0 0.5 0.1 0.2 0 0.5 0.1 0.3 0 0.6 0 0.4 0 0.7-0.1 0.3 0 0.4 0 0.3-0.1 0.4-0.2 0.3 0 0.4-0.1 0.3 0 0.5-0.1 0.3-0.2 0.5-0.2 0.1-0.2 0.3-0.2 0.2-0.2 0.3-0.3 0.3-0.2 0.3-0.3 0.2-0.2 0.3-0.4 0.1-0.1 0.1-0.2l0.3-0.3q0.1 0 0.2-0.1 0.2-0.1 0.2-0.1 0 0 0.1-0.1 0.1 0 0.3-0.1 0.2 0.1 0.3 0.2 0.1 0 0.2 0.1 0.2 0.2 0.3 0.3 0 0.1 0.1 0.1 0 0.1 0 0.2 0 0 0.1 0.1 0 0.1 0 0.1zm-2.9-4.9q0-0.3-0.1-0.4 0-0.2-0.1-0.3-0.1-0.3-0.1-0.3-0.1-0.1-0.1-0.1-0.1-0.2-0.1-0.4-0.2-0.1-0.3-0.3-0.1-0.2-0.2-0.3-0.3-0.3-0.3-0.4-0.2-0.1-0.4-0.1-0.1-0.1-0.1-0.1-0.3-0.1-0.5-0.2-0.2 0-0.4-0.1-0.1 0-0.3 0h-0.3q-0.2 0.1-0.3 0.1-0.1 0-0.2 0-0.3 0.1-0.3 0.1-0.1 0-0.2 0.1-0.2 0.1-0.3 0.2-0.1 0-0.2 0-0.2 0.2-0.3 0.2-0.2 0.4-0.5 0.7-0.3 0.3-0.5 0.5-0.1 0.2-0.1 0.3-0.1 0.1-0.1 0.2-0.1 0.1-0.1 0.2 0 0.1-0.1 0.2h0.4q0.5-0.1 0.7-0.1 0.2 0 0.2 0 0.1 0 0.2-0.1 0.3 0.1 0.3 0.1 0.1 0 0.1 0 0.3 0 0.5 0 0.2 0 0.4 0 0.2 0.1 0.4 0.1 0.6 0.2 1.1 0.2 0.1 0.1 0.2 0.1 0.1-0.1 0.2-0.1 0.2 0 0.3 0h0.8 0.3q0.3 0 0.3 0 0.1 0 0.1 0z"/>
	</g>
</svg>