<svg xmlns="http://www.w3.org/2000/svg" viewBox="0 0 500 500"><g id="freepik--Shadow--inject-36"><ellipse id="freepik--path--inject-36" cx="250" cy="416.24" rx="193.89" ry="11.32" style="fill:#f5f5f5"></ellipse></g><g id="freepik--speech-bubble--inject-36"><path d="M181.28,148.26H152.55a8.85,8.85,0,0,0-8.85,8.85v25a8.85,8.85,0,0,0,8.85,8.85h8.38l-7,13.89,13-13.89h14.39a8.84,8.84,0,0,0,8.84-8.85v-25A8.84,8.84,0,0,0,181.28,148.26Z" style="fill:#407BFF"></path><path d="M181.28,148.26H152.55a8.85,8.85,0,0,0-8.85,8.85v25a8.85,8.85,0,0,0,8.85,8.85h8.38l-7,13.89,13-13.89h14.39a8.84,8.84,0,0,0,8.84-8.85v-25A8.84,8.84,0,0,0,181.28,148.26Z" style="fill:#fff;opacity:0.7000000000000001"></path><path d="M165.42,175.87a1.31,1.31,0,0,1-1-.46l-5.6-6.59a1.31,1.31,0,1,1,2-1.7l4.6,5.42,7.58-8.95a1.31,1.31,0,1,1,2,1.7l-8.59,10.12A1.29,1.29,0,0,1,165.42,175.87Z" style="fill:#fff"></path><circle cx="166.91" cy="169.5" r="14.26" transform="translate(-70.97 167.67) rotate(-45)" style="fill:#407BFF"></circle></g><g id="freepik--Character--inject-36"><path d="M205,417.12h58.2a1.15,1.15,0,0,0,1.15-1.15v-3.71a1.15,1.15,0,0,0-1.15-1.14H208V292.3h54.26a2.09,2.09,0,0,0,2.09-2.08V286.3H205a3,3,0,0,0-3,3V414.12A3,3,0,0,0,205,417.12Z" style="fill:#263238"></path><g style="isolation:isolate;opacity:0.30000000000000004"><path d="M202,289.3V414.11a3,3,0,0,0,3,3h58.2a1.14,1.14,0,0,0,1.14-1.14v-3.71a1.15,1.15,0,0,0-1.14-1.15H208V292.3h54.26a2.09,2.09,0,0,0,2.08-2.09V286.3H205A3,3,0,0,0,202,289.3Z" style="fill:#fff"></path></g><path d="M202,289.3v31.83q3,.76,6,1.47V292.3h54.26a2.09,2.09,0,0,0,2.08-2.09V286.3H205A3,3,0,0,0,202,289.3Z" style="opacity:0.2"></path><path d="M96.75,400.37l23.86-2.08V367H129v31.33L153,400.37a4.12,4.12,0,0,1,3.72,4.1v3.18H93v-3.18A4.12,4.12,0,0,1,96.75,400.37Z" style="fill:#263238"></path><path d="M96.75,400.37l23.86-2.08V367H129v31.33L153,400.37a4.12,4.12,0,0,1,3.72,4.1v3.18H93v-3.18A4.12,4.12,0,0,1,96.75,400.37Z" style="fill:#fff;isolation:isolate;opacity:0.1"></path><path d="M148.94,411.6a5.49,5.49,0,1,0,5.49-5.49A5.48,5.48,0,0,0,148.94,411.6Z" style="fill:#263238"></path><path d="M100.75,411.6a5.49,5.49,0,1,1-5.48-5.49A5.48,5.48,0,0,1,100.75,411.6Z" style="fill:#263238"></path><path d="M122.88,342.66h3.85a3.71,3.71,0,0,1,3.71,3.71v27a0,0,0,0,1,0,0H119.17a0,0,0,0,1,0,0v-27A3.71,3.71,0,0,1,122.88,342.66Z" transform="translate(249.61 716.01) rotate(180)" style="fill:#263238"></path><path d="M122.88,342.66h3.85a3.71,3.71,0,0,1,3.71,3.71v27a0,0,0,0,1,0,0H119.17a0,0,0,0,1,0,0v-27A3.71,3.71,0,0,1,122.88,342.66Z" transform="translate(249.61 716.01) rotate(180)" style="fill:#fff;isolation:isolate;opacity:0.2"></path><path d="M100.06,280.66s2.58,51.83,13.74,60.75H101.86s-10.64-17.66-11.43-60.75Z" style="fill:#263238"></path><path d="M100.06,280.66s2.58,51.83,13.74,60.75H101.86s-10.64-17.66-11.43-60.75Z" style="fill:#fff;isolation:isolate;opacity:0.1"></path><path d="M99.09,337.11H152a4.49,4.49,0,0,1,4.49,4.49v4.1a0,0,0,0,1,0,0H94.59a0,0,0,0,1,0,0v-4.1A4.49,4.49,0,0,1,99.09,337.11Z" style="fill:#407BFF"></path><rect x="92.24" y="341.41" width="66.62" height="4.29" rx="1.81" style="fill:#263238"></rect><rect x="92.24" y="341.41" width="66.62" height="4.29" rx="1.81" style="fill:#fff;isolation:isolate;opacity:0.6000000000000001"></rect><path d="M88.33,292h19.13c5.6,0,9.64-5,9-11.25l-.81-8.28c-.62-6.21-5.65-11.25-11.25-11.25H85.3c-5.6,0-9.64,5-9,11.25l.81,8.28C77.69,287,82.73,292,88.33,292Z" style="fill:#407BFF"></path><g id="freepik--group--inject-36"><path d="M151.46,247.29c1.19,3.77,2.59,7.7,4.13,11.3,1.3,3,3.15,6.82,5.26,8.83,1.92,1.71,6.49,2.36,9.46,2.75,4,.51,8.26.7,12.41.87l.74,5.6A64.85,64.85,0,0,1,170,278.77c-5.08.18-11,0-15.4-3.12-6.39-5-9.17-11.66-12-18.69-.8-2.23-1.52-4.27-2.13-6.61l11-3.06Z" style="fill:#b65b52"></path><path d="M146.55,242c3.15,1.08,6,5.61,13.93,23.78,0,0,1.29,2.22,7.72,3.61l-.59,10.2s-9.18-.4-11.31-1.87-14.9-22.48-14.9-22.48Z" style="fill:#263238"></path><path d="M168.2,269.41l-.59,10.2s-7.36-.32-10.43-1.45a4,4,0,0,1-.88-.42c-1.23-.86-6-8.25-9.85-14.33-2.79-4.42-5-8.15-5-8.15L146.55,242c3.15,1.08,6,5.61,13.94,23.77C160.49,265.79,161.77,268,168.2,269.41Z" style="fill:#fff;isolation:isolate;opacity:0.2"></path><path d="M157.18,278.16a4,4,0,0,1-.88-.42c-1.23-.86-6-8.25-9.85-14.33A101.11,101.11,0,0,1,150,253.25S157.32,267.92,157.18,278.16Z" style="isolation:isolate;opacity:0.2"></path><path d="M180.54,271.55l7.17-2.58-.88,9.6s-6.58.84-7.39-2.62Z" style="fill:#b55b52"></path><polygon points="193.65 270.91 192.55 278.82 186.83 278.57 187.71 268.97 193.65 270.91" style="fill:#b55b52"></polygon><polygon points="168.25 268.97 171.91 270.07 170.57 279.99 166.91 280.62 168.25 268.97" style="fill:#263238"></polygon><path d="M151.74,305.09s48.39,19.09,59.64,27.07S251,393.94,251,393.94l-11.73,9s-33.84-49.14-38-52.47-58-19.86-58-19.86Z" style="fill:#407BFF"></path><path d="M251,393.94l-11.73,9s-7.9-11.47-16.53-23.7c-9.23-13.09-19.3-27-21.44-28.77-3-2.44-32.65-11.94-48.36-16.86-5.78-1.82-9.67-3-9.67-3l8.46-25.55s48.38,19.09,59.64,27.07S251,393.94,251,393.94Z" style="fill:#fff;isolation:isolate;opacity:0.4"></path><polygon points="253.15 413.19 258.8 407.51 249.56 393.22 243.92 398.9 253.15 413.19" style="fill:#b55b52"></polygon><polygon points="243.92 398.9 249.56 393.23 254.84 401.4 249 406.78 243.92 398.9" style="isolation:isolate;opacity:0.2"></polygon><path d="M259.78,406.89s0,0,.07,0,0,0,0,0a9.88,9.88,0,0,0,1.9-.94,2.13,2.13,0,0,0,1-1.16,1,1,0,0,0-.39-1,.7.7,0,0,0-.65-.2c-.55.13-1.09.91-1.5,1.66a3,3,0,0,0-.46-2,.7.7,0,0,0-.87-.1.88.88,0,0,0-.49.63c-.23,1.08,1.22,2.82,1.29,2.92l.1-.1h0l-.09.11s-.07.11-.07.12A.13.13,0,0,0,259.78,406.89Zm.05-.74c0,.06-.05.12-.07.17-.44-.62-1.09-1.71-.95-2.35a.54.54,0,0,1,.24-.37l.07,0c.24-.12.37-.05.45,0A3.76,3.76,0,0,1,259.83,406.15Zm.34.24c.44-1,1.17-2.3,1.72-2.42a.32.32,0,0,1,.32.1.68.68,0,0,1,.26.62C262.36,405.21,261.51,405.83,260.17,406.39Z" style="fill:#407BFF"></path><path d="M258.69,406.38l-7.46,5a.56.56,0,0,0-.19.78h0l3.6,6.15a1.41,1.41,0,0,0,1.95.4c2.57-1.79,3.71-2.77,7-5a75.85,75.85,0,0,0,8.57-6.13c2.46-2.29.13-4.66-1.11-3.91-3,1.77-8.08,2.53-10.94,2.32A2.17,2.17,0,0,0,258.69,406.38Z" style="fill:#263238"></path><polygon points="239.82 406.91 254.47 397.16 251.09 390.27 235.22 401.28 239.82 406.91" style="fill:#407BFF"></polygon><polygon points="239.82 406.91 254.47 397.16 251.09 390.27 235.22 401.28 239.82 406.91" style="fill:#fff;opacity:0.2"></polygon><path d="M222.76,379.28c-9.23-13.09-19.3-27-21.44-28.77-3-2.44-32.65-11.94-48.36-16.86l-1.83-19,5.74-1,.65,1.46s35.86,8.13,46,13.21C210.05,331.53,218.82,363.61,222.76,379.28Z" style="isolation:isolate;opacity:0.2"></path><path d="M220.61,408.79l0,0a.09.09,0,0,0,.07,0,10,10,0,0,0,2.11-.25,2.13,2.13,0,0,0,1.35-.76,1,1,0,0,0,0-1.06.71.71,0,0,0-.55-.41c-.56-.07-1.33.5-2,1.07a2.9,2.9,0,0,0,.21-2,.7.7,0,0,0-.78-.39,1,1,0,0,0-.68.43c-.57.95.22,3.07.26,3.19l.12-.07h0l-.12.08s-.11.08-.1.09Zm.3-.69-.13.14a4.07,4.07,0,0,1-.12-2.54.55.55,0,0,1,.35-.26l.09,0c.26,0,.36.08.4.18A3.73,3.73,0,0,1,220.91,408.1Zm.23.34c.75-.8,1.87-1.78,2.43-1.71a.33.33,0,0,1,.27.2.7.7,0,0,1,0,.67C223.6,408.05,222.6,408.36,221.14,408.44Z" style="fill:#407BFF"></path><polygon points="212.27 412.53 219.48 409.04 215.19 391.86 207.99 395.35 212.27 412.53" style="fill:#b55b52"></polygon><polygon points="207.99 395.35 215.19 391.87 217.64 401.69 210.34 404.82 207.99 395.35" style="isolation:isolate;opacity:0.2"></polygon><path d="M219.75,407.94l-8.7,2.25a.56.56,0,0,0-.44.67h0l1.36,7a1.42,1.42,0,0,0,1.71,1c3-.84,4.42-1.39,8.24-2.41A74.22,74.22,0,0,0,232,413.54c3.08-1.34,1.67-4.35.25-4.05-3.38.69-8.47-.3-11.09-1.45A2.26,2.26,0,0,0,219.75,407.94Z" style="fill:#263238"></path><path d="M218.7,395.12S206.5,333.91,204,330.27c-4.06-6-52.88-15.67-52.88-15.67l5.73-1L150.23,296l-43.47,1.71s.91,28.72,5.33,36.42,69.81,11.24,74.06,13,17.22,49.77,17.22,49.77Z" style="fill:#407BFF"></path><path d="M218.7,395.12S206.5,333.91,204,330.27c-4.06-6-52.88-15.67-52.88-15.67l5.73-1L150.23,296l-43.47,1.71s.91,28.72,5.33,36.42,69.81,11.24,74.06,13,17.22,49.77,17.22,49.77Z" style="fill:#fff;isolation:isolate;opacity:0.4"></path><polygon points="203.63 402.32 220.69 397.98 219.78 390.36 201.16 395.49 203.63 402.32" style="fill:#407BFF"></polygon><polygon points="203.63 402.32 220.69 397.98 219.78 390.36 201.16 395.49 203.63 402.32" style="fill:#fff;opacity:0.2"></polygon><polygon points="120.52 298.38 107.92 298.17 107.65 301.98 121.06 302.3 120.52 298.38" style="fill:#263238"></polygon><polygon points="122.46 298.31 123.01 302.27 151.13 301.87 150.22 298.26 122.46 298.31" style="fill:#263238"></polygon><path d="M136,299l.36,2.61a1.35,1.35,0,0,0,1.35,1.13l4.5-.14a1,1,0,0,0,1-1.19l-.37-2.62a1.34,1.34,0,0,0-1.35-1.12l-4.49.14A1,1,0,0,0,136,299Z" style="fill:#fff"></path><path d="M107.86,297.61h41.3a2,2,0,0,0,2-1.78c5.1-40-4.64-53.81-4.64-53.81a75.23,75.23,0,0,0-11.32-2.31,147.3,147.3,0,0,0-16.81-.36A79.59,79.59,0,0,0,107,240.48c-2,.87-4.07,9.78-2,37.54.54,7.27.62,13.55.57,17.23A2.33,2.33,0,0,0,107.86,297.61Z" style="fill:#263238"></path><polygon points="140.76 256.17 148.72 256.17 149.32 265.67 145.05 268.44 140.76 266.32 140.76 256.17" style="fill:#263238"></polygon><path d="M151.19,295.83a2,2,0,0,1-2,1.78h-41.3a2.33,2.33,0,0,1-2.34-2.36c0-3.68,0-10-.56-17.23q-.43-6-.63-10.84a145.73,145.73,0,0,1,.1-17.72c.5-6,1.53-8.53,2.57-9a79.73,79.73,0,0,1,11.43-1.13,147.17,147.17,0,0,1,16.8.36A75.23,75.23,0,0,1,146.55,242S156.29,255.87,151.19,295.83Z" style="fill:#fff;isolation:isolate;opacity:0.2"></path><path d="M118.8,238.94l13.34,4.55.54-3.82c-1.3-2.28-1.63-3.72-.53-6.37l-8.9-10.23C123.48,228.31,122.53,235.47,118.8,238.94Z" style="fill:#b55b52"></path><path d="M127.24,245.47l2.62,1.09,2.28,1.43s3.05,17.46,2.2,32.2l2.56,2.1,2.7-2.17s-3.36-27.07-4.57-32.34l.53-1.27,1.23-2.62-2.27-1.19-3.61.79h-2.52Z" style="fill:#fff"></path><path d="M126.87,227.24l5.27,6.06a18.21,18.21,0,0,0-.95,2.87c-2.23-.67-5-3.64-4.87-6.06A8.08,8.08,0,0,1,126.87,227.24Z" style="isolation:isolate;opacity:0.2"></path><path d="M119.63,236.52a63.2,63.2,0,0,0,12,6.25,11.82,11.82,0,0,0,0-5.67l5.89,2.94s.49,4.57-.86,7l-4.33-3.17-4.86,4s-9.2-3.55-10.64-8.37Z" style="fill:#263238"></path><path d="M149.64,272,136,283c-19.58,4.36-28.19-7.85-31.65-15.85a145.73,145.73,0,0,1,.1-17.72c4.7-.22,10.55-.22,12.13,1,2.75,2.11,12.33,16.9,13.76,18S149.64,272,149.64,272Z" style="isolation:isolate;opacity:0.2"></path><path d="M157.4,271.48l7.17-2.59-.88,9.6s-6.58.84-7.39-2.62Z" style="fill:#b55b52"></path><polygon points="170.5 270.83 169.41 278.74 163.69 278.49 164.57 268.89 170.5 270.83" style="fill:#b55b52"></polygon><path d="M115.69,252.11a131.5,131.5,0,0,0,7,12.17,28.53,28.53,0,0,0,5.82,6.83,1.77,1.77,0,0,0,.59.34,27.35,27.35,0,0,0,7.68.9c7.26.07,14.65-.6,21.94-1.22l1.19,5.52A121.18,121.18,0,0,1,145,280.48c-5.47,1-10.46,1.75-16.28,1.19a14.82,14.82,0,0,1-5.37-1.63c-6.48-3.79-10.45-9.92-14.21-16-1.35-2.36-2.58-4.56-3.72-7.08l10.3-4.87Z" style="fill:#b65b52"></path><path d="M107,240.48c-12.9,4.65,3.83,36.79,10.87,40.39S136.79,283,136.79,283l.84-11.17s-6.16-.75-8-1.19c-2.93-.7-8.85-13.64-12.84-20.67A22.48,22.48,0,0,0,107,240.48Z" style="fill:#263238"></path><path d="M107,240.48c-12.9,4.65,3.83,36.79,10.87,40.39S136.79,283,136.79,283l.84-11.17s-6.16-.75-8-1.19c-2.93-.7-8.85-13.64-12.84-20.67A22.48,22.48,0,0,0,107,240.48Z" style="fill:#fff;isolation:isolate;opacity:0.2"></path><polygon points="135.97 270.99 134.93 283.96 138.63 283.27 139.6 271.68 135.97 270.99" style="fill:#263238"></polygon><path d="M146.18,212.53c.51,3-.78,8.82-4.53,6.36S145.29,207.39,146.18,212.53Z" style="fill:#263238"></path><path d="M125,213.6c-1.44,7.32-2.66,11.53,0,16.15,4,6.94,13.83,5.88,17.44-.87,3.25-6.09,5.06-17-1.27-21.67A10.29,10.29,0,0,0,125,213.6Z" style="fill:#b55b52"></path><path d="M121.48,205.53l8.29-.38.22,4.76-.49-.27s-.52,7-4.49,9.33C119.64,214.87,118.06,208.16,121.48,205.53Z" style="fill:#263238"></path><path d="M120.62,218.88a7,7,0,0,0,2.35,4.85c1.87,1.63,3.89.22,4.28-2.1.35-2.09-.2-5.46-2.51-6.2A3.23,3.23,0,0,0,120.62,218.88Z" style="fill:#b55b52"></path><path d="M135.42,218.37c-.16.59,0,1.14.42,1.24s.82-.3,1-.89,0-1.14-.42-1.23S135.57,217.79,135.42,218.37Z" style="fill:#263238"></path><path d="M142.07,220.05c-.15.58,0,1.14.42,1.23s.83-.3,1-.88,0-1.14-.42-1.24S142.23,219.46,142.07,220.05Z" style="fill:#263238"></path><path d="M139.88,219.81a20.68,20.68,0,0,0,1.6,5.55,3.61,3.61,0,0,1-2.93-.23Z" style="fill:#a02724"></path><path d="M134.81,226.58a5.07,5.07,0,0,0,.75.25.19.19,0,0,0,.22-.13.18.18,0,0,0-.13-.22,4.72,4.72,0,0,1-3.32-2.77.19.19,0,0,0-.23-.11.17.17,0,0,0-.11.23A4.9,4.9,0,0,0,134.81,226.58Z" style="fill:#263238"></path><path d="M133.93,215.72a.35.35,0,0,0,.35-.06,2.89,2.89,0,0,1,2.52-.59.35.35,0,0,0,.45-.23.34.34,0,0,0-.22-.44,3.54,3.54,0,0,0-3.19.71.35.35,0,0,0-.06.5A.42.42,0,0,0,133.93,215.72Z" style="fill:#263238"></path><path d="M145.54,218.49a.37.37,0,0,0,.49-.41,3.55,3.55,0,0,0-2-2.56.37.37,0,0,0-.47.2.36.36,0,0,0,.2.46,2.74,2.74,0,0,1,1.54,2A.38.38,0,0,0,145.54,218.49Z" style="fill:#263238"></path><path d="M126.94,211.42a3.56,3.56,0,0,0,.51.36,3.35,3.35,0,0,0,3.2.13c2.06-1,2.71-6.88,8.57-3.89a3.43,3.43,0,0,1,3.52,1.24c1.51,1.85.47,8.6,3.69,7.67s2.66-1.93,2.66-1.93-.9.57-1.43.12a3,3,0,0,0,.87-3.37s-.78.93-1.3.75a13.65,13.65,0,0,0-.89-8.11c-1.87-4.66-13.31-3.62-13.31-3.62s-1.44-2.41-6.61-.73-7.53,7.91-6.71,10.62" style="fill:#263238"></path></g><polygon points="195.2 277.74 194.46 274.95 164.13 274.95 150.17 276.34 149.64 277.74 195.2 277.74" style="fill:#263238"></polygon><polygon points="195.2 277.74 194.46 274.95 164.13 274.95 150.17 276.34 149.64 277.74 195.2 277.74" style="fill:#fff;isolation:isolate;opacity:0.5"></polygon><polygon points="164.13 274.95 164.13 277.74 195.2 277.74 194.46 274.95 164.13 274.95" style="isolation:isolate;opacity:0.2"></polygon><path d="M174.39,261.59a2.39,2.39,0,0,0,2.41,2.67h46.46a3,3,0,0,0,2.91-2.67l2.76-29.74a2.69,2.69,0,0,0-.06-.86,2.37,2.37,0,0,0-2.35-1.81H180.06a3,3,0,0,0-2.91,2.67Z" style="fill:#263238"></path><path d="M174.39,261.59a2.39,2.39,0,0,0,2.41,2.67h46.46a3,3,0,0,0,2.91-2.67l2.76-29.74a2.69,2.69,0,0,0-.06-.86,2.37,2.37,0,0,0-2.35-1.81H180.06a3,3,0,0,0-2.91,2.67Z" style="fill:#fff;isolation:isolate;opacity:0.5"></path><path d="M177,264.26h46.29a3,3,0,0,0,2.91-2.67l2.76-29.74a2.69,2.69,0,0,0-.06-.86h-46.3a3,3,0,0,0-2.9,2.67l-2.76,29.74A2.43,2.43,0,0,0,177,264.26Z" style="isolation:isolate;opacity:0.1"></path><polygon points="208.88 246.02 199.27 246.02 201.83 273.54 186.64 275.82 186.64 277.74 218.65 277.74 218.65 275.82 212.09 273.54 208.88 246.02" style="fill:#263238"></polygon><polygon points="208.88 246.02 199.27 246.02 201.83 273.54 186.64 275.82 186.64 277.74 218.65 277.74 218.65 275.82 212.09 273.54 208.88 246.02" style="fill:#fff;isolation:isolate;opacity:0.5"></polygon><polygon points="199.27 246.02 206.39 277.3 212.09 277.13 208.88 246.02 199.27 246.02" style="fill:#fff;isolation:isolate;opacity:0.2"></polygon><path d="M119.94,417.12h58.2a1.14,1.14,0,0,0,1.14-1.15v-3.71a1.14,1.14,0,0,0-1.14-1.14h-55.2V292.3H177.2a2.08,2.08,0,0,0,2.08-2.08V286.3H119.94a3,3,0,0,0-3,3V414.12A3,3,0,0,0,119.94,417.12Z" style="fill:#263238"></path><g style="isolation:isolate;opacity:0.4"><path d="M119.94,417.12h58.2a1.14,1.14,0,0,0,1.14-1.15v-3.71a1.14,1.14,0,0,0-1.14-1.14h-55.2V292.3H177.2a2.08,2.08,0,0,0,2.08-2.08V286.3H119.94a3,3,0,0,0-3,3V414.12A3,3,0,0,0,119.94,417.12Z" style="fill:#fff"></path></g><path d="M112.49,280.62H265.91a1.94,1.94,0,0,1,1.94,1.94v4.72a0,0,0,0,1,0,0H110.55a0,0,0,0,1,0,0v-4.73A1.94,1.94,0,0,1,112.49,280.62Z" transform="translate(378.39 567.92) rotate(180)" style="fill:#407BFF"></path><rect x="110.55" y="280.62" width="157.3" height="3.33" transform="translate(378.39 564.58) rotate(180)" style="isolation:isolate;opacity:0.2"></rect><path d="M107.25,281.49h163.9a1.88,1.88,0,0,0,1.88-1.87h0a1.88,1.88,0,0,0-1.88-1.88H107.25a1.88,1.88,0,0,0-1.88,1.88h0A1.88,1.88,0,0,0,107.25,281.49Z" style="fill:#407BFF"></path></g></svg>